SplineFontDB: 3.0
FontName: InconsolataLGC-Italic
FullName: Inconsolata LGC Italic
FamilyName: Inconsolata LGC
Weight: Medium-Italic
Copyright: Created by Raph Levien using his own tools and FontForge. Copyright 2006 Raph Levien. Released under the SIL Open Font License, http://scripts.sil.org/OFL.\n\nHellenisation of the Roman font, by Dimosthenis Kaponis, using FontForge. Hellenic glyphs Copyright 2010-2012 Dimosthenis Kaponis. Released under the SIL Open Font License, http://scripts.sil.org/OFL.\n\nCyrillic glyphs added by MihailJP, using FontForge. Cyrillic glyphs Copyright 2012 MihailJP. Released under the SIL Open Font License, http://scripts.sil.org/OFL.\n\nItalic changes by MihailJP.
UComments: "2005-8-26: Created." 
Version: 1.1.0
ItalicAngle: -10
UnderlinePosition: -100
UnderlineWidth: 50
Ascent: 820
Descent: 180
LayerCount: 2
Layer: 0 0 "Back"  1
Layer: 1 0 "Fore"  0
XUID: [1021 77 1780377399 11264577]
FSType: 8
OS2Version: 0
OS2_WeightWidthSlopeOnly: 0
OS2_UseTypoMetrics: 0
CreationTime: 1161020814
ModificationTime: 1335651327
PfmFamily: 17
TTFWeight: 500
TTFWidth: 5
LineGap: 200
VLineGap: 0
Panose: 2 11 6 9 3 0 3 0 0 0
OS2TypoAscent: 0
OS2TypoAOffset: 1
OS2TypoDescent: 0
OS2TypoDOffset: 1
OS2TypoLinegap: 0
OS2WinAscent: 0
OS2WinAOffset: 1
OS2WinDescent: 0
OS2WinDOffset: 1
HheadAscent: 0
HheadAOffset: 1
HheadDescent: 0
HheadDOffset: 1
OS2Vendor: 'PfEd'
Lookup: 1 0 0 "Macedonian-Serbian Italic"  {"Macedonian-Serbian Italic subtable" ("mkd" ) } ['locl' ('cyrl' <'MKD ' 'SRB ' > ) ]
MarkAttachClasses: 1
DEI: 91125
LangName: 1033 
Encoding: UnicodeBmp
UnicodeInterp: none
NameList: Adobe Glyph List
DisplaySize: -72
AntiAlias: 1
FitToEm: 1
WinInfo: 72 8 2
BeginPrivate: 6
BlueValues 31 [-14 0 529 542 722 730 749 777]
OtherBlues 11 [-201 -193]
StemSnapH 16 [20 63 68 72 79]
StdHW 4 [68]
StemSnapV 7 [77 84]
StdVW 4 [84]
EndPrivate
Grid
-1000 308 m 0
 2000 308 l 0
-1000 1054 m 0
 2000 1054 l 0
-1000 723 m 0
 2000 723 l 0
  Named: "capitals" 
-1000 750 m 0

StartChar: a
Encoding: 97 97 0
Width: 600
Flags: MW
TeX: 97 0
LayerCount: 2
Fore
SplineSet
87.5869 145.129 m 0
 131.316 393.129 351.104 530 452.046 530 c 0
 601.104 530 551.369 503.77 614.871 487 c 1
 609.619 480.617 597.965 453.5 592.764 424 c 0
 570.839 299.659 568.269 281.319 546.522 156.979 c 0
 546.576 156.979 546.629 156.979 546.684 156.979 c 1
 529.403 58.9785 566 0 566 0 c 1
 461.618 -5 l 1
 461.618 -5 447.801 68.4443 468.721 191.603 c 1
 391.709 -0.285156 281.586 -11.7422 202.842 -11.7422 c 0
 118.6 -11.7422 67.1328 29.1289 87.5869 145.129 c 0
170.581 157.129 m 0
 159.648 95.1289 194.549 61.8096 220.549 61.8096 c 0
 318.549 61.8096 415.593 147.129 465.578 249.129 c 0
 478.705 275.916 497.559 331.203 511.436 405.129 c 2
 519.295 447 l 1
 519.295 447 510.182 468.055 456.181 468.055 c 0
 378.182 468.055 202.32 337.129 170.581 157.129 c 0
EndSplineSet
EndChar

StartChar: c
Encoding: 99 99 1
Width: 600
Flags: MW
TeX: 99 0
LayerCount: 2
Fore
SplineSet
121.64 264.509 m 0
 149.653 423.38 280.697 540.028 436.272 540.028 c 0
 521.401 540.028 586.025 503.103 616.937 442 c 0
 545.77 373 l 0
 537.815 379.924 546.036 390.809 543.19 399.753 c 0
 541.216 405.96 508.874 469.074 418.49 469.074 c 0
 321.215 469.074 230.401 393.768 209.129 273.126 c 0
 187.315 149.42 250.705 62.9785 353.861 62.9785 c 0
 406.916 62.9785 492.451 86.4434 535.395 127 c 4
 573.52 71 l 4
 513.439 16.5811 407.395 -13.001 333.488 -13.001 c 0
 183.756 -13.001 93.4951 104.892 121.64 264.509 c 0
EndSplineSet
EndChar

StartChar: m
Encoding: 109 109 2
Width: 600
Flags: MW
TeX: 109 0
LayerCount: 2
Fore
SplineSet
54 0 m 1
 119.594 372 l 2
 132.906 447.5 126.369 504 113.277 529 c 1
 203.577 541 l 1
 205.161 536.105 207.445 510.047 205.756 467.059 c 1
 237.064 505.12 279.348 542 333.569 542 c 0
 381.569 542 413.75 509 413.992 465 c 1
 443.279 512 495.569 542 546.569 542 c 0
 575.569 542 606.63 531 621.163 500 c 1
 636.444 470 631.329 432.653 624.67 394.886 c 0
 623.561 388.592 622.407 382.286 621.299 376 c 2
 582.684 157 l 2
 565.403 59 594 0 594 0 c 1
 492.618 -5 l 1
 492.618 -5 486.933 62 501.744 146 c 2
 542.123 375 l 2
 543.71 384 545.867 393.844 547.631 403.846 c 0
 550.57 420.516 552.415 437.625 548.7 452 c 0
 543.05 471 528.813 481 511.813 481 c 0
 479.813 481 452.994 448 441.35 433 c 0
 416.707 401 409.651 378 404.715 350 c 2
 343 0 l 1
 265 0 l 5
 329.889 368 l 6
 331.299 376 333.044 384.397 334.552 392.95 c 0
 337.19 407.917 339.105 423.364 337.231 438 c 0
 333.345 467 314.284 478 295.284 478 c 0
 274.284 478 247.815 464 222.645 429 c 0
 202.707 401 196.651 378 192.243 353 c 2
 130 0 l 1
 54 0 l 1
EndSplineSet
EndChar

StartChar: s
Encoding: 115 115 3
Width: 600
Flags: MW
TeX: 115 0
LayerCount: 2
Fore
SplineSet
88.6953 72 m 0
 151.331 155 l 0
 156.569 152.331 154.893 145.694 154.539 144.104 c 0
 153.51 139.47 152.418 136.208 155.575 131.72 c 0
 168.968 112.681 217.453 58 314.387 58 c 0
 411.321 58 480.319 92.168 489.062 141.757 c 0
 492.438 160.887 488.203 188.765 448.134 209.208 c 0
 412.306 227.486 326.331 241.548 284.413 257.732 c 0
 257.511 268.119 163.212 301.799 179.511 394.231 c 0
 193.452 473.3 286.118 542.004 409.066 542.004 c 0
 487.37 542.004 552.521 512.905 591.934 459 c 0
 530.062 386 l 0
 528.103 386.487 524.404 388.387 525.672 395.318 c 0
 526.417 399.389 527.667 402.17 525.146 406.383 c 0
 509.583 432.386 466.479 479.074 391.013 479.074 c 0
 331.161 479.074 274.239 449.386 266.728 406.786 c 0
 263.591 389 268.267 363.327 307.825 342.429 c 0
 353.089 318.517 466.23 306.562 520.13 272.983 c 0
 576.569 237.822 584.733 189.62 576.729 153.285 c 0
 553.315 47.002 473.315 -12 345.124 -12 c 0
 216.933 -12 140.649 14.2178 88.6953 72 c 0
EndSplineSet
EndChar

StartChar: I
Encoding: 73 73 4
Width: 600
Flags: MW
TeX: 73 0
LayerCount: 2
Fore
SplineSet
239.308 722 m 0
 597.309 722 l 0
 585.318 654 l 0
 442.317 654 l 0
 338.638 66 l 0
 488.638 66 l 0
 476.823 -1 l 0
 103.823 -1 l 0
 115.813 67 l 0
 257.813 67 l 0
 361.317 654 l 0
 227.317 654 l 0
 239.308 722 l 0
EndSplineSet
EndChar

StartChar: o
Encoding: 111 111 5
Width: 600
Flags: MW
TeX: 111 0
LayerCount: 2
Fore
SplineSet
589.364 262.304 m 4
 558.419 86.8047 427.857 -14 302.5 -14 c 4
 169.079 -14 74.418 99.5322 102.814 260.578 c 4
 131.655 424.14 267.924 541.005 402.834 541.005 c 4
 523.145 541.005 621.594 445.084 589.364 262.304 c 4
384.649 470.103 m 4
 303.687 470.103 215.088 397.575 192.206 267.806 c 4
 169.182 137.225 231.475 57.9932 315.84 57.9932 c 4
 393.109 57.9932 481.313 125.6 504.809 258.844 c 4
 530.438 404.202 461.02 470.103 384.649 470.103 c 4
EndSplineSet
EndChar

StartChar: n
Encoding: 110 110 6
Width: 600
Flags: MW
TeX: 110 0
LayerCount: 2
Fore
SplineSet
89 0 m 1
 154.594 372 l 2
 167.906 447.5 161.369 504 148.277 529 c 1
 246.57 541 l 1
 248.525 534.958 253.866 500.598 247.376 432.674 c 1
 296.048 487.138 363.751 541.083 445.525 542.003 c 0
 505.967 542.683 554.141 508.129 569.994 448.568 c 0
 581.32 406.014 573.891 362.334 566.601 321 c 2
 566.601 321 555.562 258.4 537.685 157 c 0
 520.403 59 549 0 549 0 c 1
 444.618 -5 l 1
 444.618 -5 438.934 62 453.744 146 c 0
 465.641 213.47 484.248 319 484.248 319 c 2
 490.842 356.393 498.614 401.823 475.998 436.061 c 0
 460.992 458.781 436.708 469.58 410.142 469.58 c 0
 354.162 469.58 295.039 422.787 270.114 395.893 c 0
 242.92 366.55 234.066 340.651 227.778 305 c 2
 174 0 l 1
 89 0 l 1
EndSplineSet
EndChar

StartChar: l
Encoding: 108 108 7
Width: 600
Flags: MW
TeX: 108 0
LayerCount: 2
Fore
SplineSet
231.958 703 m 1
 243.771 770 l 1
 477.771 770 l 1
 370.212 160 l 1
 364.159 120 358.804 73 404.804 73 c 0
 429.804 73 450.682 77 480.356 79 c 1
 464.842 0 l 1
 458.501 0 452.955 0 446.614 0 c 0
 434.728 0 422.047 0 410.952 0 c 0
 373.705 0 338.395 2 315.855 18 c 0
 279.847 43 274.046 91 285.331 155 c 0
 285.684 157 285.859 158 286.212 160 c 2
 381.958 703 l 1
 231.958 703 l 1
EndSplineSet
EndChar

StartChar: t
Encoding: 116 116 8
Width: 600
Flags: MW
TeX: 116 0
LayerCount: 2
Fore
SplineSet
346.315 671 m 0
 439.96 686 l 0
 440.607 684 440.255 682 439.902 680 c 0
 438.315 671 431.258 665 427.494 655 c 0
 417.204 625 392.453 530 392.453 530 c 0
 565.453 530 l 0
 553.287 461 l 0
 379.287 461 l 0
 360.12 392 344.953 323 332.787 254 c 0
 319.21 177 318.684 157 317.802 152 c 0
 315.693 89 352.813 67 391.813 67 c 0
 424.813 67 468.459 82 519.277 115 c 0
 533.64 49 l 0
 482.821 16 417.236 -10 354.236 -10 c 0
 300.236 -10 261.939 11 243.111 46 c 0
 219.869 90 229.215 143 237.502 190 c 0
 253.371 280 273.241 370 296.287 461 c 0
 172.287 461 l 0
 185.277 529 l 0
 311.277 529 l 0
 346.315 671 l 0
EndSplineSet
EndChar

StartChar: e
Encoding: 101 101 9
Width: 600
Flags: MW
TeX: 101 0
LayerCount: 2
Fore
SplineSet
111.669 259 m 0
 145.7 452 278.569 542 385.319 542 c 0
 492.069 542 520.647 526.102 546.607 502.517 c 0
 577.715 474.254 590.441 433.519 582.943 391 c 0
 572.541 332 528.722 299 440.256 268 c 0
 373.211 244.852 297.237 244 224.432 244 c 0
 218.606 244 212.802 244 207.023 244 c 2
 192.411 244 l 1
 181.331 86.2256 270.573 55 336.698 55 c 0
 389.698 55 472.4 76 514.277 115 c 1
 552.343 70 l 1
 497.821 16 393.884 -12 317.884 -12 c 0
 174.884 -12 80.459 82 111.669 259 c 0
204.309 308 m 1
 217.309 308 l 2
 236.721 308 258.061 307.626 279.743 307.626 c 0
 319.496 307.626 360.405 308.882 392.72 316 c 0
 461.541 332 491.186 347 498.062 386 c 0
 506.35 433 474.784 478 403.034 478 c 0
 331.284 478 226.529 434.02 204.309 308 c 1
EndSplineSet
EndChar

StartChar: b
Encoding: 98 98 11
Width: 600
Flags: MW
TeX: 98 0
LayerCount: 2
Fore
SplineSet
84.9951 34 m 25
 135.677 321.43 214.948 771 214.948 771 c 0
 312.948 771 l 0
 313.714 764 307.009 760 304.656 758 c 0
 297.95 754 296.422 751 295.363 745 c 0
 242.994 448 l 0
 287.222 506 355.569 542 422.569 542 c 0
 526.569 542 620.405 456 587.784 271 c 0
 559.555 110.9 440.5 0 307.08 0 c 8
 173.66 0 144.082 20.7402 84.9951 34 c 25
180.928 96 m 1
 180.928 96 186.13 62 273.781 62 c 16
 361.433 62 474.171 122.9 497.787 254 c 0
 531.474 440.999 430.874 470 380.874 470 c 0
 328.874 470 275.76 441 247.297 393 c 0
 230.183 364 222.188 330 213.725 282 c 2
 180.928 96 l 1
EndSplineSet
EndChar

StartChar: H
Encoding: 72 72 12
Width: 600
Flags: MW
TeX: 72 0
LayerCount: 2
Fore
SplineSet
200.308 722 m 0
 290.308 722 l 0
 290.84 720.356 290.948 718.529 290.619 716.663 c 0
 289.012 707.549 281.554 706.38 279.371 694 c 0
 229.823 413 l 0
 512.823 413 l 0
 567.309 722 l 0
 655.309 722 l 0
 655.924 720.545 656.092 718.865 655.787 717.137 c 0
 654.239 708.364 645.841 708.006 643.724 696 c 0
 520.823 -1 l 0
 438.823 -1 l 0
 499.656 344 l 0
 217.656 344 l 0
 157 0 l 0
 73 0 l 0
 200.308 722 l 0
EndSplineSet
EndChar

StartChar: g
Encoding: 103 103 13
Width: 600
Flags: MW
TeX: 103 0
LayerCount: 2
Fore
SplineSet
43.4297 -128 m 0
 110.126 -56 l 0
 116.281 -61.9473 113.106 -69.4814 116.489 -77.248 c 0
 119.527 -84.2227 172.27 -136 241.02 -136 c 0
 329.27 -136 334.372 -134 375.487 -113.5 c 0
 416.602 -93 427.362 -66 431.418 -43 c 10
 453.988 85 l 17
 410.585 26 341.884 -12 274.901 -12.0029 c 0
 172.571 -12.0029 72.1514 74.585 106.608 270 c 0
 145.158 488.627 381.949 530 452.26 530 c 8
 522.234 530 553.893 503.77 618.87 487 c 17
 613.618 480.617 601.964 453.5 596.763 424 c 0
 596.763 424 547.07 142.18 515.3 -38 c 17
 502.78 -109 422.911 -199 270.161 -199 c 0
 117.411 -199 73.04 -175.027 43.4297 -128 c 0
192.728 282.731 m 0
 161.98 108.363 242.834 61.8096 302.769 61.8096 c 0
 357.979 61.8096 421.801 98.7178 453.386 162.214 c 0
 466.683 188.943 477.423 218.481 484.585 258.526 c 2
 517.818 447 l 1
 517.818 447 479.316 468.023 423.659 468.054 c 16
 368.001 468.085 219.3 433.439 192.728 282.731 c 0
EndSplineSet
EndChar

StartChar: h
Encoding: 104 104 14
Width: 600
Flags: MW
TeX: 104 0
LayerCount: 2
Fore
SplineSet
91 0 m 0
 226.771 770 l 0
 322.771 770 l 0
 322.954 768.886 322.94 767.712 322.731 766.526 c 0
 321.666 760.484 316.331 756.916 313.176 754.11 c 0
 308.508 749.956 307.704 746.931 307.011 743 c 0
 252.879 436 l 0
 302.153 495.002 375.689 542.003 447.526 542.003 c 0
 507.851 542.003 556.141 508.129 571.994 448.568 c 0
 583.32 406.014 575.89 362.334 568.601 321 c 0
 539.684 157 l 2
 522.403 59 551 0 551 0 c 25
 446.618 -5 l 25
 446.618 -5 440.933 62 455.744 146 c 2
 486.248 319 l 0
 492.842 356.393 500.614 401.823 477.999 436.061 c 0
 462.992 458.781 438.708 469.58 412.141 469.58 c 0
 356.162 469.58 297.039 422.787 272.114 395.893 c 0
 244.92 366.55 236.066 340.651 229.779 305 c 0
 176 0 l 0
 91 0 l 0
EndSplineSet
EndChar

StartChar: u
Encoding: 117 117 15
Width: 600
Flags: MW
TeX: 117 0
LayerCount: 2
Fore
SplineSet
119.751 95 m 0
 106.862 141 115.012 187.998 123.261 234 c 2
 153.172 400.801 l 2
 164.135 461.932 153.968 507.291 142.6 529 c 1
 240.635 541 l 1
 242.211 536.129 254.725 497.512 244.379 438.836 c 2
 208.261 234 l 2
 201.912 197.998 194.685 157 207.159 120 c 0
 220.754 78 254.698 55 296.698 55 c 0
 347.698 55 400.693 89 432.451 133 c 0
 456.271 166 464.736 197 471.966 238 c 2
 523.277 529 l 1
 607.277 529 l 1
 541.685 157 l 2
 524.403 59 561 0 561 0 c 1
 456.618 -5 l 1
 456.618 -5 449.5 21.5 451.423 79.3184 c 1
 404.482 28.1201 325.863 -13 265.708 -13 c 0
 196.708 -13 138.408 25 119.751 95 c 0
EndSplineSet
EndChar

StartChar: r
Encoding: 114 114 16
Width: 600
Flags: MW
TeX: 114 0
LayerCount: 2
Fore
SplineSet
125 0 m 1
 190.594 372 l 2
 203.906 447.5 197.369 504 184.277 529 c 1
 282.569 541 l 1
 284.439 535.224 291.852 513.52 286.671 450.851 c 1
 335.787 511.45 406.353 541.116 480.463 541.69 c 0
 554.573 542.265 599.055 518.114 626.342 484 c 1
 573.236 404 l 1
 565.842 412.505 563.659 421.668 558.271 430.554 c 0
 546.756 449.542 522.396 470.205 447.653 470.205 c 0
 372.91 470.205 331.039 422.787 306.114 395.893 c 0
 278.92 366.55 270.065 340.651 263.778 305 c 2
 209.999 0 l 1
 125 0 l 1
EndSplineSet
EndChar

StartChar: i
Encoding: 105 105 17
Width: 600
Flags: MW
TeX: 105 0
LayerCount: 2
Fore
SplineSet
214.463 462 m 1
 226.453 530 l 1
 438.455 530 l 1
 373.214 160 l 1
 367.161 120 361.806 73 407.806 73 c 0
 432.806 73 453.684 77 483.358 79 c 1
 467.844 0 l 1
 461.503 0 455.957 0 449.616 0 c 0
 437.729 0 425.049 0 413.954 0 c 0
 376.707 0 341.396 2 318.857 18 c 0
 282.849 43 277.048 91 288.333 155 c 0
 288.686 157 288.861 158 289.214 160 c 2
 342.465 462 l 1
 214.463 462 l 1
368.495 700.486 m 0
 374.275 733.264 405.817 760 438.998 760 c 0
 472.166 760 494.314 733.273 488.533 700.486 c 0
 482.756 667.72 451.206 640.992 418.014 640.992 c 0
 384.842 640.992 362.718 667.716 368.495 700.486 c 0
EndSplineSet
EndChar

StartChar: f
Encoding: 102 102 18
Width: 600
Flags: MW
TeX: 102 0
LayerCount: 2
Fore
SplineSet
159.173 432 m 1
 170.811 498 l 1
 285.811 498 l 1
 294.979 550 l 2
 303.268 597 313.025 641 347.784 685 c 0
 395.363 745 471.006 777 545.006 777 c 0
 612.006 777 664.422 751 694.311 705 c 1
 642.733 628 l 1
 638.733 628 634.086 630 635.496 638 c 0
 635.378 643 636.907 646 633.789 651 c 0
 617.784 685 580.545 712 529.545 712 c 0
 485.545 712 441.019 692 412.142 653 c 0
 388.35 621.182 381.038 584.405 374.871 549.431 c 0
 374.255 545.934 373.649 542.455 373.04 539 c 2
 365.811 498 l 1
 538.811 498 l 1
 527.173 432 l 1
 354.173 432 l 1
 248.377 -168 l 1
 168.377 -168 l 1
 274.173 432 l 1
 159.173 432 l 1
EndSplineSet
EndChar

StartChar: v
Encoding: 118 118 19
Width: 600
Flags: MW
TeX: 118 0
LayerCount: 2
Fore
SplineSet
149.453 530 m 4
 249.453 530 l 4
 249.783 520.53 242.991 514.363 241.748 507.316 c 4
 241.257 504.529 241.628 502.45 242.163 500 c 4
 326.925 113 l 4
 446.661 310 l 4
 488.875 379.454 529.842 452.863 557.453 530 c 4
 632.453 530 l 4
 600.612 449.312 557.279 372.127 512.545 298 c 4
 330.295 -4 l 4
 265.295 -4 l 4
 149.453 530 l 4
EndSplineSet
EndChar

StartChar: d
Encoding: 100 100 20
Width: 600
Flags: MW
TeX: 100 0
LayerCount: 2
Fore
SplineSet
109.446 269.088 m 0
 147.996 487.715 381.949 530 434.17 530 c 8
 486.391 530 529.748 509 529.748 509 c 1
 575.948 771 l 1
 664.948 771 l 1
 663.986 763.115 658.576 757.358 655.535 753.665 c 0
 650.281 747.282 649.186 744.04 648.129 738 c 0
 626.385 613.659 568.267 281.319 546.522 156.979 c 1
 546.576 156.979 546.629 156.979 546.684 156.979 c 1
 529.403 58.9785 566 0 566 0 c 1
 461.618 -5 l 1
 461.618 -5 458.684 36.8945 460.594 95.9609 c 1
 416.2 38.2314 336.589 -11.7422 270.432 -11.7422 c 0
 168.102 -11.7422 74.9893 73.6729 109.446 269.088 c 0
192.727 282.731 m 0
 161.98 108.363 242.834 61.8096 302.769 61.8096 c 0
 357.979 61.8096 419.277 98.7178 450.862 162.214 c 0
 464.159 188.943 478.423 218.482 485.585 258.526 c 2
 519.295 447 l 1
 519.295 447 478.367 468.024 423.184 468.055 c 16
 368.001 468.085 219.3 433.439 192.727 282.731 c 0
EndSplineSet
EndChar

StartChar: p
Encoding: 112 112 21
Width: 600
Flags: MW
TeX: 112 0
LayerCount: 2
Fore
SplineSet
45.9688 -193 m 1
 149.85 400.801 l 1
 157.071 461.829 150.646 507.291 139.277 529 c 1
 229.577 541 l 1
 231.153 536.129 239.555 497.369 233.321 438.836 c 1
 278.445 491.875 338.963 541 426.393 541 c 0
 530.393 541 626.758 458 593.783 271 c 0
 559.577 77 432 0 347.079 0 c 0
 262.157 0 217.687 9.07129 168.359 19.0498 c 1
 130.969 -193 l 1
 45.9688 -193 l 1
180.929 96 m 1
 180.929 96 255.713 60 308.146 60 c 0
 360.58 60 474.342 87 503.609 253 c 0
 537.642 446 429.874 470 383.874 470 c 0
 329.874 470 275.76 441 247.297 393 c 0
 230.536 366 222.895 334 214.959 289 c 0
 201.381 212 180.929 96 180.929 96 c 1
EndSplineSet
EndChar

StartChar: q
Encoding: 113 113 22
Width: 600
Flags: MW
TeX: 113 0
LayerCount: 2
Fore
SplineSet
106.608 270 m 0
 145.158 488.627 381.949 530 452.26 530 c 8
 522.571 530 554.104 503.77 618.87 487 c 17
 613.618 480.617 601.964 453.5 596.763 424 c 0
 596.763 424 547.285 143.4 515.652 -36 c 17
 498.372 -134 526.969 -193 526.969 -193 c 25
 422.587 -198 l 25
 422.587 -198 415.196 -135 430.008 -51 c 10
 453.988 85 l 17
 410.585 26 341.884 -12 274.901 -12.0029 c 0
 172.571 -12.0029 72.1514 74.585 106.608 270 c 0
192.727 282.731 m 0
 161.98 108.363 242.834 61.8096 302.769 61.8096 c 0
 357.979 61.8096 421.801 98.7178 453.386 162.214 c 0
 466.683 188.943 477.423 218.481 484.585 258.526 c 2
 517.818 447 l 1
 517.818 447 479.316 468.023 423.659 468.054 c 16
 368.001 468.085 219.3 433.439 192.727 282.731 c 0
EndSplineSet
EndChar

StartChar: y
Encoding: 121 121 23
Width: 600
Flags: MW
TeX: 121 0
LayerCount: 2
Fore
SplineSet
156.277 529 m 4
 260.277 529 l 4
 259.091 518.579 252.245 512.755 250.741 504.226 c 4
 250.146 500.853 250.556 498.287 251.282 495 c 4
 337.515 105 l 4
 488.591 389 l 4
 512.837 434.578 536.162 481.532 553.453 530 c 4
 640.453 530 l 4
 615.761 478.243 588.399 427.412 560.476 377 c 4
 318.42 -60 l 4
 301.821 -89.9668 285.719 -117.887 258.007 -143.905 c 4
 215.734 -183.593 163.034 -201.18 115.223 -201.18 c 4
 71.6982 -201.18 33.708 -186.251 8.31641 -157 c 4
 64.541 -82 l 4
 70.4336 -87.3564 68.4814 -95.084 70.4639 -100.819 c 4
 72.415 -106.465 87.7988 -132.772 127.036 -132.772 c 4
 151.83 -132.772 180.933 -121.95 207.109 -98.4824 c 4
 227.031 -80.6211 241.585 -58.0557 254.476 -37 c 4
 278.353 2 l 4
 156.277 529 l 4
EndSplineSet
EndChar

StartChar: period
Encoding: 46 46 24
Width: 600
Flags: MW
TeX: 112 0
LayerCount: 2
Fore
SplineSet
364.435 53.4932 m 0
 358.001 17.0088 322.252 -13.0459 284.141 -13.0459 c 0
 246.114 -13.0459 220.946 16.9805 227.387 53.5088 c 0
 233.814 89.9629 269.543 120.002 307.621 120.002 c 0
 345.716 120.002 370.864 89.9609 364.435 53.4932 c 0
EndSplineSet
EndChar

StartChar: comma
Encoding: 44 44 25
Width: 600
Flags: MW
TeX: 99 0
LayerCount: 2
Fore
SplineSet
368.179 22.835 m 0
 357.541 -37.4941 301.771 -113.057 206.616 -195 c 0
 172.788 -160 l 0
 204.726 -134.726 229.167 -106.529 243.765 -87.9336 c 0
 251.062 -78.6377 266.053 -58.834 269.435 -39.6582 c 0
 273.641 -15.8027 258.446 -5.13281 249.56 1.5625 c 0
 240.523 8.37109 220.798 21.6943 226.292 52.8525 c 0
 232.463 87.8496 266.507 118.93 304.643 118.93 c 0
 345.857 118.93 378.635 82.1328 368.179 22.835 c 0
EndSplineSet
EndChar

StartChar: plus
Encoding: 43 43 28
Width: 600
Flags: MW
TeX: 112 0
LayerCount: 2
Fore
SplineSet
373.854 606 m 5
 446.854 606 l 5
 411.941 408 l 5
 609.941 408 l 5
 597.422 337 l 5
 399.422 337 l 5
 361.159 120 l 5
 288.159 120 l 5
 326.422 337 l 5
 121.422 337 l 5
 133.941 408 l 5
 338.941 408 l 5
 373.854 606 l 5
EndSplineSet
EndChar

StartChar: minus
Encoding: 8722 8722 29
Width: 600
Flags: MW
TeX: 104 0
LayerCount: 2
Fore
SplineSet
132.178 398 m 29
 608.178 398 l 29
 595.659 327 l 29
 119.659 327 l 29
 132.178 398 l 29
EndSplineSet
EndChar

StartChar: underscore
Encoding: 95 95 31
Width: 600
Flags: MW
TeX: 117 0
LayerCount: 2
Fore
SplineSet
46.1211 -22 m 29
 546.121 -22 l 29
 533.602 -93 l 29
 33.6016 -93 l 29
 46.1211 -22 l 29
EndSplineSet
EndChar

StartChar: less
Encoding: 60 60 32
Width: 600
Flags: MW
TeX: 108 0
LayerCount: 2
Fore
SplineSet
642.388 575 m 25
 204.241 370 l 25
 569.038 142 l 25
 553.698 55 l 25
 110.48 343 l 25
 120.354 399 l 25
 656.847 657 l 25
 642.388 575 l 25
EndSplineSet
EndChar

StartChar: greater
Encoding: 62 62 33
Width: 600
Flags: MW
TeX: 103 0
LayerCount: 2
Fore
SplineSet
160.388 575 m 25
 174.847 657 l 25
 620.354 399 l 25
 610.48 343 l 25
 65.6982 55 l 25
 81.0381 142 l 25
 526.241 370 l 25
 160.388 575 l 25
EndSplineSet
EndChar

StartChar: quotesingle
Encoding: 39 39 34
Width: 600
Flags: MW
TeX: 113 0
LayerCount: 2
Fore
SplineSet
496.487 706 m 2
 477.091 595.999 l 1
 460.753 491.999 l 1
 362.753 491.999 l 1
 367.569 541.999 371.569 541.999 378.386 591.999 c 1
 388.074 611.499 382.25 625.257 386.26 647.999 c 2
 396.486 705.999 l 2
 404.56 751.781 441.312 772.143 463.654 772.143 c 0
 486.416 772.143 505.732 758.433 496.487 706 c 2
EndSplineSet
EndChar

StartChar: grave
Encoding: 96 96 35
Width: 600
Flags: MW
TeX: 103 0
LayerCount: 2
Fore
SplineSet
293.09 353.122 m 2
 229.977 463.064 l 1
 170.353 563.322 l 1
 168 744 l 1
 196.592 701.4 196.688 694.026 225.328 647.74 c 1
 236.667 616.728 244.362 618.187 257.411 595.457 c 2
 290.689 537.487 l 2
 316.957 491.729 329.436 410.24 329.972 369.047 c 0
 330.519 327.082 323.174 300.717 293.09 353.122 c 2
EndSplineSet
EndChar

StartChar: slash
Encoding: 47 47 36
Width: 600
Flags: MW
TeX: 115 0
LayerCount: 2
Fore
SplineSet
81.3555 -15 m 25
 582.771 770 l 25
 645.601 735 l 25
 143.36 -49 l 25
 81.3555 -15 l 25
EndSplineSet
EndChar

StartChar: backslash
Encoding: 92 92 37
Width: 600
Flags: MW
TeX: 98 0
LayerCount: 2
Fore
SplineSet
513.355 -15 m 25
 439.36 -49 l 25
 213.601 735 l 25
 288.771 770 l 25
 513.355 -15 l 25
EndSplineSet
EndChar

StartChar: micro
Encoding: 181 181 38
Width: 600
Flags: MW
TeX: 117 0
LayerCount: 2
Fore
SplineSet
3.96875 -193 m 0
 28.5967 -59 76.3408 87 102.261 234 c 0
 154.277 529 l 0
 230.277 529 l 0
 174.91 215 l 0
 168.739 180 163.92 147 174.277 115 c 0
 187.872 73 220.816 50 257.816 50 c 0
 299.816 50 345.93 79 374.217 126 c 0
 392.507 156 399.797 186 406.145 222 c 0
 460.277 529 l 0
 534.277 529 l 0
 464.628 134 l 0
 461.454 116 457.751 95 464.754 78 c 0
 469.933 62 482.698 55 496.698 55 c 0
 536.698 55 570.572 111 570.572 111 c 0
 591.169 52 l 0
 563.174 18 520.884 -12 477.884 -12 c 0
 428.884 -12 395.938 28 398.754 78 c 0
 362.056 23 300.708 -13 240.708 -13 c 0
 184.708 -13 138.351 19 123.343 70 c 0
 107.826 -18 92.3096 -106 75.9688 -193 c 0
 3.96875 -193 l 0
EndSplineSet
EndChar

StartChar: braceleft
Encoding: 123 123 39
Width: 600
Flags: MW
TeX: 98 0
LayerCount: 2
Fore
SplineSet
129.012 329 m 0
 152.012 329 l 0
 173.012 329 204.012 329 234.596 355 c 0
 266.71 384 276.939 425 281.876 453 c 0
 286.813 481 288.574 508 293.512 536 c 0
 301.27 580 318.73 645 378.019 692 c 0
 432.601 735 496.129 738 552.129 738 c 0
 561.129 738 569.129 738 578.129 738 c 0
 613.129 738 l 0
 601.492 672 l 0
 561.492 672 l 0
 544.492 672 529.668 673 515.668 673 c 0
 487.668 673 465.139 670 441.847 657 c 0
 391.91 629 380.035 573 375.804 549 c 0
 371.043 522 370.458 496 365.521 468 c 0
 360.76 441 351.589 406 330.123 375 c 0
 306.951 340 273.014 312 234.369 297 c 0
 275.725 282 321.966 238 300.63 117 c 0
 294.282 81 284.816 50 279.526 20 c 0
 272.474 -20 269.48 -71 306.367 -100 c 0
 329.193 -118 359.018 -119 396.018 -119 c 0
 403.018 -119 410.018 -119 418.018 -119 c 0
 461.018 -119 l 0
 449.556 -184 l 0
 407.556 -184 l 0
 395.556 -184 383.556 -184 371.556 -184 c 0
 315.556 -184 268.085 -181 232.728 -149 c 0
 180.015 -102 189.944 -23 197.351 19 c 0
 205.285 64 216.456 99 222.804 135 c 0
 231.62 185 229.615 219 210.495 241 c 0
 190.551 264 161.551 264 141.551 264 c 0
 117.551 264 l 0
 129.012 329 l 0
EndSplineSet
EndChar

StartChar: braceright
Encoding: 125 125 40
Width: 600
Flags: MW
TeX: 98 0
LayerCount: 2
Fore
SplineSet
587.012 329 m 0
 575.551 264 l 0
 551.551 264 l 0
 531.551 264 502.551 264 474.495 241 c 0
 447.615 219 433.62 185 424.804 135 c 0
 418.456 99 417.285 64 409.351 19 c 0
 401.944 -23 384.015 -102 314.728 -149 c 0
 268.085 -181 219.556 -184 163.556 -184 c 0
 151.556 -184 139.556 -184 127.556 -184 c 0
 85.5557 -184 l 0
 97.0176 -119 l 0
 140.018 -119 l 0
 148.018 -119 155.018 -119 162.018 -119 c 0
 199.018 -119 229.193 -118 258.367 -100 c 0
 305.48 -71 320.474 -20 327.526 20 c 0
 332.816 50 334.282 81 340.63 117 c 0
 361.966 238 423.725 282 470.369 297 c 0
 437.014 312 412.951 340 402.123 375 c 0
 391.589 406 394.76 441 399.521 468 c 0
 404.458 496 413.043 522 417.804 549 c 0
 422.035 573 429.91 629 389.847 657 c 0
 371.139 670 349.668 673 321.668 673 c 0
 307.668 673 292.492 672 275.492 672 c 0
 235.492 672 l 0
 247.129 738 l 0
 282.129 738 l 0
 291.129 738 299.129 738 308.129 738 c 0
 364.129 738 426.601 735 466.019 692 c 0
 508.73 645 503.27 580 495.512 536 c 0
 490.574 508 482.813 481 477.876 453 c 0
 472.939 425 468.71 384 490.596 355 c 0
 512.012 329 543.012 329 564.012 329 c 0
 587.012 329 l 0
EndSplineSet
EndChar

StartChar: asterisk
Encoding: 42 42 41
Width: 600
Flags: MW
TeX: 97 0
LayerCount: 2
Fore
SplineSet
362.973 601 m 0
 456.973 601 l 0
 452.578 587.217 448.536 584.406 444.507 570 c 0
 395.825 396 l 0
 594.637 480 l 0
 613.118 409 l 0
 403.538 349 l 0
 518.681 174 l 0
 446.864 124 l 0
 355.72 316 l 0
 191.688 123 l 0
 137.681 174 l 0
 319.361 348 l 0
 130.118 409 l 0
 173.342 484 l 0
 344.825 396 l 0
 362.973 601 l 0
EndSplineSet
EndChar

StartChar: O
Encoding: 79 79 42
Width: 600
Flags: MW
TeX: 79 0
LayerCount: 2
Fore
SplineSet
619.398 359.504 m 0
 608.218 296.095 587.8 206.273 535.753 128.645 c 0
 471.261 32.457 380.483 -11.0146 302.543 -11.0146 c 0
 192.034 -11.0146 57.8232 78.3984 107.85 362.113 c 0
 157.887 645.884 324.8 730 432.479 730 c 0
 511.071 730 585.521 686.67 616.513 593.902 c 0
 642.289 516.748 631.309 427.05 619.398 359.504 c 0
415.681 654.01 m 0
 339.815 654.01 227.636 587.911 189.681 372.659 c 0
 149.195 143.053 235.607 67.9873 316.822 67.9873 c 0
 365.403 67.9873 426.185 95.4453 471.985 165.717 c 0
 512.549 227.951 528.268 301.614 536.604 348.897 c 0
 547.381 410.01 555.874 479.154 542.174 539.849 c 0
 523.282 623.543 466.91 654.01 415.681 654.01 c 0
EndSplineSet
EndChar

StartChar: zero
Encoding: 48 48 43
Width: 600
Flags: MW
TeX: 122 0
LayerCount: 2
Fore
SplineSet
429.438 727 m 0
 540.535 727 635.96 595.219 592.508 348.788 c 0
 548.762 100.694 405.016 -13.0215 300.229 -13.0215 c 0
 186.062 -13.0215 89.4443 121.658 130.628 355.222 c 0
 171.37 586.285 314.854 727 429.438 727 c 0
513.155 561.958 m 1
 493.419 625.695 455.327 656 415.827 656 c 0
 344.268 656 241.485 554.031 208.914 369.311 c 0
 199.914 318.267 197.775 272.506 200.963 232.842 c 1
 513.155 561.958 l 1
526.298 484.525 m 1
 214.762 159.413 l 1
 234.972 96.084 273.181 60.8848 316.062 60.8848 c 0
 379.769 60.8848 480.363 137.611 515.94 339.376 c 0
 525.841 395.528 528.715 443.805 526.298 484.525 c 1
EndSplineSet
EndChar

StartChar: one
Encoding: 49 49 44
Width: 600
Flags: MW
TeX: 111 0
LayerCount: 2
Fore
SplineSet
484.484 723 m 0
 356.823 -1 l 0
 275.823 -1 l 0
 385.676 622 l 0
 233.094 579 l 0
 222.028 624 l 0
 428.484 723 l 0
 484.484 723 l 0
EndSplineSet
EndChar

StartChar: two
Encoding: 50 50 45
Width: 600
Flags: MW
TeX: 116 0
LayerCount: 2
Fore
SplineSet
207.56 610 m 0
 262.934 682.72 348.366 727.008 430.298 727.008 c 0
 548.166 727.008 623.802 636.692 603.966 524.194 c 0
 585.656 420.356 498.46 346.096 436.784 296.506 c 0
 376.129 247.737 279.254 175.987 200.52 71 c 0
 503.52 71 l 0
 508.803 71 511.342 71.7412 516.757 75.7939 c 0
 519.53 77.8701 526.201 83.4951 533.282 81 c 0
 519 0 l 0
 95 0 l 0
 103.992 51 l 0
 185.946 170.93 265.583 245.442 361.14 319.728 c 0
 421.812 366.894 507.096 430.278 522.606 518.244 c 0
 536.29 595.847 485.055 655.449 408.128 655.449 c 0
 345.07 655.449 294.793 616.16 273.082 589.668 c 0
 265.208 580.06 266.893 572.819 258.272 563 c 0
 207.56 610 l 0
EndSplineSet
EndChar

StartChar: N
Encoding: 78 78 46
Width: 600
Flags: MW
TeX: 78 0
LayerCount: 2
Fore
SplineSet
68 0 m 0
 195.308 722 l 0
 274.308 722 l 0
 482.973 187 l 0
 577.484 723 l 0
 663.484 723 l 0
 663.225 716.255 659.229 710.683 657.499 708.22 c 0
 653.791 702.938 651.439 700.058 650.019 692 c 0
 527.823 -1 l 0
 463.823 -1 l 0
 246.153 568 l 0
 146 0 l 0
 68 0 l 0
EndSplineSet
EndChar

StartChar: four
Encoding: 52 52 47
Width: 600
Flags: MW
TeX: 102 0
LayerCount: 2
Fore
SplineSet
500.484 723 m 0
 568.484 723 l 0
 488.784 271 l 0
 581.784 271 l 0
 569.089 199 l 0
 476.089 199 l 0
 441 0 l 0
 357 0 l 0
 392.266 200 l 0
 101.266 200 l 0
 111.845 260 l 0
 500.484 723 l 0
462.738 594 m 0
 193.784 271 l 0
 405.784 271 l 0
 462.738 594 l 0
EndSplineSet
EndChar

StartChar: eight
Encoding: 56 56 48
Width: 600
Flags: MW
TeX: 101 0
LayerCount: 2
Fore
SplineSet
438.128 731.061 m 0
 544.08 731.061 612.734 655.222 595.958 560.081 c 0
 583.692 490.519 526.532 422.756 450.062 386 c 0
 524.839 348.449 569.217 271.387 554.228 186.38 c 0
 534.832 76.3799 423.799 -12.0635 296.995 -12.0635 c 0
 172.649 -12.0635 92.8916 73.9893 111.858 181.557 c 0
 126.549 264.873 198.917 343.716 291.71 384 c 0
 232.408 417.286 198.952 482.052 211.474 553.066 c 0
 228.625 650.336 327.622 731.061 438.128 731.061 c 0
346.891 351 m 0
 273.143 322.472 208.933 260.535 196.901 192.304 c 0
 184.092 119.655 235.033 60.9951 313.58 60.9951 c 0
 390.766 60.9951 459.992 117.609 472.268 187.223 c 0
 484.708 257.778 434.617 321.691 346.891 351 c 0
419.91 663.016 m 0
 356.896 663.016 300.694 616.894 290.659 559.982 c 0
 273.835 464.568 392.176 415 392.176 415 c 0
 453.758 445.252 506.015 499.154 515.812 554.724 c 0
 526.443 615.015 484.448 663.016 419.91 663.016 c 0
EndSplineSet
EndChar

StartChar: five
Encoding: 53 53 49
Width: 600
Flags: MW
TeX: 102 0
LayerCount: 2
Fore
SplineSet
260.308 722 m 0
 626.309 722 l 0
 613.437 649 l 0
 315.437 649 l 0
 267.76 441 l 0
 308.46 459.661 350.439 469.014 390.312 469.014 c 0
 511.203 469.014 593.549 382.829 566.296 228.267 c 0
 538.701 71.7705 420.504 -13.0166 295.692 -13.0166 c 0
 209.892 -13.0166 136.698 27.3242 101.28 98 c 0
 182.802 152 l 0
 191.47 144.928 183.511 133.516 186.622 124.688 c 0
 189.299 117.094 229.25 57.9863 307.215 57.9863 c 0
 384.725 57.9863 463.974 118.764 483.553 229.807 c 0
 503.842 344.87 442.177 402.108 366.164 402.108 c 0
 316.859 402.108 261.476 377.882 218.894 334 c 0
 170.596 355 l 0
 260.308 722 l 0
EndSplineSet
EndChar

StartChar: S
Encoding: 83 83 50
Width: 600
Flags: MW
TeX: 83 0
LayerCount: 2
Fore
SplineSet
626.144 636 m 0
 562.978 567 l 0
 560.58 567.77 557.646 570.059 558.546 576.479 c 0
 559.144 580.739 560.152 583.155 557.873 587.627 c 0
 537.1 628.402 490.807 659.139 423.546 659.139 c 0
 340.891 659.139 284.251 608.659 274.49 553.304 c 0
 269.286 523.788 275.084 480.959 329.276 445.621 c 0
 388.529 406.982 486.638 386.478 539.014 327.335 c 0
 576.705 284.776 578.713 234.352 572.05 196.567 c 0
 556.027 105.698 470.351 -12.0684 294.615 -12.0684 c 0
 205.518 -12.0684 130.159 19.167 84.2822 81 c 0
 146.918 164 l 0
 151.962 161.188 150.583 154.812 150.219 152.899 c 0
 149.311 148.118 148.494 145.188 151.311 140.598 c 0
 176.383 99.7119 230.589 60.9502 309.847 60.9502 c 0
 414.668 60.9502 479.528 129.108 490.605 191.929 c 0
 496.299 224.218 489.727 261.931 447.605 291.612 c 0
 399.067 325.812 299.256 350.797 241.085 400.177 c 0
 188.723 444.627 181.771 498.906 189.193 541.004 c 0
 206.605 639.749 311.378 726.008 441.775 726.008 c 0
 520.48 726.008 587.49 694.099 626.144 636 c 0
EndSplineSet
EndChar

StartChar: M
Encoding: 77 77 51
Width: 600
Flags: MW
TeX: 77 0
LayerCount: 2
Fore
SplineSet
184.308 722 m 0
 248.308 722 l 0
 365.064 369 l 0
 609.484 723 l 0
 670.484 723 l 0
 542.823 -1 l 0
 465.823 -1 l 0
 562.099 545 l 0
 354.787 254 l 0
 323.787 254 l 0
 228.393 541 l 0
 132.823 -1 l 0
 56.8232 -1 l 0
 184.308 722 l 0
EndSplineSet
EndChar

StartChar: L
Encoding: 76 76 52
Width: 600
Flags: MW
TeX: 76 0
LayerCount: 2
Fore
SplineSet
214.308 722 m 0
 308.308 722 l 0
 308.107 713.763 303.341 707.037 301.052 703.776 c 0
 296.492 697.278 293.277 693.469 291.432 683 c 0
 183.167 69 l 0
 531.167 69 l 0
 518.823 -1 l 0
 86.8232 -1 l 0
 214.308 722 l 0
EndSplineSet
EndChar

StartChar: ampersand
Encoding: 38 38 53
Width: 600
Flags: MW
TeX: 78 0
LayerCount: 2
Fore
SplineSet
403.781 729.113 m 0
 490.652 729.113 547.146 664.093 531.409 574.842 c 0
 518.043 499.041 455.229 423.321 372.356 382 c 0
 470.441 201 l 0
 503.604 232.964 525.406 266.737 538.887 294.093 c 0
 540.238 296.839 541.465 299.921 542.032 303.138 c 0
 542.838 307.706 542.031 312.21 542.865 316.938 c 0
 543.862 322.596 546.829 326.511 550.012 329 c 0
 615.843 277 l 0
 581.472 230.061 544.123 184.947 504.038 142 c 0
 566.524 37 l 0
 489.531 -14 l 0
 443.517 88 l 0
 387.471 30.9902 308.528 -12.0312 230.498 -12.0312 c 0
 126.216 -12.0312 63.418 66.2734 81.6074 169.432 c 0
 97.3525 258.731 170.375 348.312 268.002 397 c 0
 234.265 448.798 206.524 513.456 217.744 577.085 c 0
 232.992 663.562 315.676 729.113 403.781 729.113 c 0
297.395 575.613 m 0
 292.021 545.141 297.359 503.946 342.173 432 c 0
 401.17 461.715 445.24 516.513 454.549 569.305 c 0
 464.226 624.184 432.885 660.403 390.182 660.403 c 0
 349.094 660.403 306.354 626.428 297.395 575.613 c 0
298.48 343 m 0
 229.872 303.101 181.233 237.448 170.654 177.45 c 0
 158.788 110.152 197.097 62.8262 256.252 62.8262 c 0
 333.484 62.8262 411.215 143 411.215 143 c 0
 298.48 343 l 0
EndSplineSet
EndChar

StartChar: F
Encoding: 70 70 54
Width: 600
Flags: MW
TeX: 78 0
LayerCount: 2
Fore
SplineSet
227.484 723 m 0
 643.484 723 l 0
 630.965 652 l 0
 296.965 652 l 0
 256.939 425 l 0
 526.939 425 l 0
 514.596 355 l 0
 244.596 355 l 0
 182 0 l 0
 100 0 l 0
 227.484 723 l 0
EndSplineSet
EndChar

StartChar: w
Encoding: 119 119 55
Width: 600
Flags: MW
TeX: 119 0
LayerCount: 2
Fore
SplineSet
121.453 530 m 0
 206.453 530 l 0
 207.866 521 203.456 513 200.397 507 c 0
 195.811 498 195.105 494 195.695 486 c 0
 205.338 104 l 0
 362.637 480 l 0
 413.637 480 l 0
 459.515 105 l 0
 547.467 372.211 569.479 448.705 579.81 507.287 c 0
 581.115 514.694 582.235 521.816 583.277 529 c 0
 660.277 529 l 0
 605.891 351 545.857 175 478.823 -1 c 0
 400.823 -1 l 0
 363.304 342 l 0
 209.823 -1 l 0
 134.823 -1 l 0
 121.453 530 l 0
EndSplineSet
EndChar

StartChar: quotedbl
Encoding: 34 34 58
Width: 600
Flags: MW
TeX: 113 0
LayerCount: 2
Fore
SplineSet
580.486 706 m 2
 561.091 596 l 1
 544.393 492 l 1
 464.033 492 l 1
 469.569 542 472.85 542 480.025 592 c 1
 488.589 611.5 484.25 625.258 488.26 648 c 2
 498.487 706 l 2
 506.56 751.782 537.342 772.143 555.663 772.143 c 0
 574.328 772.143 589.732 758.433 580.486 706 c 2
378.487 706 m 2
 359.091 596 l 1
 342.393 492 l 1
 262.033 492 l 1
 267.569 542 270.85 542 278.025 592 c 1
 286.589 611.5 282.25 625.258 286.26 648 c 2
 296.487 706 l 2
 304.56 751.782 335.342 772.143 353.663 772.143 c 0
 372.328 772.143 387.732 758.433 378.487 706 c 2
EndSplineSet
EndChar

StartChar: T
Encoding: 84 84 59
Width: 600
Flags: MW
TeX: 84 0
LayerCount: 2
Fore
SplineSet
173.484 723 m 0
 673.484 723 l 0
 660.612 650 l 0
 447.612 650 l 0
 332.823 -1 l 0
 250.823 -1 l 0
 365.612 650 l 0
 160.612 650 l 0
 173.484 723 l 0
EndSplineSet
EndChar

StartChar: hyphen
Encoding: 45 45 60
Width: 600
Flags: MW
TeX: 104 0
LayerCount: 2
Fore
SplineSet
163.06 403 m 0
 580.06 403 l 0
 566.482 326 l 0
 149.482 326 l 0
 163.06 403 l 0
EndSplineSet
EndChar

StartChar: exclam
Encoding: 33 33 61
Width: 600
Flags: MW
TeX: 101 0
LayerCount: 2
Fore
SplineSet
365.787 55.4912 m 0
 359.123 17.7002 323.001 -13.0166 285.184 -13.0166 c 0
 247.377 -13.0166 222.072 17.6865 228.739 55.4932 c 0
 235.403 93.2861 271.525 124.002 309.343 124.002 c 0
 347.148 124.002 372.453 93.2969 365.787 55.4912 c 0
425.749 774.001 m 0
 447.497 774.001 469.307 759.407 472.063 724.32 c 0
 472.602 717.475 472.98 704.489 468.178 677.25 c 0
 460.371 632.979 444.772 589.116 434.099 545 c 0
 356.674 225 l 0
 298.674 225 l 0
 338.099 545 l 0
 347.479 621.137 345.05 649.274 351.644 686.67 c 0
 355.471 708.378 360.807 724.012 368.383 736.818 c 0
 383.115 761.721 405.68 774.001 425.749 774.001 c 0
EndSplineSet
EndChar

StartChar: U
Encoding: 85 85 63
Width: 600
Flags: MW
TeX: 85 0
LayerCount: 2
Fore
SplineSet
195.308 722 m 0
 286.308 722 l 0
 286.775 720.163 286.833 718.172 286.477 716.15 c 0
 285.257 709.235 279.853 704.498 276.034 700.195 c 0
 270.699 694.182 269.713 690.266 268.784 685 c 0
 191.729 248 l 0
 185.406 212.142 179.938 177.155 190.3 141.578 c 0
 206.473 86.0527 255.665 55.9209 312.928 55.9209 c 0
 369.274 55.9209 428.831 85.3438 465.25 140.549 c 0
 489.485 177.288 496.68 213.693 503.258 251 c 0
 586.309 722 l 0
 663.309 722 l 0
 580.61 253 l 0
 571.299 200.192 560.888 150.173 524.685 99.8135 c 0
 470.271 24.125 382.604 -13.0732 299.156 -13.0732 c 0
 213.96 -13.0732 140.56 24.9775 113.636 99.2168 c 0
 95.6494 148.814 102.905 197.96 111.905 249 c 0
 195.308 722 l 0
EndSplineSet
EndChar

StartChar: numbersign
Encoding: 35 35 64
Width: 600
Flags: MW
TeX: 110 0
LayerCount: 2
Fore
SplineSet
338.484 723 m 5
 409.014 726 l 5
 349.929 527.366 l 5
 477.845 528.891 l 5
 533.427 717 l 5
 605.955 720 l 5
 549.166 529.742 l 5
 654.63 531 l 5
 638.755 475 l 5
 532.509 473.939 l 5
 474.298 278.915 l 5
 589.548 281 l 5
 574.026 227 l 5
 458.245 225.134 l 5
 395.821 16 l 5
 325.116 12 l 5
 387.756 223.998 l 5
 259.074 221.924 l 5
 197.821 16 l 5
 129.292 13 l 5
 190.523 220.82 l 5
 77.6152 219 l 5
 91.9609 272 l 5
 206.212 274.066 l 5
 264.313 471.262 l 5
 137.874 470 l 5
 151.571 525 l 5
 280.6 526.539 l 5
 338.484 723 l 5
333.446 471.952 m 5
 274.953 275.31 l 5
 403.604 277.637 l 5
 461.398 473.23 l 5
 333.446 471.952 l 5
EndSplineSet
EndChar

StartChar: j
Encoding: 106 106 65
Width: 600
Flags: MW
TeX: 106 0
LayerCount: 2
Fore
SplineSet
249.453 530 m 4
 530.453 530 l 4
 443.524 37 l 4
 435.469 -8.68457 426.584 -52.1055 396.168 -96.3809 c 4
 347.891 -166.657 267.588 -202.181 192.049 -202.181 c 4
 126.367 -202.181 73.04 -175.027 43.4297 -128 c 4
 110.126 -56 l 4
 116.281 -61.9473 113.106 -69.4814 116.489 -77.248 c 4
 119.527 -84.2227 146.084 -130.016 210.091 -130.016 c 4
 254.865 -130.016 300.763 -106.298 328.309 -63.2402 c 4
 346.308 -35.1016 351.717 -7.27539 356.703 21 c 4
 434.287 461 l 4
 237.287 461 l 4
 249.453 530 l 4
530.012 760 m 4
 563.18 760 585.316 733.28 579.535 700.493 c 4
 573.757 667.727 542.206 640.992 509.014 640.992 c 4
 475.842 640.992 453.718 667.716 459.495 700.486 c 4
 465.275 733.264 496.83 760 530.012 760 c 4
EndSplineSet
EndChar

StartChar: x
Encoding: 120 120 66
Width: 600
Flags: MW
TeX: 120 0
LayerCount: 2
Fore
SplineSet
523.453 530 m 5
 608.453 530 l 5
 391.442 272.196 l 5
 538 0 l 5
 443 0 l 5
 333.354 205.835 l 5
 159 0 l 5
 65 0 l 5
 298.297 269.049 l 5
 161.453 530 l 5
 252.453 530 l 5
 356.616 333.918 l 5
 523.453 530 l 5
EndSplineSet
EndChar

StartChar: G
Encoding: 71 71 67
Width: 600
Flags: MW
TeX: 71 0
LayerCount: 2
Fore
SplineSet
459.802 729.021 m 0
 548.757 729.021 620.121 682.82 648.207 608 c 0
 580.979 550 l 0
 572.939 555.815 571.747 564.988 569.564 572.778 c 0
 556.013 621.163 511.227 658.068 446.788 658.068 c 0
 385.966 658.068 315.721 624.733 266.109 554.634 c 0
 228.49 501.479 208.997 436.71 197.142 369.475 c 0
 183.694 293.213 174.306 191.911 222.471 123.216 c 0
 253.848 78.4619 301.914 59.9971 348.625 59.9971 c 0
 391.648 59.9971 440.732 75.1279 486.338 104 c 0
 516.666 276 l 0
 385.666 276 l 0
 398.009 346 l 0
 604.009 346 l 0
 554.285 64 l 0
 477.383 13.8818 395.814 -11.0488 328.936 -11.0488 c 0
 202.942 -11.0488 65.8359 79.1094 114.02 352.371 c 0
 169.879 669.165 363.781 729.021 459.802 729.021 c 0
EndSplineSet
EndChar

StartChar: k
Encoding: 107 107 68
Width: 600
Flags: MW
TeX: 107 0
LayerCount: 2
Fore
SplineSet
222.771 770 m 0
 317.771 770 l 0
 317.678 762.176 311.606 756.852 308.304 753.359 c 0
 303.328 748.094 302.366 745.015 301.482 740 c 0
 221.43 286 l 0
 529.806 532 l 0
 549.445 526.949 570.452 526 590.748 526 c 0
 620.748 526 l 0
 360.72 316 l 0
 564.823 -1 l 0
 562.126 -0.982422 559.426 -0.973633 556.725 -0.973633 c 0
 501.229 -0.973633 456.118 -5 456.118 -5 c 0
 287.727 265 l 0
 206.266 200 l 0
 170.823 -1 l 0
 86.8232 -1 l 0
 222.771 770 l 0
EndSplineSet
EndChar

StartChar: z
Encoding: 122 122 69
Width: 600
Flags: MW
TeX: 122 0
LayerCount: 2
Fore
SplineSet
185.453 530 m 0
 597.453 530 l 0
 587.402 473 l 0
 193.52 71 l 0
 508.52 71 l 0
 522.919 71 529.694 78.29 540.854 78.29 c 0
 542.095 78.29 543.389 78.2002 544.754 78 c 0
 530.823 -1 l 0
 67.8232 -1 l 0
 77.874 56 l 0
 476.581 457 l 0
 172.581 457 l 0
 185.453 530 l 0
EndSplineSet
EndChar

StartChar: dollar
Encoding: 36 36 70
Width: 600
Flags: MW
TeX: 100 0
LayerCount: 2
Fore
SplineSet
414.95 754 m 1
 489.95 754 l 1
 490.276 752.762 490.32 751.416 490.078 750.046 c 0
 488.564 741.462 480.681 741.128 478.719 730 c 2
 470.877 685.53 l 1
 538.129 678.631 593.672 647.798 627.268 597 c 1
 566.158 534 l 1
 563.802 534.646 561.067 536.859 561.572 542.031 c 0
 561.9 545.385 563.317 548.59 562.229 552.132 c 0
 561.906 553.181 561.332 554.432 558.498 558.804 c 0
 539.566 588.015 507.687 609.606 458.823 617.169 c 1
 419.474 394.007 l 1
 444.133 385.213 469.025 376.233 491.212 365.906 c 0
 513.766 355.408 598.528 316.114 579.872 210.306 c 0
 565.218 127.201 487.536 35.8965 353.313 18.79 c 1
 340.479 -54 l 1
 272.479 -54 l 1
 284.937 16.6514 l 1
 205.946 21.6387 139.93 53.0645 98.2197 109 c 1
 160.386 178 l 1
 165.656 175.387 163.928 168.719 163.594 167.269 c 0
 162.43 162.202 161.273 159.078 164.883 154.35 c 0
 191.311 119.732 236.987 90.2109 296.713 83.4424 c 1
 341.623 338.141 l 1
 321.72 345.221 301.571 353.278 282.453 363.137 c 0
 193.158 409.184 185.496 474.448 192.937 516.644 c 0
 207.645 600.059 293.49 670.816 402.711 684.586 c 1
 414.95 754 l 1
405.869 316.849 m 1
 365.137 85.8428 l 1
 441.989 100.222 494.028 152.561 503.258 204.903 c 0
 507.453 228.695 505.369 267.247 461.387 293.705 c 0
 447 302.36 427.702 309.562 405.869 316.849 c 1
355.722 418.096 m 1
 391.079 618.618 l 1
 316.707 610.104 278.327 566.678 271.264 526.615 c 0
 266.806 501.336 272.625 466.609 318.51 437.196 c 0
 329.276 430.294 341.927 424.024 355.722 418.096 c 1
EndSplineSet
EndChar

StartChar: A
Encoding: 65 65 71
Width: 600
Flags: MW
TeX: 65 0
LayerCount: 2
Fore
SplineSet
26.8232 -1 m 0
 411.601 735 l 0
 420.601 735 l 0
 570 0 l 0
 486 0 l 0
 443.205 211 l 0
 214.205 211 l 0
 106.823 -1 l 0
 26.8232 -1 l 0
436.313 274 m 0
 382.804 549 l 0
 241.313 274 l 0
 436.313 274 l 0
EndSplineSet
EndChar

StartChar: C
Encoding: 67 67 72
Width: 600
Flags: MW
TeX: 67 0
LayerCount: 2
Fore
SplineSet
459.984 728 m 0
 555.908 728 632.675 672.042 656.151 585 c 0
 572.451 547 l 0
 567.779 550.736 568.934 557.019 569.173 558.375 c 0
 569.681 561.257 570.681 564.142 571.188 567.016 c 0
 572.137 572.403 570.974 575.396 569.374 579.368 c 0
 549.107 629.699 502.331 663.168 445.816 663.168 c 0
 343.75 663.168 233.985 555.779 200.164 363.969 c 0
 165.758 168.839 239.644 57.9941 345.881 57.9941 c 0
 402.543 57.9941 465.728 90.8848 508.744 146 c 0
 561.867 107 l 0
 503.509 32.9785 415.101 -12.002 328.993 -12.002 c 0
 210.062 -12.002 70.6934 77.8506 119.881 356.807 c 0
 170.846 645.838 347.693 728 459.984 728 c 0
EndSplineSet
EndChar

StartChar: B
Encoding: 66 66 73
Width: 600
Flags: MW
TeX: 66 0
LayerCount: 2
Fore
SplineSet
193.308 722 m 0
 398.308 722 l 0
 442.707 722 487.924 721.5 529.635 701.856 c 0
 592.278 672.354 618.646 610.49 607.206 545.61 c 0
 595.001 476.391 541.688 413.433 472.238 387 c 0
 548.325 359.735 589.196 283.98 574.371 199.903 c 0
 561.25 125.489 506.072 54.79 422.551 21.7725 c 0
 368.919 0.570312 319.11 0 270 0 c 0
 66 0 l 0
 193.308 722 l 0
261.142 653 m 0
 220.586 423 l 0
 333.586 423 l 0
 365.731 423 400.337 423.132 436.108 437.515 c 0
 485.039 457.189 516.791 496.927 524.058 538.138 c 0
 531.383 579.684 513.225 620.586 468.759 639.925 c 0
 438.955 652.887 405.976 653 375.142 653 c 0
 261.142 653 l 0
208.596 355 m 0
 158.52 71 l 0
 296.52 71 l 0
 327.724 71 358.42 71.5469 392.078 85.5967 c 0
 445.934 108.078 481.921 156.379 491.024 208.01 c 0
 500.232 260.227 480.898 311.754 431.792 337.19 c 0
 398.769 354.296 363.069 355 326.596 355 c 0
 208.596 355 l 0
EndSplineSet
EndChar

StartChar: bracketleft
Encoding: 91 91 74
Width: 600
Flags: MW
TeX: 98 0
LayerCount: 2
Fore
SplineSet
298.83 776 m 0
 629.83 776 l 0
 617.663 707 l 0
 360.663 707 l 0
 229.476 -37 l 0
 487.476 -37 l 0
 475.838 -103 l 0
 143.838 -103 l 0
 298.83 776 l 0
EndSplineSet
EndChar

StartChar: bracketright
Encoding: 93 93 75
Width: 600
Flags: MW
TeX: 98 0
LayerCount: 2
Fore
SplineSet
574.83 776 m 0
 419.838 -103 l 0
 87.8379 -103 l 0
 99.4756 -37 l 0
 357.476 -37 l 0
 488.663 707 l 0
 231.663 707 l 0
 243.83 776 l 0
 574.83 776 l 0
EndSplineSet
EndChar

StartChar: parenleft
Encoding: 40 40 76
Width: 600
Flags: MW
TeX: 112 0
LayerCount: 2
Fore
SplineSet
600.124 772 m 4
 622.605 701 l 4
 618.285 698.763 614.513 698.611 612.853 698.611 c 4
 608.257 698.611 604.812 699.932 600.74 699.932 c 4
 596.134 699.932 593.029 698.14 589.614 696.315 c 4
 440.152 616.467 333.945 468.859 304.761 303.345 c 4
 273.017 123.314 336.349 -46.9688 478.49 -139 c 4
 429.734 -200 l 4
 263.179 -103.658 186.372 88.9922 223.483 299.462 c 4
 260.883 511.567 406.894 693.118 600.124 772 c 4
EndSplineSet
EndChar

StartChar: parenright
Encoding: 41 41 77
Width: 600
Flags: MW
TeX: 112 0
LayerCount: 2
Fore
SplineSet
223.253 699 m 0
 257.948 771 l 0
 430.936 684.352 519.57 496.633 483.186 290.289 c 0
 446.478 82.1045 288.705 -110.384 80.3818 -202 c 0
 70.7246 -132 l 0
 241.934 -49.1172 369.882 112.597 400.63 286.978 c 0
 430.954 458.955 362.048 617.58 223.253 699 c 0
EndSplineSet
EndChar

StartChar: three
Encoding: 51 51 78
Width: 600
Flags: MW
TeX: 116 0
LayerCount: 2
Fore
SplineSet
581.494 541.354 m 0
 569.117 471.159 514.928 409.132 445.886 385 c 0
 515.966 357.628 552.197 284.533 537.049 198.625 c 0
 517.269 86.4453 415.892 -12.1904 277.573 -12.1904 c 0
 205.265 -12.1904 141.274 16.165 102.343 70 c 0
 176.215 143 l 0
 184.649 132.464 177.512 121.234 185.396 110.147 c 0
 189.508 104.367 222.536 61.2617 289.799 61.2617 c 0
 374.327 61.2617 447.076 129.155 461.059 208.449 c 0
 476.232 294.507 413.391 345.579 315.623 345.579 c 0
 303.353 345.579 290.94 344.711 278.48 343 c 0
 289.941 408 l 0
 358.469 408.15 393.535 420.748 407.212 426.323 c 0
 461.062 448.274 496.491 495.946 504.247 539.93 c 0
 515.001 600.917 472.667 652.425 398.573 652.425 c 0
 353.927 652.425 304.309 633.092 264.268 597 c 0
 228.084 647 l 0
 282.127 696.504 350.076 724.29 415.204 724.29 c 0
 529.398 724.29 598.873 639.912 581.494 541.354 c 0
EndSplineSet
EndChar

StartChar: D
Encoding: 68 68 79
Width: 600
Flags: MW
TeX: 68 0
LayerCount: 2
Fore
SplineSet
199.308 722 m 0
 368.308 722 l 0
 431.985 722 483.148 717.434 529.588 683.3 c 0
 611.796 622.876 631.559 501.213 607.047 362.199 c 0
 579.188 204.202 501.017 81.1934 388.125 27.9785 c 0
 332.611 1.81055 284.215 -1 226.823 -1 c 0
 71.8232 -1 l 0
 199.308 722 l 0
264.142 653 m 0
 160.108 63 l 0
 234.108 63 l 0
 279.506 63 324.202 65.0195 374.853 95.5625 c 0
 439.404 134.488 499.032 213.696 523.301 351.331 c 0
 541.584 455.017 537.289 557.739 480.001 613.352 c 0
 441.847 650.39 396.633 653 351.142 653 c 0
 264.142 653 l 0
EndSplineSet
EndChar

StartChar: E
Encoding: 69 69 80
Width: 600
Flags: MW
TeX: 69 0
LayerCount: 2
Fore
SplineSet
205.484 723 m 0
 648.484 723 l 0
 635.789 651 l 0
 269.789 651 l 0
 227.999 414 l 0
 529.999 414 l 0
 516.951 340 l 0
 214.951 340 l 0
 167.695 72 l 0
 530.695 72 l 0
 518 0 l 0
 78 0 l 0
 205.484 723 l 0
EndSplineSet
EndChar

StartChar: V
Encoding: 86 86 81
Width: 600
Flags: MW
TeX: 86 0
LayerCount: 2
Fore
SplineSet
166.484 723 m 0
 251.484 723 l 0
 338.623 168 l 0
 611.309 722 l 0
 691.309 722 l 0
 321.118 -5 l 0
 284.118 -5 l 0
 166.484 723 l 0
EndSplineSet
EndChar

StartChar: percent
Encoding: 37 37 82
Width: 600
Flags: MW
TeX: 112 0
LayerCount: 2
Fore
SplineSet
590.309 722 m 0
 668.309 722 l 0
 137 0 l 0
 63 0 l 0
 590.309 722 l 0
301.523 735.106 m 0
 372.093 735.106 420.396 670.55 404.815 582.188 c 0
 389.64 496.123 319.698 431.982 249.122 431.982 c 0
 178.01 431.982 130.471 496.911 145.729 583.448 c 0
 161.437 672.526 232.661 735.106 301.523 735.106 c 0
289.175 674.005 m 0
 266.325 674.005 228.67 656.124 216.558 587.43 c 0
 202.72 508.953 238.351 493.911 259.239 493.911 c 0
 282.292 493.911 319.396 512.141 331.211 579.148 c 0
 345.762 661.667 307.943 674.005 289.175 674.005 c 0
593.456 138.593 m 0
 578.142 51.7451 507.846 -12.124 437.558 -12.124 c 0
 366.911 -12.124 319.158 52.0527 334.359 138.262 c 0
 349.669 225.089 420.178 289.001 490.548 289.001 c 0
 561.086 289.001 608.669 224.871 593.456 138.593 c 0
479.7 229.005 m 0
 454.815 229.005 415.836 208.941 403.387 138.34 c 0
 391.317 69.8906 421.396 46.7695 448.55 46.7695 c 0
 473.36 46.7695 511.787 66.7939 523.973 135.903 c 0
 537.096 210.33 503.537 229.005 479.7 229.005 c 0
EndSplineSet
EndChar

StartChar: J
Encoding: 74 74 83
Width: 600
Flags: MW
TeX: 74 0
LayerCount: 2
Fore
SplineSet
336.308 722 m 0
 666.309 722 l 0
 654.318 654 l 0
 543.318 654 l 0
 470.671 242 l 0
 461.502 190 451.804 135 414.635 83 c 0
 369.703 21 301.708 -13 232.708 -13 c 0
 169.708 -13 112.821 16 78.8135 67 c 0
 144.451 133 l 0
 150.394 127 143.982 119 147.749 112 c 0
 150.22 109 186.403 59 247.403 59 c 0
 281.403 59 316.4 76 340.515 105 c 0
 372.219 142.241 381.334 189.018 388.844 231.61 c 0
 390.495 241 l 0
 463.317 654 l 0
 324.317 654 l 0
 336.308 722 l 0
EndSplineSet
EndChar

StartChar: K
Encoding: 75 75 84
Width: 600
Flags: MW
TeX: 75 0
LayerCount: 2
Fore
SplineSet
186.484 723 m 0
 283.484 723 l 0
 283.074 715 277.192 710 273.487 706 c 0
 268.605 701 268.076 698 267.194 693 c 0
 213.591 389 l 0
 575.366 728 l 0
 594.484 723 614.309 722 634.309 722 c 0
 664.309 722 l 0
 336.294 410 l 0
 555.823 -1 l 0
 498.823 -1 452.118 -5 452.118 -5 c 0
 265.654 361 l 0
 197.722 299 l 0
 145 0 l 0
 59 0 l 0
 186.484 723 l 0
EndSplineSet
EndChar

StartChar: P
Encoding: 80 80 85
Width: 600
Flags: MW
TeX: 80 0
LayerCount: 2
Fore
SplineSet
275.907 646 m 1
 229.768 390 l 1
 375.768 390 l 2
 403.768 390 431.943 391 462.412 405 c 0
 508.115 426 537.697 469 545.809 515 c 0
 554.096 562 539.207 608 498.086 630 c 0
 470.73 645 441.907 646 411.907 646 c 2
 275.907 646 l 1
205.308 722 m 1
 425.308 722 l 2
 472.308 722 516.132 721 557.9 697 c 0
 619.729 662 642.386 592 629.514 519 c 0
 616.642 446 569.299 376 496.304 342 c 0
 448.425 320 405.248 319 360.248 319 c 2
 218.248 319 l 1
 162 0 l 1
 78 0 l 1
 205.308 722 l 1
EndSplineSet
EndChar

StartChar: question
Encoding: 63 63 86
Width: 600
Flags: MW
TeX: 113 0
LayerCount: 2
Fore
SplineSet
390.082 51.4932 m 0
 383.648 15.0088 347.899 -15.0459 309.788 -15.0459 c 0
 271.762 -15.0459 246.594 14.9805 253.034 51.5088 c 0
 259.462 87.9629 295.189 118.002 333.269 118.002 c 0
 371.363 118.002 396.512 87.9609 390.082 51.4932 c 0
198.612 650 m 0
 262.736 727.691 356.596 771.06 443.36 771.06 c 0
 574.657 771.06 632.196 674.633 613.153 566.639 c 0
 593.955 457.756 509.587 413.666 465.352 379.676 c 0
 410.162 337.269 401.398 302.835 394.197 262 c 0
 385.734 214 l 0
 309.734 214 l 0
 318.197 262 l 0
 327.369 314.014 337.822 354.806 398.922 411.013 c 0
 440.725 449.468 509.175 496.796 522.561 572.709 c 0
 534.634 641.182 491.522 695.153 422.208 695.153 c 0
 363.62 695.153 295.232 656.112 247.914 595 c 0
 198.612 650 l 0
EndSplineSet
EndChar

StartChar: at
Encoding: 64 64 87
Width: 600
Flags: MW
TeX: 97 0
LayerCount: 2
Fore
SplineSet
520.172 35 m 0
 465.705 4 406.708 -13 349.708 -13 c 0
 204.708 -13 62.751 95 110.183 364 c 0
 156.557 627 327.248 733 453.248 733 c 0
 537.248 733 607.137 687 629.678 605 c 0
 644.804 549 635.93 493 626.231 438 c 0
 584.794 203 l 0
 514.794 203 l 0
 522.553 247 l 0
 487.558 213 442.031 193 397.031 193 c 0
 314.031 193 258.845 260 273.656 344 c 0
 284.589 406 333.521 468 410.635 497 c 0
 459.809 515 505.809 515 549.809 515 c 0
 566.809 515 l 0
 581.973 601 526.315 671 439.315 671 c 0
 339.315 671 214.564 576 177.712 367 c 0
 137.862 141 255.346 53 367.346 53 c 0
 412.346 53 457.638 66 499.046 91 c 0
 520.172 35 l 0
559.581 457 m 0
 540.581 457 l 0
 499.581 457 450.581 457 406.82 430 c 0
 371.941 408 351.476 377 346.186 347 c 0
 337.369 297 371.316 257 422.316 257 c 0
 455.316 257 492.49 275 516.661 310 c 0
 538.304 342 546.004 380 553.233 421 c 0
 554.115 426 554.82 430 555.702 435 c 0
 559.581 457 l 0
EndSplineSet
EndChar

StartChar: bar
Encoding: 124 124 88
Width: 600
Flags: MW
TeX: 98 0
LayerCount: 2
Fore
SplineSet
394.303 756 m 0
 472.303 756 l 0
 308.143 -175 l 0
 230.143 -175 l 0
 394.303 756 l 0
EndSplineSet
EndChar

StartChar: asciitilde
Encoding: 126 126 89
Width: 600
Flags: MW
TeX: 97 0
LayerCount: 2
Fore
SplineSet
185.825 396 m 4
 134.526 434 l 4
 178.957 492.034 246.372 538.051 312.026 538.051 c 4
 407.654 538.051 422.669 450.999 488.787 450.999 c 4
 526.793 450.999 559.401 480.653 600.748 526 c 4
 645.989 482 l 4
 607.74 436.285 539.57 375.377 466.725 375.377 c 4
 372.806 375.377 365.356 467.595 294.625 467.595 c 4
 261.873 467.595 223.609 443.982 185.825 396 c 4
EndSplineSet
EndChar

StartChar: asciicircum
Encoding: 94 94 90
Width: 600
Flags: MW
TeX: 97 0
LayerCount: 2
Fore
SplineSet
192.939 425 m 0
 422.308 722 l 0
 447.308 722 l 0
 552.115 426 l 0
 485.002 397 l 0
 408.796 600 l 0
 246.002 397 l 0
 192.939 425 l 0
EndSplineSet
EndChar

StartChar: cent
Encoding: 162 162 91
Width: 600
Flags: MW
TeX: 99 0
LayerCount: 2
Fore
SplineSet
467.484 723 m 1
 544.074 715 l 1
 543.526 707.498 538.87 701.298 537.048 698.827 c 0
 533.141 693.526 530.877 690.934 528.432 683 c 2
 499.105 587.822 l 1
 559.873 575.242 600.199 541.294 620.811 498 c 1
 558.173 432 l 1
 553.443 435.758 554.646 442.016 554.916 443.549 c 0
 556.07 450.099 558.947 455.066 554.235 462.134 c 0
 542.41 479.871 517.639 504.643 477.444 517.517 c 1
 352.501 112 l 1
 353.218 111.999 l 2
 409.211 111.999 468.613 135.589 516.21 177 c 1
 548.336 121 l 1
 489.003 66.4248 413.409 37.9883 338.303 37.9883 c 0
 335.424 37.9883 332.567 38.0283 329.733 38.1084 c 1
 289.954 -91 l 1
 224.365 -83 l 1
 263.896 48.0537 l 1
 155.464 79.5752 98.1426 182.291 121.69 315.836 c 0
 149.088 471.215 271.595 585.207 428.184 592.709 c 1
 467.484 723 l 1
287.056 124.836 m 1
 407.966 525.684 l 1
 311.627 519.993 226.901 447.755 205.528 326.544 c 0
 187.737 225.647 221.943 152.96 287.056 124.836 c 1
EndSplineSet
EndChar

StartChar: euro
Encoding: 8364 8364 92
Width: 600
Flags: MW
TeX: 78 0
LayerCount: 2
Fore
SplineSet
665.258 665 m 5
 622.328 586 l 5
 615.252 592.758 621.54 602.068 616.562 609.779 c 4
 615.683 611.142 581.396 661.167 503.337 661.167 c 4
 434.147 661.167 343.09 620.979 288.058 502.334 c 4
 285.158 496.082 281.917 488.698 278.465 480 c 5
 564.637 480 l 5
 527.823 413 l 5
 256.907 413 l 5
 251.809 393.403 246.791 370.757 242.182 344.613 c 4
 240.702 336.225 239.4 328.021 238.276 320 c 5
 476.425 320 l 5
 438.61 253 l 5
 233.091 253 l 5
 232.909 205.904 241.348 166.8 259.312 134.868 c 4
 290.364 79.6768 345.274 56.791 398.95 56.791 c 4
 445.111 56.791 492.096 73.5088 531.338 104 c 5
 554.111 46 l 5
 502.987 7.41602 442.472 -13.127 381.918 -13.127 c 4
 288.144 -13.127 152.087 38.4688 159.597 253 c 5
 92.6104 253 l 5
 119.425 320 l 5
 165.984 320 l 5
 166.894 326.06 167.899 332.225 169.005 338.496 c 4
 173.41 363.479 178.789 388.448 185.361 413 c 5
 120.823 413 l 5
 147.637 480 l 5
 206.934 480 l 5
 222.682 521.099 242.729 559.766 268.266 593.831 c 4
 345.736 697.179 447.233 727.394 519.615 727.394 c 4
 580.779 727.394 632.204 705.737 665.258 665 c 5
EndSplineSet
EndChar

StartChar: sterling
Encoding: 163 163 93
Width: 600
Flags: MW
TeX: 115 0
LayerCount: 2
Fore
SplineSet
610.904 663 m 1
 548.62 599 l 1
 540.386 605.934 542.755 615.246 537.306 622.673 c 0
 533.34 628.078 505.699 656.128 457.041 656.128 c 0
 394.866 656.128 325.234 609.4 308.229 512.955 c 0
 303.859 488.175 303.424 463.315 304.399 438 c 1
 419.231 438 l 1
 407.594 372 l 1
 308.404 372 l 1
 310.505 336.143 311.232 298.852 304.237 259.182 c 0
 294.147 201.957 269.701 148.5 234.338 104 c 1
 244.904 105.791 255.454 106.675 265.873 106.675 c 0
 342.913 106.675 382.395 58.916 448.748 58.916 c 0
 480.714 58.916 512.962 70.8545 540.046 91 c 1
 560.466 31 l 1
 530.714 10.2529 481.688 -17.1631 431.114 -17.1631 c 0
 357.232 -17.1631 317.916 34.666 233.785 34.666 c 0
 210.106 34.666 164.62 30.2656 83.4131 -9 c 1
 65.0508 57 l 1
 123.354 81.9053 138.369 87.4531 161.737 115.98 c 0
 194.571 156.062 217.308 204.698 226.504 256.851 c 0
 233.508 296.572 231.931 334.482 229.414 372 c 1
 153.594 372 l 1
 165.231 438 l 1
 225.557 438 l 1
 224.92 462.328 225.773 486.842 230.196 511.928 c 0
 253.111 641.884 363.165 722.006 470.68 722.006 c 0
 525.895 722.006 576.048 701.138 610.904 663 c 1
EndSplineSet
EndChar

StartChar: Y
Encoding: 89 89 94
Width: 600
Flags: MW
TeX: 89 0
LayerCount: 2
Fore
SplineSet
170.484 723 m 0
 262.484 723 l 0
 377.594 372 l 0
 599.309 722 l 0
 685.309 722 l 0
 403.253 285 l 0
 353 0 l 0
 265 0 l 0
 315.253 285 l 0
 170.484 723 l 0
EndSplineSet
EndChar

StartChar: yen
Encoding: 165 165 95
Width: 600
Flags: MW
TeX: 121 0
LayerCount: 2
Fore
SplineSet
179.484 723 m 1
 269.484 723 l 1
 384.233 421 l 1
 591.309 722 l 1
 677.309 722 l 1
 408.304 342 l 1
 404.072 318 l 1
 560.072 318 l 1
 548.435 252 l 1
 392.435 252 l 1
 379.562 179 l 1
 535.562 179 l 1
 524.102 114 l 1
 368.102 114 l 1
 348 0 l 1
 269 0 l 1
 289.102 114 l 1
 127.102 114 l 1
 138.562 179 l 1
 300.562 179 l 1
 313.435 252 l 1
 151.435 252 l 1
 163.072 318 l 1
 325.072 318 l 1
 329.304 342 l 1
 179.484 723 l 1
EndSplineSet
EndChar

StartChar: Z
Encoding: 90 90 96
Width: 600
Flags: MW
TeX: 90 0
LayerCount: 2
Fore
SplineSet
209.308 722 m 0
 655.309 722 l 0
 644.258 665 l 0
 182.52 71 l 0
 523.52 71 l 0
 537.52 71 544.754 78 555.754 78 c 0
 556.754 78 558.754 78 559.754 78 c 0
 545.823 -1 l 0
 67.8232 -1 l 0
 77.874 56 l 0
 546.437 649 l 0
 196.437 649 l 0
 209.308 722 l 0
EndSplineSet
EndChar

StartChar: Q
Encoding: 81 81 97
Width: 600
Flags: MW
TeX: 81 0
LayerCount: 2
Fore
SplineSet
415.671 656 m 0
 337.671 656 226.327 586 188.946 374 c 0
 148.567 145 232.285 64 316.285 64 c 0
 377.285 64 497.043 108 539.361 348 c 0
 550.118 409 558.461 479 544.393 541 c 0
 524.381 626 466.671 656 415.671 656 c 0
619.125 358 m 0
 607.84 294 587.147 205 535.57 128 c 0
 481.464 48 409.705 4 341.59 -8 c 1
 335.536 -48 338.249 -95 411.249 -95 c 0
 437.249 -95 468.954 -91 506.307 -89 c 1
 490.377 -168 l 1
 482.377 -168 475.377 -168 467.377 -168 c 0
 452.377 -168 438.377 -168 424.377 -168 c 0
 377.377 -168 343.729 -166 314.551 -150 c 0
 267.959 -125 258.423 -77 269.708 -13 c 0
 270.061 -11 270.236 -10 270.59 -8 c 1
 168.41 8 62.5146 105 107.83 362 c 0
 157.907 646 324.719 730 432.719 730 c 0
 511.719 730 586.96 686 617.386 592 c 0
 641.809 515 631.115 426 619.125 358 c 0
EndSplineSet
EndChar

StartChar: thorn
Encoding: 254 254 98
Width: 600
Flags: MW
TeX: 116 0
LayerCount: 2
Fore
SplineSet
215.771 770 m 0
 307.771 770 l 0
 307.419 768 l 0
 304.95 754 296.245 750 293.071 732 c 0
 242.994 448 l 0
 289.222 506 358.393 541 426.393 541 c 0
 530.393 541 626.758 458 593.784 271 c 0
 559.577 77 429.531 -14 321.531 -14 c 0
 257.531 -14 203.174 18 177.343 70 c 0
 130.969 -193 l 0
 45.9688 -193 l 0
 215.771 770 l 0
383.874 470 m 0
 329.874 470 275.76 441 247.297 393 c 0
 230.536 366 222.894 334 214.959 289 c 0
 201.381 212 193.799 169 202.451 133 c 0
 214.988 85 260.58 60 310.58 60 c 0
 360.58 60 474.341 87 503.61 253 c 0
 537.642 446 429.874 470 383.874 470 c 0
EndSplineSet
EndChar

StartChar: plusminus
Encoding: 177 177 100
Width: 600
Flags: MW
TeX: 112 0
LayerCount: 2
Fore
SplineSet
79.3984 93 m 4
 556.398 93 l 4
 543.526 20 l 4
 66.5264 20 l 4
 79.3984 93 l 4
EndSplineSet
Refer: 28 43 N 1 0 0 1 10.5796 60 2
EndChar

StartChar: R
Encoding: 82 82 101
Width: 600
Flags: MW
TeX: 82 0
LayerCount: 2
Fore
SplineSet
202.308 722 m 0
 415.308 722 l 0
 461.975 722 507.371 720.95 549.015 697.719 c 0
 609.523 663.965 633.318 596.481 620.534 523.979 c 0
 603.681 428.394 529.491 345.903 437.777 322 c 0
 548 0 l 0
 457 0 l 0
 353.248 319 l 0
 213.248 319 l 0
 157 0 l 0
 75 0 l 0
 202.308 722 l 0
270.907 646 m 0
 225.768 390 l 0
 365.768 390 l 0
 394.233 390 421.88 390.678 452.201 404.763 c 0
 497.762 425.926 527.69 468.944 535.809 514.986 c 0
 544.096 561.985 528.822 607.921 487.793 630.5 c 0
 460.967 645.263 432.072 646 401.907 646 c 0
 270.907 646 l 0
EndSplineSet
EndChar

StartChar: X
Encoding: 88 88 102
Width: 600
Flags: MW
TeX: 88 0
LayerCount: 2
Fore
SplineSet
576.484 723 m 1
 657.484 723 l 1
 412.548 370.084 l 1
 552 0 l 1
 461 0 l 1
 350.931 286.156 l 1
 146 0 l 1
 57 0 l 1
 319.365 368.201 l 1
 188.484 723 l 1
 275.484 723 l 1
 379.247 448.564 l 1
 576.484 723 l 1
EndSplineSet
EndChar

StartChar: six
Encoding: 54 54 103
Width: 600
Flags: MW
TeX: 115 0
LayerCount: 2
Fore
SplineSet
471.719 730 m 0
 529.719 730 583.486 706 618.081 664 c 0
 551.148 602 l 0
 541.56 610 544.499 621 538.733 628 c 0
 534.615 633 507.023 658 459.023 658 c 0
 407.023 658 282.381 626 234.828 379 c 0
 276.35 433 340.168 466 403.168 466 c 0
 505.168 466 586.004 380 559.555 230 c 0
 533.282 81 420.884 -12 310.884 -12 c 0
 246.884 -12 187.526 20 156.812 84 c 0
 123.154 154 131.023 244 146.012 329 c 0
 158.178 398 178.989 482 216.156 551 c 0
 282.373 677 385.719 730 471.719 730 c 0
382.649 395 m 0
 329.649 395 267.949 357 224.546 298 c 0
 221.959 289 220.371 280 218.784 271 c 0
 197.449 150 244.58 60 326.58 60 c 0
 388.58 60 459.925 113 479.674 225 c 0
 501.715 350 440.649 395 382.649 395 c 0
EndSplineSet
EndChar

StartChar: nine
Encoding: 57 57 104
Width: 600
Flags: MW
TeX: 110 0
LayerCount: 2
Fore
SplineSet
259.884 -12 m 0
 199.884 -12 147.116 12 111.521 54 c 0
 178.454 116 l 0
 189.043 108 183.928 96 192.517 88 c 0
 192.517 88 222.933 62 274.933 62 c 0
 326.933 62 391.517 88 435.389 161 c 0
 445.562 179 473.202 228 495.951 340 c 0
 453.312 291 393.197 262 333.197 262 c 0
 228.197 262 150.891 351 175.4 490 c 0
 200.086 630 311.542 729 424.542 729 c 0
 499.542 729 574.432 683 592.859 572 c 0
 601.219 523 598.287 461 582.241 370 c 0
 561.435 252 531.326 189 513.507 156 c 0
 449.229 41 347.884 -12 259.884 -12 c 0
353.717 333 m 0
 405.717 333 464.712 367 506.233 421 c 0
 509.35 433 512.466 445 514.405 456 c 0
 536.446 581 484.847 657 409.847 657 c 0
 343.847 657 273.443 598 254.93 493 c 0
 236.062 386 289.717 333 353.717 333 c 0
EndSplineSet
EndChar

StartChar: seven
Encoding: 55 55 105
Width: 600
Flags: MW
TeX: 115 0
LayerCount: 2
Fore
SplineSet
228.308 722 m 0
 637.309 722 l 0
 629.373 677 l 0
 560.82 565.327 495.192 452.266 432.599 338 c 0
 371.478 226.425 313.248 113.7 258 0 c 0
 167 0 l 0
 232.677 129.784 301.392 258.503 373.062 386 c 0
 421.922 472.918 472.154 559.268 523.73 645 c 0
 214.73 645 l 0
 228.308 722 l 0
EndSplineSet
EndChar

StartChar: W
Encoding: 87 87 106
Width: 600
Flags: MW
TeX: 87 0
LayerCount: 2
Fore
SplineSet
157.308 722 m 0
 232.308 722 l 0
 224.261 234 l 0
 416.963 669 l 0
 441.963 669 l 0
 481.908 232 l 0
 634.309 722 l 0
 702.309 722 l 0
 460.118 -5 l 0
 428.118 -5 l 0
 388.227 472 l 0
 178.118 -5 l 0
 145.118 -5 l 0
 157.308 722 l 0
EndSplineSet
EndChar

StartChar: acute
Encoding: 180 180 107
Width: 600
Flags: MW
TeX: 78 0
LayerCount: 2
Fore
SplineSet
490.825 810 m 4
 555.185 761 l 4
 410.678 605 l 4
 358.85 640 l 4
 490.825 810 l 4
EndSplineSet
EndChar

StartChar: oslash
Encoding: 248 248 123
Width: 600
Flags: MW
TeX: 111 0
LayerCount: 2
Fore
SplineSet
384.649 470.103 m 0
 303.687 470.103 215.088 397.575 192.206 267.806 c 0
 182.055 210.232 188.489 162.64 206.088 127.42 c 1
 442.488 455.844 l 1
 424.809 465.435 404.975 470.103 384.649 470.103 c 0
589.364 262.304 m 0
 558.419 86.8047 427.857 -14 302.5 -14 c 0
 264.641 -14 229.9 -4.8584 200.208 11.917 c 1
 137.952 -74 l 1
 83.418 -43 l 1
 151.385 51.4238 l 1
 108.092 100.283 87.457 173.482 102.814 260.578 c 0
 131.655 424.14 267.924 541.005 402.834 541.005 c 0
 433.988 541.005 463.678 534.573 490.011 521.866 c 1
 546.973 601 l 1
 603.153 568 l 1
 542.006 483.613 l 1
 585.27 437.145 607.097 362.872 589.364 262.304 c 0
488.628 409.949 m 1
 248.229 78.1875 l 1
 267.723 64.9668 290.81 57.9932 315.84 57.9932 c 0
 393.109 57.9932 481.313 125.6 504.809 258.844 c 0
 516.557 325.471 508.335 375.404 488.628 409.949 c 1
EndSplineSet
EndChar

StartChar: uni02CB
Encoding: 715 715 130
Width: 600
Flags: MW
TeX: 78 0
LayerCount: 2
Fore
SplineSet
434.825 810 m 0
 506.85 640 l 0
 442.678 605 l 0
 353.185 761 l 0
 434.825 810 l 0
EndSplineSet
EndChar

StartChar: dotlessi
Encoding: 305 305 136
Width: 600
Flags: MW
TeX: 78 0
LayerCount: 2
Fore
SplineSet
214.463 462 m 1
 226.453 530 l 1
 438.455 530 l 1
 373.214 160 l 1
 367.161 120 361.806 73 407.806 73 c 0
 432.806 73 453.684 77 483.358 79 c 1
 467.844 0 l 1
 461.503 0 455.957 0 449.616 0 c 0
 437.729 0 425.049 0 413.954 0 c 0
 376.707 0 341.396 2 318.857 18 c 0
 282.849 43 277.048 91 288.333 155 c 0
 288.686 157 288.861 158 289.214 160 c 2
 342.465 462 l 1
 214.463 462 l 1
EndSplineSet
EndChar

StartChar: circumflex
Encoding: 710 710 137
Width: 600
Flags: MW
TeX: 78 0
LayerCount: 2
Fore
SplineSet
276.263 631 m 0
 434.004 794 l 0
 459.004 794 l 0
 558.086 630 l 0
 497.033 590 l 0
 428.016 709 l 0
 313.209 591 l 0
 276.263 631 l 0
EndSplineSet
EndChar

StartChar: tilde
Encoding: 732 732 138
Width: 600
Flags: MW
TeX: 78 0
LayerCount: 2
Fore
SplineSet
280.907 646 m 0
 235.432 683 l 0
 290.253 750.837 338.965 783.268 384.141 783.268 c 0
 430.974 783.268 456.051 749.067 468.206 733.55 c 0
 483.536 713.979 497.929 696.93 519.546 696.93 c 0
 548.125 696.93 566.458 723.991 597.656 758 c 0
 632.545 712 l 0
 583.697 662.14 546.433 629.754 503.692 629.754 c 0
 436.307 629.754 420.387 717.432 369.347 717.432 c 0
 338.655 717.432 316.567 690.786 280.907 646 c 0
EndSplineSet
EndChar

StartChar: dieresis
Encoding: 168 168 139
Width: 600
Flags: MW
TeX: 78 0
LayerCount: 2
Fore
SplineSet
382.476 711.498 m 0
 376.782 679.211 345.927 652.981 313.641 652.981 c 0
 281.351 652.981 259.744 679.209 265.438 711.499 c 0
 271.131 743.789 301.985 770.019 334.275 770.019 c 0
 366.565 770.019 388.169 743.789 382.476 711.498 c 0
588.461 711.512 m 0
 582.758 679.168 552.096 652.991 520.145 652.991 c 0
 488.201 652.991 466.751 679.155 472.457 711.514 c 0
 478.161 743.862 508.83 770.035 540.786 770.035 c 0
 572.714 770.035 594.168 743.877 588.461 711.512 c 0
EndSplineSet
EndChar

StartChar: germandbls
Encoding: 223 223 144
Width: 600
Flags: MW
TeX: 103 0
LayerCount: 2
Fore
SplineSet
74 0 m 4
 160.4 490 l 4
 169.712 542.807 179.799 596.235 212.771 649.711 c 4
 262.52 730.4 344.952 775.004 423.953 775.004 c 4
 539.56 775.004 617.341 681.294 597.912 571.108 c 4
 586.165 504.487 540.417 445.294 478.352 416 c 4
 560.496 389.079 601.892 305.6 584.915 209.32 c 4
 562.717 83.4297 452.07 -12.0293 333.291 -12.0293 c 4
 290.655 -12.0293 251.004 0.470703 219.231 24 c 4
 271.693 89 l 4
 290.758 71.5088 316.565 61.9658 344.97 61.9658 c 4
 418.827 61.9658 493.26 125.491 508.055 209.399 c 4
 518.79 270.281 495.508 323.526 456.659 350.882 c 4
 427.556 371.375 396.698 374 358.946 374 c 4
 323.946 374 l 4
 335.584 440 l 4
 368.584 440 l 4
 385.886 440 402.503 440.514 423.404 449.183 c 4
 470.525 468.726 509.552 518.564 519.172 573.125 c 4
 532.639 649.497 485.521 708.194 416.64 708.194 c 4
 378.707 708.194 335.499 689.799 301.396 650.367 c 4
 259.958 602.454 248.781 543.204 239.753 492 c 4
 153 0 l 4
 74 0 l 4
EndSplineSet
EndChar

StartChar: paragraph
Encoding: 182 182 145
Width: 600
Flags: MW
TeX: 112 0
LayerCount: 2
Fore
SplineSet
650.948 771 m 0
 501.07 -79 l 0
 434.07 -79 l 0
 572.311 705 l 0
 484.311 705 l 0
 346.07 -79 l 0
 277.07 -79 l 0
 356.77 373 l 0
 240.682 380.691 166.842 470.146 185.25 574.545 c 0
 197.788 645.65 251.757 713.383 334.539 746.684 c 0
 394.412 770.77 452.179 771 505.948 771 c 0
 650.948 771 l 0
EndSplineSet
EndChar

StartChar: section
Encoding: 167 167 146
Width: 600
Flags: MW
TeX: 115 0
LayerCount: 2
Fore
SplineSet
607.197 676 m 1
 531.97 618 l 1
 524.604 624.421 528.532 633.708 527.048 641.763 c 0
 522.23 667.917 495.049 709.915 433.529 709.915 c 0
 372.487 709.915 320.984 669.159 312.479 620.922 c 0
 308.337 597.432 312.737 561.524 358.64 534.753 c 0
 388.797 517.164 430.535 507.397 473.275 485.112 c 0
 547.343 446.493 563.942 395.665 556.582 353.922 c 0
 548.041 305.481 505.26 262.529 451.188 241.879 c 1
 495.881 207.384 510.777 156.542 502.091 107.276 c 0
 486.171 16.9902 391.81 -63.0205 274.662 -63.0205 c 0
 197.512 -63.0205 128.649 -27.5049 91.3477 36 c 1
 164.867 107 l 1
 173.212 103.32 169.552 93.2217 170.913 86.707 c 0
 172.82 77.582 201.11 13.7598 288.449 13.7598 c 0
 359.368 13.7598 410.287 57.0391 418.749 105.026 c 0
 423.524 132.111 415.303 163.982 380.008 187.299 c 0
 336.986 215.721 271.932 219.874 220.157 254.027 c 0
 174.065 284.431 159.194 326.186 166.229 366.086 c 0
 175.459 418.429 222.572 463.115 281.34 482.822 c 1
 232.131 517.145 219.003 567.71 227.1 613.632 c 0
 242.678 701.981 336.61 778.269 445.166 778.269 c 0
 521.825 778.269 582.553 738.832 607.197 676 c 1
320.171 461.796 m 1
 287.575 451.724 260.571 423.141 254.632 389.457 c 0
 250.073 363.602 257.189 327.898 302.052 303.876 c 0
 333.986 286.776 373.172 281.479 411.893 264.586 c 1
 439.481 277.358 460.983 303.587 466.297 333.72 c 0
 470.955 360.138 464.389 398.165 415.198 424.753 c 0
 388.025 439.44 353.527 447.456 320.171 461.796 c 1
EndSplineSet
EndChar

StartChar: copyright
Encoding: 169 169 147
Width: 600
Flags: MW
TeX: 99 0
LayerCount: 2
Fore
SplineSet
400.213 491.091 m 0
 473.137 491.091 521.579 445.507 525.71 384 c 0
 461.654 361 l 0
 456.557 368.856 461.852 377.023 461.327 384.631 c 0
 460.742 393.116 449.758 433.152 392.491 433.152 c 0
 337.799 433.152 278.359 399.047 265.654 326.991 c 0
 253.297 256.911 292.008 201.947 352.843 201.947 c 0
 389.14 201.947 425.989 222.046 448.787 254 c 0
 493.792 220 l 0
 453.184 171.427 393.932 140.974 336.987 140.974 c 0
 242.741 140.974 182.12 222.734 199.17 319.43 c 0
 216.61 418.338 306.827 491.091 400.213 491.091 c 0
310.166 21.8877 m 0
 156.805 21.8877 52.6006 152.286 81.7109 317.375 c 0
 110.975 483.34 261.64 614.02 415.034 614.02 c 0
 568.004 614.02 672.318 483.767 643.135 318.262 c 0
 613.895 152.432 463.33 21.8877 310.166 21.8877 c 0
134.763 317.799 m 0
 110.414 179.711 195.615 71.9102 320.506 71.9102 c 0
 445.011 71.9102 568.682 179.647 593.197 318.685 c 0
 617.648 457.352 532.284 565 407.767 565 c 0
 283.062 565 159.317 457.059 134.763 317.799 c 0
EndSplineSet
EndChar

StartChar: registered
Encoding: 174 174 148
Width: 600
Flags: MW
TeX: 114 0
LayerCount: 2
Fore
SplineSet
309.879 22 m 0
 156.879 22 52.8018 152 81.8955 317 c 0
 111.166 483 261.265 614 415.265 614 c 0
 568.265 614 672.342 484 643.072 318 c 0
 613.802 152 462.879 22 309.879 22 c 0
135.072 318 m 0
 110.739 180 195.695 72 320.695 72 c 0
 444.695 72 568.739 180 593.248 319 c 0
 617.581 457 532.625 565 407.625 565 c 0
 282.625 565 159.581 457 135.072 318 c 0
217.154 154 m 0
 276.753 492 l 0
 385.753 492 l 0
 411.753 492 438.753 492 463.813 481 c 0
 499.815 464 514.645 429 508.473 394 c 0
 501.243 353 466.72 316 424.779 305 c 0
 474.212 160 l 0
 417.802 152 l 0
 371.369 297 l 0
 295.369 297 l 0
 270.154 154 l 0
 217.154 154 l 0
321.466 445 m 0
 303.48 343 l 0
 363.48 343 l 0
 382.48 343 405.48 343 425.596 355 c 0
 443.183 364 452.828 379 455.473 394 c 0
 458.118 409 452.939 425 436.702 435 c 0
 420.466 445 397.466 445 378.466 445 c 0
 321.466 445 l 0
EndSplineSet
EndChar

StartChar: uni00B9
Encoding: 185 185 149
Width: 600
Flags: MW
TeX: 117 0
LayerCount: 2
Fore
SplineSet
485.248 733 m 0
 407.664 293 l 0
 333.664 293 l 0
 395.025 641 l 0
 277.912 612 l 0
 265.26 648 l 0
 435.248 733 l 0
 485.248 733 l 0
EndSplineSet
EndChar

StartChar: guilsinglleft
Encoding: 8249 8249 150
Width: 600
Flags: MW
TeX: 78 0
LayerCount: 2
Fore
SplineSet
229.664 293 m 0
 435.815 464 l 0
 472.352 416 l 0
 308.195 279 l 0
 427.63 117 l 0
 373.52 71 l 0
 224.903 266 l 0
 229.664 293 l 0
EndSplineSet
EndChar

StartChar: guilsinglright
Encoding: 8250 8250 152
Width: 600
Flags: MW
TeX: 78 0
LayerCount: 2
Fore
SplineSet
458.664 293 m 0
 453.903 266 l 0
 236.52 71 l 0
 198.63 117 l 0
 375.195 279 l 0
 259.352 416 l 0
 312.815 464 l 0
 458.664 293 l 0
EndSplineSet
EndChar

StartChar: guillemotright
Encoding: 187 187 153
Width: 600
Flags: MW
TeX: 103 0
LayerCount: 2
Fore
SplineSet
368.664 293 m 0
 363.903 266 l 0
 146.52 71 l 0
 108.63 117 l 0
 285.195 279 l 0
 169.352 416 l 0
 222.815 464 l 0
 368.664 293 l 0
578.664 293 m 0
 573.903 266 l 0
 356.52 71 l 0
 318.63 117 l 0
 495.195 279 l 0
 379.352 416 l 0
 432.815 464 l 0
 578.664 293 l 0
EndSplineSet
EndChar

StartChar: logicalnot
Encoding: 172 172 154
Width: 600
Flags: MW
TeX: 108 0
LayerCount: 2
Fore
SplineSet
186.884 402 m 0
 560.884 402 l 0
 522.092 182 l 0
 448.092 182 l 0
 474.012 329 l 0
 174.012 329 l 0
 186.884 402 l 0
EndSplineSet
EndChar

StartChar: degree
Encoding: 176 176 156
Width: 600
Flags: MW
TeX: 100 0
LayerCount: 2
Fore
SplineSet
566.056 584.452 m 0
 550.943 498.746 468.585 428.902 382.066 428.902 c 0
 295.59 428.902 237.842 498.735 252.96 584.477 c 0
 268.069 670.167 350.415 740.008 436.919 740.008 c 0
 523.438 740.008 581.168 670.157 566.056 584.452 c 0
427.362 679.001 m 0
 380.246 679.001 333.525 638.292 324.273 585.822 c 0
 315.066 533.609 347.276 492.878 394.5 492.878 c 0
 441.472 492.878 488.163 533.556 497.434 586.131 c 0
 506.638 638.327 474.438 679.001 427.362 679.001 c 0
EndSplineSet
EndChar

StartChar: uni00B2
Encoding: 178 178 157
Width: 600
Flags: MW
TeX: 117 0
LayerCount: 2
Fore
SplineSet
252.202 642 m 0
 297.643 702.486 369.007 738.288 439.277 738.288 c 0
 531.516 738.288 583.687 678.771 571.307 608.561 c 0
 561.633 553.7 517.286 516.004 498.151 500.834 c 0
 444.647 458.417 375.271 428.352 297.772 356 c 0
 508.772 356 l 0
 514.057 356 516.595 356.741 522.01 360.794 c 0
 524.784 362.871 531.455 368.496 538.535 366 c 0
 525.664 293 l 0
 201.664 293 l 0
 210.656 344 l 0
 290.953 433.275 386.03 489.778 425.708 517.996 c 0
 464.151 545.338 495.204 573.311 501.35 608.166 c 0
 507.833 644.932 481.987 678.917 426.587 678.917 c 0
 382.084 678.917 340.18 655.762 315.257 629.982 c 0
 307.612 622.076 307.521 616.904 299.854 606 c 0
 252.202 642 l 0
EndSplineSet
EndChar

StartChar: eth
Encoding: 240 240 158
Width: 600
Flags: MW
TeX: 101 0
LayerCount: 2
Fore
SplineSet
388.104 470.011 m 0
 309.833 470.011 216.504 405.543 192.468 269.224 c 0
 168.708 134.476 233.179 57.9971 316.323 57.9971 c 0
 381.584 57.9971 478.015 107.826 506.392 268.758 c 0
 534.757 429.627 448.269 470.011 388.104 470.011 c 0
528.383 660.892 m 1
 585.145 580.388 624.827 462.269 595.037 293.321 c 0
 584.031 230.904 563.769 156.905 515.156 94.5254 c 0
 460.154 23.9473 381.207 -14.0059 304.214 -14.0059 c 0
 170.266 -14.0059 74.1924 98.7598 102.274 258.02 c 0
 130.314 417.046 264.882 541.31 393.466 541.31 c 0
 447.392 541.31 493.474 518.882 521.813 481 c 1
 508.923 540.162 484.498 593.873 450.334 639.819 c 1
 295.443 598 l 1
 284.142 653 l 1
 410.193 685.865 l 1
 379.89 715.612 344.583 740.637 305.009 760 c 1
 402.358 779 l 1
 429.208 762.216 460.694 738.683 490.745 706.867 c 1
 621.658 741 l 1
 632.489 689 l 1
 528.383 660.892 l 1
EndSplineSet
EndChar

StartChar: Eth
Encoding: 208 208 159
Width: 600
Flags: MW
TeX: 69 0
LayerCount: 2
Fore
SplineSet
228.308 722 m 1
 390.308 722 l 2
 453.308 722 502.25 716 545.726 679 c 0
 621.441 615 636.048 488 614.359 365 c 0
 587.205 211 503.872 73 383.703 21 c 0
 339.353 2 299.823 -1 248.823 -1 c 2
 100.823 -1 l 1
 162.538 349 l 1
 106.538 349 l 1
 118.352 416 l 1
 174.352 416 l 1
 228.308 722 l 1
237.538 349 m 1
 187.638 66 l 1
 256.638 66 l 2
 297.638 66 336.99 68 382.928 96 c 0
 460.215 143 514.495 241 534.596 355 c 0
 548.879 436 547.571 525 514.151 585 c 0
 476.965 652 418.317 654 373.317 654 c 2
 291.317 654 l 1
 249.352 416 l 1
 370.352 416 l 1
 358.538 349 l 1
 237.538 349 l 1
EndSplineSet
EndChar

StartChar: Thorn
Encoding: 222 222 160
Width: 600
Flags: MW
TeX: 84 0
LayerCount: 2
Fore
SplineSet
205.308 722 m 0
 296.308 722 l 0
 296.559 720.466 296.538 718.85 296.25 717.216 c 0
 295.117 710.792 290.369 706.356 287.167 702.38 c 0
 283.154 697.398 282.4 694.17 281.666 690 c 0
 263.327 586 l 0
 401.327 586 l 0
 447.912 586 492.476 584.805 533.631 561.494 c 0
 595.642 526.371 618.371 455.718 605.496 382.699 c 0
 592.59 309.503 545.264 240.352 472.51 206.409 c 0
 424.727 184.116 381.245 183 336.268 183 c 0
 192.268 183 l 0
 160 0 l 0
 78 0 l 0
 205.308 722 l 0
249.927 510 m 0
 204.787 254 l 0
 351.787 254 l 0
 380.253 254 407.899 254.678 438.221 268.763 c 0
 483.781 289.926 513.71 332.944 521.828 378.986 c 0
 530.115 425.985 514.842 471.921 473.812 494.5 c 0
 446.986 509.263 418.092 510 387.927 510 c 0
 249.927 510 l 0
EndSplineSet
EndChar

StartChar: ring
Encoding: 730 730 161
Width: 600
Flags: MW
TeX: 78 0
LayerCount: 2
Fore
SplineSet
536.609 700.997 m 0
 526.762 645.145 471.651 598.958 412.536 598.958 c 0
 353.562 598.958 314.67 645.101 324.538 701.065 c 0
 334.375 756.856 389.451 803.005 448.502 803.005 c 0
 507.604 803.005 546.456 756.837 536.609 700.997 c 0
383.655 701.774 m 0
 378.425 672.11 396.045 648.896 422.413 648.896 c 0
 448.45 648.896 474.498 671.837 479.828 702.068 c 0
 485.076 731.828 467.461 755.012 441.151 755.012 c 0
 415.129 755.012 388.998 732.072 383.655 701.774 c 0
EndSplineSet
EndChar

StartChar: circumflex.cap
Encoding: 65536 -1 190
Width: 600
Flags: MW
TeX: 78 0
LayerCount: 2
Fore
SplineSet
258.199 659 m 0
 430.478 774 l 0
 455.478 774 l 0
 578.552 661 l 0
 532.794 617 l 0
 427.253 699 l 0
 284.322 620 l 0
 258.199 659 l 0
EndSplineSet
EndChar

StartChar: ae
Encoding: 230 230 192
Width: 600
Flags: MW
TeX: 97 0
LayerCount: 2
Fore
SplineSet
47.2148 143 m 0
 57.7939 203 102.079 267 180.898 300 c 0
 227.248 319 268.601 321 296.777 322 c 2
 322.953 323 l 1
 328.243 353 l 2
 331.946 374 334.473 394 330.823 413 c 0
 323.7 452 294.932 476 257.932 476 c 0
 225.932 476 188.581 457 162.115 426 c 1
 130.108 477 l 1
 170.337 518 224.393 541 275.393 541 c 0
 330.391 541 372.912 513.993 390.747 471.345 c 1
 424.779 514.322 476.268 541 528.218 541 c 0
 611.218 541 655.341 472 640 385 c 0
 629.421 325 618 294 550 274 c 0
 502.669 260.079 439.084 259 410.907 258 c 2
 382.282 256.805 l 1
 372.794 203 l 2
 367.857 175 364.802 152 371.394 127 c 0
 383.459 82 421.698 55 466.698 55 c 0
 500.698 55 534.343 70 559.104 97 c 1
 591.64 49 l 1
 551.764 10 499.708 -13 448.708 -13 c 0
 389.708 -13 339.998 17 316.813 67 c 1
 283.174 18 227.708 -13 171.708 -13 c 0
 88.708 -13 31.874 56 47.2148 143 c 0
122.097 148 m 0
 113.28 98 145.227 58 192.227 58 c 0
 224.227 58 259.4 76 278.749 112 c 0
 287.746 129 291.92 147 295.799 169 c 0
 297.915 181 300.384 195 303.028 210 c 2
 310.787 254 l 1
 285.61 253 l 2
 255.435 252 225.258 251 192.613 236 c 0
 152.263 217 127.915 181 122.097 148 c 0
393.953 323 m 1
 419.13 324 l 2
 498.5 327.5 505.375 327.965 526.862 334 c 0
 542.883 338.5 573.5 357 577.829 380 c 0
 587.22 429.895 554.699 470 507.699 470 c 0
 475.699 470 440.525 452 421.177 416 c 0
 412.18 399 404.879 381.5 401 359.5 c 0
 398.884 347.5 396.598 338 393.953 323 c 1
EndSplineSet
EndChar

StartChar: oe
Encoding: 339 339 193
Width: 600
Flags: MW
TeX: 111 0
LayerCount: 2
Fore
SplineSet
63.2822 81 m 0
 45.5098 139 54.5576 213 65.3135 274 c 0
 74.6592 327 89.7676 390 128.289 444 c 0
 173.75 509 237.217 540 292.217 540 c 0
 335.217 540 371.866 521 390.871 487 c 0
 425.866 521 472.217 540 517.217 540 c 0
 571.217 540 626.279 512 639.584 440 c 0
 642.474 424.179 642.377 396.292 640 385 c 0
 627.449 325.381 609 293 561 276 c 0
 514.495 259.529 468.195 256 440 256 c 2
 359.14 256 l 0
 347.268 183 344.097 148 352.159 120 c 0
 363.872 73 403.521 54 446.521 54 c 0
 480.521 54 523.461 65 559.456 99 c 0
 591.64 49 l 0
 545.587 9 488.531 -14 432.531 -14 c 0
 384.531 -14 340.529 3 308.995 34 c 0
 272.882 5 227.708 -13 185.708 -13 c 0
 139.708 -13 85.7637 10 63.2822 81 c 0
129.215 143 m 0
 137.106 80 174.227 58 208.227 58 c 0
 237.227 58 270.048 74 275.162 103 c 0
 277.807 118 272.505 173 290.313 274 c 0
 305.478 360 323.06 403 326.058 420 c 0
 331.347 450 309.874 470 278.874 470 c 0
 245.874 470 206.818 447 179.06 403 c 0
 153.007 363 143.072 318 137.253 285 c 0
 130.376 246 122.326 189 129.215 143 c 0
371.777 322 m 1
 451.147 325.5 496.513 326.965 518 333 c 0
 534.021 337.5 568.671 360 573 383 c 0
 582.392 432.896 544.108 477 497.108 477 c 0
 467.107 477 426.463 462 399.999 414 c 0
 396.765 407 382.004 380 373.012 329 c 0
 372.659 327 372.13 324 371.777 322 c 1
EndSplineSet
EndChar

StartChar: acute.cap
Encoding: 65538 -1 194
Width: 600
Flags: MW
TeX: 78 0
LayerCount: 2
Fore
SplineSet
524.358 779 m 0
 556.076 698 l 0
 347.557 627 l 0
 329.021 675 l 0
 524.358 779 l 0
EndSplineSet
EndChar

StartChar: grave.cap
Encoding: 65539 -1 195
Width: 600
Flags: MW
TeX: 78 0
LayerCount: 2
Fore
SplineSet
387.358 779 m 0
 546.021 675 l 0
 510.557 627 l 0
 327.076 698 l 0
 387.358 779 l 0
EndSplineSet
EndChar

StartChar: ordfeminine
Encoding: 170 170 196
Width: 600
Flags: MW
TeX: 111 0
LayerCount: 2
Fore
SplineSet
267.671 656 m 0
 318.134 704 380.132 721 435.132 721 c 0
 498.132 721 546.724 696 561.73 645 c 0
 569.146 619 565.386 592 560.096 562 c 0
 515.485 309 l 0
 442.485 309 l 0
 449.361 348 l 0
 409.72 316 361.546 298 316.546 298 c 0
 236.546 298 190.596 355 201.881 419 c 0
 208.581 457 237.163 500 289.748 526 c 0
 336.638 549.059 387.958 551.093 436.446 551.093 c 0
 446.837 551.093 457.098 551 467.156 551 c 0
 484.156 551 l 0
 486.625 565 l 0
 490.151 585 493.678 605 484.204 625 c 0
 474.73 645 453.199 659 417.199 659 c 0
 376.199 659 331.555 644 299.207 608 c 0
 267.671 656 l 0
476.576 491 m 0
 457.576 491 l 0
 444.243 491 429.202 491.395 413.894 491.395 c 0
 394.757 491.395 375.204 490.778 358.048 488 c 0
 305.461 479 281.818 447 277.41 422 c 0
 271.768 390 294.654 361 339.654 361 c 0
 374.654 361 410.651 378 434.002 397 c 0
 463.058 420 468.289 444 473.05 471 c 0
 476.576 491 l 0
140.143 239 m 0
 545.143 239 l 0
 534.033 176 l 0
 129.033 176 l 0
 140.143 239 l 0
EndSplineSet
EndChar

StartChar: ordmasculine
Encoding: 186 186 197
Width: 600
Flags: MW
TeX: 111 0
LayerCount: 2
Fore
SplineSet
428.96 721.011 m 0
 512.356 721.011 585.391 653.808 560.872 514.756 c 0
 534.43 364.793 431.723 296.94 346.956 296.94 c 0
 255.183 296.94 186.852 374.446 209.144 500.869 c 0
 232.579 633.779 332.636 721.011 428.96 721.011 c 0
280.245 506.214 m 0
 263.139 409.196 309.069 363.925 360.563 363.925 c 0
 410.1 363.925 472.672 406.473 490.258 506.207 c 0
 507.768 605.509 465.215 656 411.875 656 c 0
 359.004 656 297.851 606.057 280.245 506.214 c 0
140.143 239 m 0
 545.143 239 l 0
 534.033 176 l 0
 129.033 176 l 0
 140.143 239 l 0
EndSplineSet
EndChar

StartChar: uni02C9
Encoding: 713 713 198
Width: 600
Flags: MW
TeX: 78 0
LayerCount: 2
Fore
SplineSet
279.955 720 m 0
 573.955 720 l 0
 562.494 655 l 0
 268.494 655 l 0
 279.955 720 l 0
EndSplineSet
EndChar

StartChar: cedilla
Encoding: 184 184 201
Width: 600
Flags: MW
TeX: 78 0
LayerCount: 2
Fore
SplineSet
313 0 m 0
 363 0 l 0
 347.302 -55 l 0
 366.126 -56 l 0
 380.949 -57 395.773 -58 409.539 -65 c 0
 429.6 -76 438.072 -96 434.018 -119 c 0
 426.788 -160 377.853 -205 292.853 -205 c 0
 248.853 -205 201.146 -192 163.435 -162 c 0
 200.898 -114 l 0
 231.785 -143 273.669 -155 308.669 -155 c 0
 353.669 -155 364.843 -137 366.606 -127 c 0
 367.841 -120 365.251 -112 357.133 -107 c 0
 346.544 -99 329.544 -99 316.544 -99 c 0
 282.544 -99 l 0
 313 0 l 0
EndSplineSet
EndChar

StartChar: uni00B3
Encoding: 179 179 204
Width: 600
Flags: MW
TeX: 117 0
LayerCount: 2
Fore
SplineSet
438.87 739.11 m 4
 525.209 739.11 580.331 681.247 568.57 614.55 c 4
 561.095 572.151 527.98 536.235 487.396 524 c 4
 534.928 515.328 563.479 473.423 554.882 424.669 c 4
 541.529 348.943 448.621 290.99 356.213 290.99 c 4
 293.009 290.99 237.754 318.471 204.536 366 c 4
 269.115 426 l 4
 277.415 415.153 270.641 404.247 279.576 393.714 c 4
 284.629 387.757 313.995 355.987 368.85 355.987 c 4
 425.66 355.987 477.181 389.769 484.452 431.009 c 4
 488.211 452.324 482.626 495.101 393.937 495.101 c 4
 381.927 495.101 370.354 494.368 358.93 493 c 4
 369.156 551 l 4
 376.663 550.27 384.262 549.894 391.934 549.894 c 4
 467.851 549.894 494.32 582.896 499.012 609.502 c 4
 505.125 644.172 476.716 678.038 424.598 678.038 c 4
 385.406 678.038 340.987 658.777 307.028 624 c 4
 272.61 667 l 4
 319.654 713.015 380.541 739.11 438.87 739.11 c 4
EndSplineSet
EndChar

StartChar: divide
Encoding: 247 247 205
Width: 600
Flags: MW
TeX: 100 0
LayerCount: 2
Fore
SplineSet
163.06 403 m 0
 580.06 403 l 0
 566.482 326 l 0
 149.482 326 l 0
 163.06 403 l 0
453.392 540.992 m 0
 448.332 512.297 420.914 488.972 392.199 488.972 c 0
 363.498 488.972 344.292 512.289 349.354 540.99 c 0
 354.414 569.692 381.841 593.01 410.544 593.01 c 0
 439.257 593.01 458.451 569.686 453.392 540.992 c 0
390.453 183.993 m 0
 385.39 155.275 357.947 131.943 329.229 131.943 c 0
 300.508 131.943 281.291 155.271 286.355 183.992 c 0
 291.42 212.712 318.862 236.04 347.583 236.04 c 0
 376.3 236.04 395.517 212.71 390.453 183.993 c 0
EndSplineSet
EndChar

StartChar: Oslash
Encoding: 216 216 206
Width: 600
Flags: MW
TeX: 79 0
LayerCount: 2
Fore
SplineSet
415.681 654.01 m 0
 339.815 654.01 227.636 587.911 189.681 372.659 c 0
 173.658 281.791 177.511 215.128 193.051 167.742 c 1
 507.728 612.324 l 1
 482.055 641.994 447.854 654.01 415.681 654.01 c 0
619.398 359.504 m 0
 608.218 296.095 587.8 206.273 535.753 128.645 c 0
 471.261 32.457 380.483 -11.0146 302.543 -11.0146 c 0
 259.892 -11.0146 213.71 2.30371 175.952 34.9717 c 1
 99.1279 -73 l 1
 44.5947 -42 l 1
 134.644 85.2227 l 1
 100.54 143.737 85.0342 232.717 107.85 362.113 c 0
 157.887 645.884 324.8 730 432.479 730 c 0
 478.559 730 523.213 715.105 558.52 684.085 c 1
 629.24 784 l 1
 685.422 751 l 1
 600.297 631.363 l 1
 606.546 619.916 611.992 607.435 616.513 593.902 c 0
 642.289 516.748 631.309 427.05 619.398 359.504 c 0
540.392 547.169 m 1
 227.211 107.012 l 1
 252.638 79.4209 285.126 67.9873 316.822 67.9873 c 0
 365.403 67.9873 426.184 95.4453 471.985 165.717 c 0
 512.548 227.951 528.268 301.614 536.604 348.897 c 0
 547.381 410.01 555.874 479.154 542.174 539.849 c 2
 540.392 547.169 l 1
EndSplineSet
EndChar

StartChar: multiply
Encoding: 215 215 207
Width: 600
Flags: MW
TeX: 109 0
LayerCount: 2
Fore
SplineSet
555.799 583 m 1
 601.806 532 l 1
 424.146 376.932 l 1
 543.969 221 l 1
 480.623 168 l 1
 361.599 322.338 l 1
 190.505 173 l 1
 147.497 224 l 1
 320.278 375.919 l 1
 201.453 530 l 1
 265.799 583 l 1
 382.73 430.829 l 1
 555.799 583 l 1
EndSplineSet
EndChar

StartChar: AE
Encoding: 198 198 208
Width: 600
Flags: MW
TeX: 65 0
LayerCount: 2
Fore
SplineSet
369.484 723 m 0
 698.484 723 l 0
 685.789 651 l 0
 484.789 651 l 0
 444.999 414 l 0
 613.999 414 l 0
 600.951 340 l 0
 432.951 340 l 0
 387.695 72 l 0
 580.695 72 l 0
 568 0 l 0
 302 0 l 0
 336.561 196 l 0
 185.561 196 l 0
 89 0 l 0
 15 0 l 0
 369.484 723 l 0
416.789 651 m 0
 403.789 651 l 0
 214.374 263 l 0
 348.374 263 l 0
 416.789 651 l 0
EndSplineSet
EndChar

StartChar: OE
Encoding: 338 338 209
Width: 600
Flags: MW
TeX: 79 0
LayerCount: 2
Fore
SplineSet
424.666 690 m 0
 430.484 723 l 0
 698.484 723 l 0
 685.789 651 l 0
 489.789 651 l 0
 447.999 414 l 0
 613.999 414 l 0
 600.951 340 l 0
 434.951 340 l 0
 387.695 72 l 0
 580.695 72 l 0
 568 0 l 0
 302 0 l 0
 308.348 36 l 0
 280.41 8 242.59 -8 205.59 -8 c 0
 148.59 -8 85.4658 31 71.5098 139 c 0
 69.9785 153 60.8496 226 84.8301 362 c 0
 101.934 459 124.745 543 168.617 616 c 0
 222.311 705 290.071 732 337.071 732 c 0
 373.071 732 404.427 717 424.666 690 c 0
161.299 376 m 0
 155.48 343 134.145 222 152.215 143 c 0
 166.93 79 202.108 63 228.108 63 c 0
 269.108 63 308.456 99 328.449 150 c 0
 401.096 562 l 0
 395.973 601 377.258 665 325.258 665 c 0
 291.258 665 251.144 636 219.035 573 c 0
 207.332 552 182.811 498 161.299 376 c 0
EndSplineSet
EndChar

StartChar: currency
Encoding: 164 164 210
Width: 600
Flags: MW
TeX: 78 0
LayerCount: 2
Fore
SplineSet
391.984 516 m 0
 327.984 516 265.815 464 254.531 400 c 0
 243.246 336 287.077 284 351.077 284 c 0
 415.077 284 476.246 336 487.531 400 c 0
 498.815 464 455.984 516 391.984 516 c 0
189.507 570 m 1
 237.735 611 l 1
 291.274 546 l 1
 324.978 567 364.27 580 403.27 580 c 0
 441.27 580 475.153 568 501.451 547 c 1
 576.735 611 l 1
 610.506 570 l 1
 535.222 506 l 1
 551.932 476 558.407 439 551.531 400 c 0
 544.654 361 525.13 324 499.017 295 c 1
 550.731 231 l 1
 502.502 190 l 1
 449.787 254 l 1
 416.908 232 378.792 220 339.792 220 c 0
 299.792 220 266.084 233 239.963 255 c 1
 163.502 190 l 1
 129.731 231 l 1
 206.192 296 l 1
 190.307 325 184.654 361 191.531 400 c 0
 198.407 439 216.755 475 242.869 504 c 1
 189.507 570 l 1
EndSplineSet
EndChar

StartChar: brokenbar
Encoding: 166 166 211
Width: 600
Flags: MW
TeX: 78 0
LayerCount: 2
Fore
SplineSet
394.303 756 m 0
 472.303 756 l 0
 399.304 342 l 0
 321.304 342 l 0
 394.303 756 l 0
308.143 -175 m 0
 230.143 -175 l 0
 301.026 227 l 0
 379.026 227 l 0
 308.143 -175 l 0
EndSplineSet
EndChar

StartChar: ogonek
Encoding: 731 731 214
Width: 600
Flags: MW
TeX: 78 0
LayerCount: 2
Fore
SplineSet
422 0 m 0
 499 0 l 0
 453.872 -34.9922 419.653 -66.5967 407.849 -77.7402 c 0
 398.078 -86.9648 384.291 -100.705 381.27 -117.842 c 0
 378.131 -135.64 388.26 -150.797 409.357 -150.797 c 0
 416.549 -150.797 425.384 -149.114 438.346 -144.679 c 0
 457.608 -138.087 470.692 -130.111 479.136 -124 c 0
 469.79 -177 l 0
 443.599 -196.689 413.729 -204.002 384.929 -204.002 c 0
 324.887 -204.002 299.768 -171.745 306.583 -133.094 c 0
 313.166 -95.7617 353.229 -49.5293 422 0 c 0
EndSplineSet
EndChar

StartChar: dotaccent
Encoding: 729 729 222
Width: 600
Flags: MW
TeX: 78 0
LayerCount: 2
Fore
SplineSet
439.012 760 m 0
 472.18 760 494.316 733.28 488.535 700.493 c 0
 482.757 667.727 451.206 640.992 418.014 640.992 c 0
 384.842 640.992 362.718 667.716 368.495 700.486 c 0
 374.275 733.264 405.83 760 439.012 760 c 0
EndSplineSet
EndChar

StartChar: breve
Encoding: 728 728 241
Width: 600
Flags: MW
LayerCount: 2
Fore
SplineSet
301.069 749 m 0
 320.129 707.212 359.693 666.993 416.929 666.993 c 0
 465.247 666.993 520.342 696.856 568.893 748 c 0
 593.429 700 l 0
 544.839 646.838 476.543 606.983 406.525 606.983 c 0
 343.232 606.983 285.933 640.673 249.724 696 c 0
 301.069 749 l 0
EndSplineSet
EndChar

StartChar: eng
Encoding: 331 331 242
Width: 600
Flags: MW
LayerCount: 2
Fore
SplineSet
89 0 m 0
 154.594 372 l 2
 167.906 447.5 161.369 504 148.277 529 c 1
 246.57 541 l 1
 248.525 534.958 255.99 501.924 249.5 434 c 1
 298.774 493.002 373.689 542.003 445.526 542.003 c 0
 505.851 542.003 554.141 508.129 569.994 448.568 c 0
 581.32 406.014 573.89 362.334 566.601 321 c 0
 521.461 65 l 0
 512.983 16.9189 503.864 -32.1816 475.117 -81.4971 c 0
 429.058 -160.511 351.186 -203.685 278.198 -203.685 c 0
 237.279 -203.685 199.885 -190.084 171.906 -165 c 0
 225.659 -87 l 0
 233.266 -88.7305 230.604 -97.6074 232.941 -102.004 c 0
 235.056 -105.982 257.601 -126.182 293.764 -126.182 c 0
 325.683 -126.182 361.521 -110.476 389.186 -76.7227 c 0
 421.38 -37.4434 429.92 10.8896 437.169 52 c 0
 484.248 319 l 0
 490.842 356.393 498.614 401.823 475.999 436.061 c 0
 460.992 458.781 436.708 469.58 410.141 469.58 c 0
 354.162 469.58 295.039 422.787 270.114 395.893 c 0
 242.92 366.55 234.066 340.651 227.779 305 c 0
 174 0 l 0
 89 0 l 0
EndSplineSet
EndChar

StartChar: dcaron
Encoding: 271 271 245
Width: 600
Flags: MW
LayerCount: 2
Fore
SplineSet
58.7197 269.088 m 0
 97.2695 487.715 309.949 530 362.17 530 c 8
 400.335 530 457.748 509 457.748 509 c 1
 503.948 771 l 1
 592.948 771 l 1
 591.986 763.115 586.576 757.358 583.535 753.665 c 0
 578.281 747.282 577.186 744.04 576.129 738 c 0
 554.385 613.659 496.267 281.319 474.521 156.979 c 1
 474.576 156.979 474.629 156.979 474.684 156.979 c 1
 457.403 58.9785 494 0 494 0 c 1
 389.618 -5 l 1
 389.618 -5 386.684 36.8945 388.594 95.9609 c 1
 344.2 38.2314 264.589 -11.7422 198.432 -11.7422 c 0
 96.1016 -11.7422 24.2627 73.6729 58.7197 269.088 c 0
142 282.731 m 0
 111.254 108.363 170.834 61.8096 230.769 61.8096 c 0
 285.979 61.8096 347.277 98.7178 378.862 162.214 c 0
 392.159 188.943 406.423 218.482 413.585 258.526 c 2
 447.295 447 l 1
 447.295 447 389.556 468.033 351.184 468.055 c 16
 296.001 468.085 168.573 433.439 142 282.731 c 0
EndSplineSet
Refer: 56 8217 N 0.8 0 0 0.8 339.381 186.393 2
EndChar

StartChar: eogonek
Encoding: 281 281 246
Width: 600
Flags: MW
LayerCount: 2
Fore
SplineSet
111.669 259 m 0
 145.7 452 278.569 542 385.319 542 c 0
 492.069 542 520.647 526.102 546.607 502.517 c 0
 577.715 474.254 590.441 433.519 582.943 391 c 0
 572.541 332 528.722 299 440.256 268 c 0
 373.211 244.852 297.237 244 224.432 244 c 0
 218.606 244 212.802 244 207.023 244 c 2
 192.411 244 l 1
 181.331 86.2256 270.573 55 336.698 55 c 0
 389.698 55 472.4 76 514.277 115 c 1
 552.343 70 l 1
 502.352 19 l 2
 453.664 -30.6689 414.618 -67.957 408.649 -101.807 c 0
 404.031 -127.998 419.667 -147.006 445.912 -147.006 c 0
 451.992 -147.006 471.825 -146.296 508.959 -125 c 1
 497.908 -182 l 1
 474.025 -193.942 445.36 -202.754 417.981 -202.754 c 0
 360.173 -202.754 328.9 -164.029 337.276 -116.525 c 0
 342.887 -84.7083 381.198 -35.5286 426.542 3.72631 c 1
 389.281 -6.70304 350.94 -12 317.884 -12 c 0
 174.884 -12 80.459 82 111.669 259 c 0
204.309 308 m 1
 217.309 308 l 2
 236.721 308 258.061 307.626 279.743 307.626 c 0
 319.496 307.626 360.405 308.882 392.72 316 c 0
 461.541 332 491.186 347 498.062 386 c 0
 506.35 433 474.784 478 403.034 478 c 0
 331.284 478 226.529 434.02 204.309 308 c 1
EndSplineSet
EndChar

StartChar: dotlessj
Encoding: 567 567 259
Width: 600
Flags: MW
LayerCount: 2
Fore
SplineSet
249.453 530 m 0
 530.453 530 l 0
 443.524 37 l 0
 435.469 -8.68457 426.584 -52.1055 396.168 -96.3809 c 0
 347.891 -166.657 267.588 -202.181 192.049 -202.181 c 0
 126.367 -202.181 73.04 -175.027 43.4297 -128 c 0
 110.126 -56 l 0
 116.281 -61.9473 113.106 -69.4814 116.489 -77.248 c 0
 119.527 -84.2227 146.084 -130.016 210.091 -130.016 c 0
 254.865 -130.016 300.763 -106.298 328.309 -63.2402 c 0
 346.308 -35.1016 351.717 -7.27539 356.703 21 c 0
 434.287 461 l 0
 237.287 461 l 0
 249.453 530 l 0
EndSplineSet
EndChar

StartChar: kgreenlandic
Encoding: 312 312 260
Width: 600
Flags: MW
LayerCount: 2
Fore
SplineSet
86.8232 -1 m 1
 152.417 371 l 2
 165.73 446.502 159.192 503 146.101 528 c 1
 244.394 540 l 1
 246.349 533.958 255 480 244.264 415.5 c 0
 221.43 286 l 0
 529.806 532 l 0
 549.445 526.949 570.452 526 590.748 526 c 0
 620.748 526 l 0
 360.72 316 l 0
 564.823 -1 l 0
 562.126 -0.982422 559.426 -0.973633 556.725 -0.973633 c 0
 501.229 -0.973633 456.118 -5 456.118 -5 c 0
 287.727 265 l 0
 206.266 200 l 0
 170.823 -1 l 0
 86.8232 -1 l 1
EndSplineSet
EndChar

StartChar: uparrow
Encoding: 8593 8593 266
Width: 600
Flags: MW
LayerCount: 2
Fore
SplineSet
160.521 468 m 1
 425.835 742 l 1
 450.835 742 l 1
 603.168 466 l 1
 538.292 427 l 1
 444.706 593.819 l 1
 333.123 -39 l 1
 256.123 -39 l 1
 367.809 594.4 l 1
 203.292 427 l 1
 160.521 468 l 1
EndSplineSet
EndChar

StartChar: visiblespace
Encoding: 9251 9251 268
Width: 600
Flags: MW
LayerCount: 2
Fore
SplineSet
80.2822 81 m 0
 134.282 81 l 0
 115.769 -24 l 0
 473.769 -24 l 0
 492.282 81 l 0
 548.282 81 l 0
 520.6 -76 l 0
 52.5996 -76 l 0
 80.2822 81 l 0
EndSplineSet
EndChar

StartChar: r.serif
Encoding: 65540 -1 269
Width: 600
Flags: MW
LayerCount: 2
Fore
SplineSet
178.277 529 m 4
 337.277 529 l 4
 316.292 427 l 4
 360.823 493.49 435.532 541.496 511.761 541.496 c 4
 561.095 541.496 607.424 521.475 638.342 484 c 4
 585.236 404 l 4
 578.21 412.004 576.047 420.625 571.024 429.3 c 4
 560.385 447.681 535.645 469.759 494.067 469.759 c 4
 454.534 469.759 403.911 449.297 351.623 390.04 c 4
 299.866 331.385 293.12 295.589 288.079 267 c 4
 251.933 62 l 4
 362.933 62 l 4
 351.823 -1 l 4
 82.8232 -1 l 4
 93.9326 62 l 4
 168.933 62 l 4
 239.463 462 l 4
 166.463 462 l 4
 178.277 529 l 4
EndSplineSet
EndChar

StartChar: hungarumlaut.cap
Encoding: 65541 -1 270
Width: 600
Flags: MW
LayerCount: 2
Fore
SplineSet
651.571 939 m 0
 692.347 864 l 0
 502.716 747 l 0
 474.18 795 l 0
 651.571 939 l 0
445.571 939 m 0
 486.347 864 l 0
 296.716 747 l 0
 268.18 795 l 0
 445.571 939 l 0
EndSplineSet
EndChar

StartChar: uni2074
Encoding: 8308 8308 271
Width: 600
Flags: MW
LayerCount: 2
Fore
SplineSet
491.011 743 m 0
 536.011 743 l 0
 485.934 459 l 0
 558.934 459 l 0
 549.236 404 l 0
 476.236 404 l 0
 456.487 292 l 0
 390.487 292 l 0
 410.412 405 l 0
 199.412 405 l 0
 206.642 446 l 0
 491.011 743 l 0
451.086 630 m 0
 284.934 459 l 0
 420.934 459 l 0
 451.086 630 l 0
EndSplineSet
EndChar

StartChar: fraction
Encoding: 8260 8260 274
Width: 600
Flags: MW
LayerCount: 2
Fore
SplineSet
94.6494 -19 m 29
 596.771 770 l 29
 646.306 739 l 29
 143.36 -49 l 29
 94.6494 -19 l 29
EndSplineSet
EndChar

StartChar: lslash
Encoding: 322 322 275
Width: 600
Flags: MW
LayerCount: 2
Fore
SplineSet
218.487 292 m 1
 231.889 368 l 1
 328.472 399.668 l 1
 381.958 703 l 1
 231.958 703 l 1
 243.771 770 l 1
 477.771 770 l 1
 457.723 656.3 437.675 542.6 417.627 428.9 c 1
 497.229 455 l 2
 509.886 459.149 518.815 464 531.227 472 c 1
 516.238 387 l 1
 403.919 351.163 l 1
 370.212 160 l 2
 364.159 120 358.804 73 404.804 73 c 0
 429.804 73 450.682 77 480.356 79 c 1
 464.842 0 l 1
 458.501 0 452.955 0 446.614 0 c 0
 434.728 0 422.047 0 410.952 0 c 0
 373.705 0 338.395 2 315.855 18 c 0
 279.847 43 274.046 91 285.331 155 c 0
 285.684 157 285.859 158 286.212 160 c 2
 314.912 322.765 l 1
 218.487 292 l 1
EndSplineSet
EndChar

StartChar: Lslash
Encoding: 321 321 276
Width: 600
Flags: MW
LayerCount: 2
Fore
SplineSet
222.308 722 m 1
 316.308 722 l 1
 316.28 720.866 316.162 719.721 315.96 718.572 c 0
 313.358 703.818 302.682 701.431 299.432 683 c 2
 246.095 380.515 l 1
 449.113 443 l 2
 459.923 446.327 469.532 449.186 481.053 454 c 1
 468.004 380 l 1
 233.452 308.815 l 1
 191.167 69 l 1
 539.167 69 l 1
 526.823 -1 l 1
 94.8232 -1 l 1
 144.703 281.88 l 1
 79.1973 262 l 1
 91.7168 333 l 1
 157.274 353.178 l 1
 222.308 722 l 1
EndSplineSet
EndChar

StartChar: Eng
Encoding: 330 330 277
Width: 600
Flags: MW
LayerCount: 2
Fore
SplineSet
69 0 m 0
 196.308 722 l 0
 281.308 722 l 0
 264.733 628 l 0
 317.019 692 395.601 735 471.601 735 c 0
 542.601 735 599.9 697 618.91 629 c 0
 631.799 583 624.688 537 616.576 491 c 0
 565.794 203 l 0
 558.741 163 550.688 123 524.635 83 c 0
 485.879 22 419.884 -12 352.884 -12 c 0
 316.884 -12 283.471 -3 255.821 16 c 0
 309.517 88 l 0
 315.812 84 315.754 78 319.225 75 c 0
 321.872 73 340.58 60 367.58 60 c 0
 400.58 60 433.754 78 454.572 111 c 0
 472.333 138 477.976 170 482.736 197 c 0
 534.224 489 l 0
 540.219 523 547.096 562 535.268 597 c 0
 522.673 639 487.729 662 443.729 662 c 0
 381.729 662 314.089 613 281.74 577 c 0
 254.099 545 244.984 516 238.284 478 c 0
 154 0 l 0
 69 0 l 0
EndSplineSet
EndChar

StartChar: dcroat
Encoding: 273 273 278
Width: 600
Flags: MW
LayerCount: 2
Fore
SplineSet
101.446 269.088 m 0
 139.996 487.715 373.949 530 426.17 530 c 0
 478.391 530 521.748 509 521.748 509 c 1
 543.085 630 l 1
 455.086 630 l 1
 466.019 692 l 1
 554.018 692 l 1
 558.661 718.333 563.305 744.667 567.948 771 c 1
 656.948 771 l 1
 655.986 763.115 650.576 757.358 647.535 753.665 c 0
 642.281 747.282 641.186 744.04 640.129 738 c 0
 637.827 724.834 635.116 709.336 632.085 692 c 1
 683.019 692 l 1
 672.086 630 l 1
 621.242 630 l 1
 594.545 477.338 555.477 253.93 538.521 156.979 c 1
 538.576 156.979 538.629 156.979 538.684 156.979 c 1
 521.403 58.9785 558 0 558 0 c 1
 453.618 -5 l 1
 453.618 -5 450.684 36.8945 452.594 95.9609 c 1
 408.2 38.2314 328.589 -11.7422 262.432 -11.7422 c 0
 160.102 -11.7422 66.9893 73.6729 101.446 269.088 c 0
184.727 282.731 m 0
 153.98 108.363 234.834 61.8096 294.769 61.8096 c 0
 349.979 61.8096 411.277 98.7178 442.862 162.214 c 0
 456.159 188.943 470.423 218.482 477.585 258.526 c 2
 511.295 447 l 1
 511.295 447 470.367 468.024 415.184 468.055 c 0
 360.001 468.085 211.3 433.439 184.727 282.731 c 0
EndSplineSet
EndChar

StartChar: bullet
Encoding: 8226 8226 287
Width: 600
Flags: MW
LayerCount: 2
Fore
SplineSet
465.568 343.496 m 0
 456.219 290.47 404.65 246.968 350.008 246.968 c 0
 295.435 246.968 259.179 290.438 268.536 343.507 c 0
 277.883 396.512 329.438 440.001 384.058 440.001 c 0
 438.669 440.001 474.92 396.528 465.568 343.496 c 0
EndSplineSet
EndChar

StartChar: florin
Encoding: 402 402 288
Width: 600
Flags: MW
LayerCount: 2
Fore
SplineSet
692.779 719 m 1
 641.202 642 l 1
 637.592 642.014 633.438 644.287 633.27 650.917 c 0
 633.155 655.43 634.563 658.903 632.741 665.038 c 0
 626 687.73 602.256 714.31 563.967 714.31 c 0
 534.78 714.31 498.685 697.84 472.338 655.963 c 0
 449.591 619.806 440.402 575.492 431.04 539 c 2
 406.667 444 l 1
 549.289 444 l 1
 537.651 378 l 1
 389.733 378 l 1
 299.938 28 l 2
 286.71 -23.5547 271.622 -73.9092 236.273 -120.242 c 0
 193.081 -176.855 137.188 -203.002 89.5068 -203.002 c 0
 53.4463 -203.002 21.9248 -188.068 2.43457 -162 c 1
 62.4834 -88 l 1
 68.8701 -91.4512 69.9219 -97.9287 72.0312 -102.751 c 0
 76.5967 -113.189 89.3545 -124.965 109.886 -124.965 c 0
 128.901 -124.965 154.035 -114.524 176.576 -83.2959 c 0
 202.366 -47.5645 213.643 -4.08594 222.466 31 c 2
 309.727 378 l 1
 169.651 378 l 1
 181.289 444 l 1
 326.324 444 l 1
 352.979 550 l 2
 363.973 593.711 375.68 638.828 405.149 682.438 c 0
 448.266 746.244 513.347 780 574.292 780 c 0
 623.944 780 667.504 757.602 692.779 719 c 1
EndSplineSet
EndChar

StartChar: dagger
Encoding: 8224 8224 289
Width: 600
Flags: MW
LayerCount: 2
Fore
SplineSet
394.303 756 m 1
 472.303 756 l 1
 432.277 529 l 1
 624.277 529 l 1
 612.11 460 l 1
 420.11 460 l 1
 308.143 -175 l 1
 230.143 -175 l 1
 342.11 460 l 1
 148.11 460 l 1
 160.277 529 l 1
 354.277 529 l 1
 394.303 756 l 1
EndSplineSet
EndChar

StartChar: daggerdbl
Encoding: 8225 8225 290
Width: 600
Flags: MW
LayerCount: 2
Fore
SplineSet
394.303 756 m 1
 472.303 756 l 1
 432.277 529 l 1
 624.277 529 l 1
 612.11 460 l 1
 420.11 460 l 1
 363.686 140 l 1
 555.686 140 l 1
 543.52 71 l 1
 351.52 71 l 1
 308.143 -175 l 1
 230.143 -175 l 1
 273.52 71 l 1
 79.5195 71 l 1
 91.6855 140 l 1
 285.686 140 l 1
 342.11 460 l 1
 148.11 460 l 1
 160.277 529 l 1
 354.277 529 l 1
 394.303 756 l 1
EndSplineSet
EndChar

StartChar: trademark
Encoding: 8482 8482 291
Width: 600
VWidth: 1157
Flags: MW
LayerCount: 2
Fore
SplineSet
416.211 735.33 m 5
 408.043 689.01 l 5
 303.823 689.01 l 5
 247.672 370.56 l 5
 195.562 370.56 l 5
 251.713 689.01 l 5
 152.125 689.01 l 5
 160.292 735.33 l 5
 416.211 735.33 l 5
490.322 735.33 m 5
 544.092 567.42 l 5
 573.444 609.108 573.444 609.108 602.32 651.375 c 4
 631.195 693.642 631.195 693.642 660.549 735.33 c 5
 698.763 735.33 l 5
 634.443 370.56 l 5
 585.808 370.56 l 5
 629.708 619.53 l 5
 606.825 588.264 606.825 588.264 583.261 556.419 c 4
 559.696 524.574 559.696 524.574 538.176 494.466 c 5
 519.852 495.624 l 5
 478.01 619.53 l 5
 434.109 370.56 l 5
 385.474 370.56 l 5
 449.793 735.33 l 5
 490.322 735.33 l 5
EndSplineSet
EndChar

StartChar: zero.noslash
Encoding: 65542 -1 292
Width: 600
Flags: MW
LayerCount: 2
Fore
SplineSet
580.114 357.799 m 4
 541.303 137.688 421.296 -13.0205 295.228 -13.0205 c 4
 180.959 -13.0205 102.824 113.451 143.024 341.438 c 4
 184.185 574.873 301.437 727.004 428.146 727.004 c 4
 549.006 727.004 620.205 585.161 580.114 357.799 c 4
414.876 656.004 m 4
 389.652 656.004 344.374 644.394 303.726 580.18 c 4
 270.853 528.251 240.092 454.416 221.98 351.701 c 4
 208.919 277.625 210.472 200.382 221.662 153.681 c 4
 240.077 76.8271 283.059 60.9814 313.529 60.9814 c 4
 340.004 60.9814 382.072 73.0654 422.787 130.196 c 4
 466.199 191.111 492.163 283.781 502.518 342.506 c 4
 516.107 419.575 516.612 514.517 503.424 568.433 c 4
 485.525 641.605 443.964 656.004 414.876 656.004 c 4
EndSplineSet
EndChar

StartChar: alpha
Encoding: 945 945 294
Width: 600
Flags: MW
LayerCount: 2
Fore
SplineSet
350.402 473 m 0
 272.402 473 195.468 428 167.432 269 c 0
 141.688 123 207.343 70 278.343 70 c 0
 283.343 70 290.343 70 296.343 70 c 0
 345.343 70 417.282 81 450.961 272 c 0
 473.531 400 446.402 473 350.402 473 c 0
560.587 9 m 9
 467.587 9 l 17
 467.587 9 449.227 58 453.106 80 c 0
 453.282 81 l 1
 420.703 21 323.118 -5 266.118 -5 c 0
 206.118 -5 46.9375 28 87.9033 266 c 1
 88.6084 270 89.1377 273 89.8428 277 c 0
 135.158 534 321.274 546 363.451 547 c 1
 491.451 547 511.581 457 511.581 457 c 25
 538.982 533 l 25
 607.984 516 l 17
 554.886 385 l 1
 538.95 348.5 526.338 306.75 518.955 264.875 c 0
 511.571 223 509.415 181 514.391 144 c 0
 524.343 70 560.587 9 560.587 9 c 9
EndSplineSet
EndChar

StartChar: beta
Encoding: 946 946 295
Width: 600
Flags: MW
LayerCount: 2
Fore
SplineSet
561.618 202 m 12
 542.222 92 423.529 3 322.177 1 c 4
 321.177 1 320.177 1 319.177 1 c 4
 214.177 1 167.517 88 167.517 88 c 5
 124.493 -156 l 5
 47.4932 -156 l 5
 156.463 462 l 6
 164.927 510 174.743 560 205.383 609 c 4
 252.607 684 330.837 725 405.837 725 c 4
 515.837 725 589.496 638 571.512 536 c 4
 560.755 475 518.058 420 459.297 393 c 5
 536.889 368 577.312 291 561.618 202 c 12
334.695 72 m 5
 404.695 72 469.041 125 482.618 202 c 4
 492.492 258 469.604 304 432.012 329 c 4
 404.361 348 380.891 351 344.891 351 c 6
 267.891 351 l 5
 279.881 419 l 5
 354.881 419 l 6
 451.881 419 482.458 496 489.864 538 c 4
 502.383 609 461.965 652 396.965 652 c 4
 360.965 652 323.378 643 291.03 607 c 4
 252.272 563 243.104 511 234.64 463 c 6
 176.038 142 l 5
 197.98 136 259.695 72 327.695 72 c 4
 329.695 72 332.695 72 334.695 72 c 5
EndSplineSet
EndChar

StartChar: gamma
Encoding: 947 947 296
Width: 600
Flags: MW
LayerCount: 2
Fore
SplineSet
273.353 2 m 0
 151.277 529 l 0
 255.277 529 l 0
 254.514 519 247.456 513 245.869 504 c 0
 245.34 501 245.811 498 246.282 495 c 0
 332.515 105 l 0
 483.591 389 l 0
 507.702 435 530.989 482 548.453 530 c 0
 635.453 530 l 0
 610.284 478 583.292 427 555.476 377 c 0
 351 0 l 0
 343.884 -12 339.534 -31 335.479 -54 c 0
 329.498 -87.9141 324.033 -130.253 317.201 -169 c 9
 240.201 -169 l 25
 253.13 -102.31 273.353 2 273.353 2 c 0
EndSplineSet
EndChar

StartChar: delta
Encoding: 948 948 297
Width: 600
Flags: MW
LayerCount: 2
Fore
SplineSet
380.113 443 m 0
 302.113 443 218.476 377 197.316 257 c 0
 175.98 136 236.108 63 317.108 63 c 0
 391.108 63 474.217 126 495.905 249 c 0
 519.533 383 453.113 443 380.113 443 c 0
573.784 685 m 1
 510.784 685 l 1
 300.432 683 l 1
 499.342 484 l 1
 574.586 423 587.896 317 576.435 252 c 0
 548.046 91 424.471 -3 304.471 -3 c 0
 177.471 -3 86.1621 103 112.258 251 c 0
 138.178 398 240.574 508 362.574 508 c 0
 364.574 508 365.574 508 367.574 508 c 0
 367.927 510 259.97 618 189.432 683 c 5
 200.069 749 l 5
 631.069 749 l 1
 614.318 654 l 1
 573.784 685 l 1
EndSplineSet
EndChar

StartChar: epsilon
Encoding: 949 949 298
Width: 600
Flags: MW
LayerCount: 2
Fore
SplineSet
499.418 143.06 m 4
 526.242 89.2803 l 4
 461.302 32.6191 398.631 -0.0322266 315.225 -0.0322266 c 4
 193.551 -0.0322266 95.8066 63.3506 111.725 153.623 c 4
 121.885 211.244 159.351 267.903 225.977 278.467 c 4
 177.491 292.873 145.318 327.445 154.293 378.344 c 4
 168.179 457.092 267.906 532.959 381.731 532.959 c 4
 458.268 532.959 534.159 507.029 576.513 452.289 c 4
 527.949 399.471 l 4
 490.771 444.607 430.002 456.132 367.202 456.132 c 4
 299.496 456.132 246.64 423.479 238.682 378.344 c 4
 232.585 343.771 247.771 313.04 369.447 313.04 c 4
 381.222 313.04 393.979 313.04 406.903 314 c 4
 392.68 233.331 l 4
 374.375 235.253 375.525 236.212 355.9 236.212 c 4
 213.619 236.212 199.533 178.592 194.792 151.702 c 4
 187.172 108.487 258.934 75.835 327.452 74.874 c 4
 415.765 74.874 458.032 114.249 499.418 143.06 c 4
EndSplineSet
EndChar

StartChar: zeta
Encoding: 950 950 299
Width: 600
Flags: MW
LayerCount: 2
Fore
SplineSet
371.191 -101 m 5
 398.126 -56 432.234 7 432.234 7 c 4
 432.234 7 91.7607 27 130.2 245 c 4
 130.376 246 130.376 246 130.553 247 c 4
 180.866 521 443.673 639 513.668 673 c 5
 510.492 672 487.492 672 456.492 672 c 4
 393.492 672 295.668 673 241.668 673 c 5
 218.492 672 213.199 659 210.199 659 c 4
 227.422 751 l 4
 639.422 751 l 4
 625.315 671 l 4
 625.315 671 282.683 571 222.905 249 c 4
 222.729 248 222.729 248 222.553 247 c 4
 189.403 59 513.398 93 517.988 85 c 4
 524.048 74 524.756 61 522.464 48 c 4
 512.942 -6 449.775 -75 433.901 -131 c 4
 433.725 -132 385.372 -134 357.372 -134 c 4
 345.372 -134 337.372 -134 337.549 -133 c 4
 339.254 -129 348.254 -129 357.841 -120 c 5
 368.957 -108 366.957 -108 371.191 -101 c 5
EndSplineSet
EndChar

StartChar: eta
Encoding: 951 951 300
Width: 600
Flags: MW
LayerCount: 2
Fore
SplineSet
183.048 488 m 1
 175.277 529 l 25
 275.277 529 l 25
 258.879 436 l 0
 308.282 495 381.569 542 453.569 542 c 0
 513.569 542 562.75 509 578.171 449 c 0
 589.589 406 581.83 362 574.601 321 c 1
 490.493 -156 l 25
 408.493 -156 l 25
 492.248 319 l 2
 498.772 356 506.884 402 483.879 436 c 0
 468.934 459 444.874 470 417.874 470 c 0
 361.874 470 302.586 423 277.825 396 c 0
 250.712 367 242.128 341 235.779 305 c 2
 182 0 l 25
 97 0 l 25
 183.048 488 l 1
EndSplineSet
EndChar

StartChar: theta
Encoding: 952 952 301
Width: 600
Flags: MW
LayerCount: 2
Fore
SplineSet
406.54 746 m 0
 551.54 746 599.328 586 563.357 382 c 0
 534.439 218 475.353 2 278.177 1 c 0
 277.728 0.99707 277.279 0.996094 276.834 0.996094 c 0
 98.0508 0.996094 108.344 200.443 139.651 378 c 0
 178.091 596 268.54 746 406.54 746 c 0
487.705 418 m 1
 516.446 581 466.492 672 394.492 672 c 0
 329.492 672 260.033 590 228.528 417 c 1
 279.528 417 426.705 418 487.705 418 c 1
474.656 344 m 1
 214.656 344 l 17
 193.558 213 188.282 81 292.282 81 c 0
 406.607 81 450.54 207.033 473.107 335.015 c 0
 473.635 338.009 474.151 341.005 474.656 344 c 1
EndSplineSet
EndChar

StartChar: iota
Encoding: 953 953 302
Width: 600
Flags: MW
LayerCount: 2
Fore
SplineSet
208.806 532 m 4
 442.806 532 l 4
 371.686 140 l 6
 361.635 83 383.106 80 425.106 80 c 5
 412 0 l 5
 398 0 383.823 -1 370.823 -1 c 4
 310.823 -1 266.939 11 289.862 141 c 5
 290.449 150 293.094 165 295.739 180 c 4
 301.205 211 308.376 246 308.376 246 c 5
 346.815 464 l 5
 216.815 464 l 4
 203.815 464 195.876 453 195.876 453 c 4
 208.806 532 l 4
EndSplineSet
EndChar

StartChar: kappa
Encoding: 954 954 303
Width: 600
Flags: MW
LayerCount: 2
Fore
SplineSet
180.277 529 m 0
 275.277 529 l 0
 275.101 528 275.101 528 274.924 527 c 0
 273.69 520 268.984 516 265.279 512 c 0
 260.397 507 259.692 503 258.987 499 c 0
 221.43 286 l 0
 529.806 532 l 0
 549.924 527 577.748 526 597.748 526 c 0
 627.748 526 l 0
 365.72 316 l 0
 564.823 -1 l 0
 561.823 -1 559.823 -1 556.823 -1 c 0
 501.823 -1 464.823 -1 464.823 -1 c 0
 295.727 265 l 0
 206.266 200 l 0
 170.823 -1 l 0
 86.8232 -1 l 0
 180.277 529 l 0
EndSplineSet
EndChar

StartChar: lambda
Encoding: 955 955 304
Width: 600
Flags: MW
LayerCount: 2
Fore
SplineSet
363.224 489 m 1
 365.219 523 380.622 582 366.617 616 c 0
 348.552 661 311.492 672 279.492 672 c 0
 249.492 672 222.729 662 220.729 662 c 0
 233.188 744 l 1
 252.188 744 268.363 745 283.363 745 c 0
 383.363 745 419.189 727 451.202 642 c 0
 453.791 634 458.965 652 485.848 243 c 1
 506.575 94 518.635 83 550.635 83 c 0
 552.635 83 555.635 83 557.635 83 c 0
 561.635 83 550.351 19 546.471 -3 c 1
 393.471 -3 420.282 81 391.591 389 c 1
 115 0 l 1
 24 0 l 1
 363.224 489 l 1
EndSplineSet
EndChar

StartChar: mu
Encoding: 956 956 305
Width: 600
Flags: MW
LayerCount: 2
Fore
SplineSet
510.928 96 m 1
 506.52 71 520.99 68 529.99 68 c 0
 532.99 68 534.99 68 535.99 68 c 0
 537.99 68 l 1
 536.521 54 527 0 527 0 c 1
 453 0 l 1
 438 0 416.821 16 424.58 60 c 1
 438.51 139 l 1
 436.217 126 360 0 252 0 c 0
 221 0 177.645 15 165.285 64 c 1
 159.643 32 l 0
 124.377 -168 l 1
 42.377 -168 l 1
 111.321 223 l 1
 165.101 528 l 1
 244.101 528 l 1
 195.435 252 l 1
 195.082 250 l 2
 171.807 118 210.812 84 265.812 84 c 0
 333.812 84 445.739 180 463.548 281 c 2
 507.101 528 l 1
 587.101 528 l 1
 510.928 96 l 1
EndSplineSet
EndChar

StartChar: nu
Encoding: 957 957 306
Width: 600
Flags: MW
LayerCount: 2
Fore
SplineSet
151.217 540 m 0
 251.217 540 l 0
 251.63 531 244.396 524 243.161 517 c 0
 242.456 513 241.222 506 326.925 113 c 1
 491.135 290 542.002 397 553.11 460 c 0
 562.104 511 544.982 533 542.217 540 c 1
 639.217 540 l 1
 639.217 540 643.574 508 636.521 468 c 0
 631.76 441 625.412 405 603.007 363 c 1
 506.386 178 330.295 -4 330.295 -4 c 0
 265.295 -4 l 0
 151.217 540 l 0
EndSplineSet
EndChar

StartChar: xi
Encoding: 958 958 307
Width: 600
Flags: MW
LayerCount: 2
Fore
SplineSet
403.534 -31 m 0
 388.524 37 99.9443 -23 138.736 197 c 0
 158.133 307 253.415 388 329.943 391 c 1
 269.645 429 252.874 470 259.574 508 c 0
 270.683 571 345.557 627 394.26 648 c 1
 390.084 647 370.084 647 343.084 647 c 0
 315.084 647 278.084 647 238.084 647 c 1
 213.907 646 208.615 633 205.615 633 c 0
 222.837 725 l 0
 634.837 725 l 0
 620.73 645 l 0
 620.73 645 543.73 645 538.73 645 c 1
 460.144 636 361.33 569 351.104 511 c 0
 344.932 476 371.466 445 452.173 432 c 1
 549.173 432 l 25
 533.48 343 l 25
 440.304 342 l 1
 433.304 342 427.304 342 420.304 342 c 0
 327.304 342 241.485 309 223.323 206 c 0
 222.971 204 222.441 201 222.089 199 c 1
 201.461 65 415.63 117 483.29 30 c 4
 492.351 19 498.705 4 496.413 -9 c 0
 489.36 -49 445.131 -90 425.314 -140 c 9
 335.138 -141 l 17
 359.015 -102 399.42 -60 403.476 -37 c 0
 403.828 -35 404.182 -33 403.534 -31 c 0
EndSplineSet
EndChar

StartChar: omicron
Encoding: 959 959 308
Width: 600
Flags: MW
LayerCount: 2
Fore
SplineSet
589.197 262 m 4
 558.341 87 427.531 -14 302.531 -14 c 4
 169.531 -14 74.6328 100 103.021 261 c 4
 131.939 425 267.393 541 402.393 541 c 4
 522.393 541 621.466 445 589.197 262 c 4
384.874 470 m 4
 303.874 470 215.178 398 192.256 268 c 4
 169.157 137 232.227 58 316.227 58 c 4
 393.227 58 481.217 126 504.669 259 c 4
 530.236 404 460.874 470 384.874 470 c 4
EndSplineSet
EndChar

StartChar: pi
Encoding: 960 960 309
Width: 600
Flags: MW
LayerCount: 2
Fore
SplineSet
134.393 541 m 1
 655.393 541 l 1
 641.463 462 l 1
 576.463 462 l 1
 508.577 77 l 1
 537.577 77 l 5
 543.459 82 l 5
 543.459 82 533.643 32 528 0 c 5
 456 0 l 2
 420 0 417.056 23 420.053 40 c 2
 494.463 462 l 1
 270.463 462 l 1
 189 0 l 1
 103 0 l 1
 184.463 462 l 1
 120.463 462 l 1
 134.393 541 l 1
EndSplineSet
EndChar

StartChar: rho
Encoding: 961 961 310
Width: 600
Flags: MW
LayerCount: 2
Fore
SplineSet
133.422 337 m 2
 154.405 456 233.393 541 384.393 541 c 0
 522.393 541 604.113 443 571.14 256 c 0
 536.933 62 394.59 -8 286.59 -8 c 0
 204.59 -8 167.582 43 160.992 51 c 0
 117.969 -193 l 0
 41.9688 -193 l 0
 133.422 337 l 2
370.874 470 m 0
 316.874 470 262.76 441 234.297 393 c 0
 217.536 366 209.894 334 201.959 289 c 0
 188.381 212 182.562 179 191.215 143 c 0
 203.751 95 241.638 66 298.638 66 c 4
 348.638 66 461.341 87 490.61 253 c 0
 524.642 446 416.874 470 370.874 470 c 0
EndSplineSet
EndChar

StartChar: sigma
Encoding: 963 963 311
Width: 600
Flags: MW
LayerCount: 2
Fore
SplineSet
571.197 262 m 4
 540.341 87 409.531 -14 284.531 -14 c 4
 151.531 -14 56.6328 100 85.0215 261 c 4
 113.41 422 245.864 538 378.393 541 c 6
 379.393 541 l 4
 381.393 541 382.393 541 384.393 541 c 6
 657.393 541 l 5
 644.521 468 l 5
 536.521 468 l 5
 571.233 421 587.067 352 571.197 262 c 4
365.874 470 m 5
 284.874 470 197.178 398 174.256 268 c 4
 151.157 137 214.227 58 298.227 58 c 4
 375.227 58 463.217 126 486.669 259 c 4
 507.828 379 469.287 461 365.874 470 c 5
EndSplineSet
EndChar

StartChar: tau
Encoding: 964 964 312
Width: 600
Flags: MW
LayerCount: 2
Fore
SplineSet
192.806 532 m 5
 636.806 532 l 4
 624.64 463 l 4
 415.64 463 l 4
 356.686 140 l 4
 347.341 87 408.4 76 454.4 76 c 4
 480.4 76 502.106 80 502.106 80 c 4
 490.234 7 l 4
 490.234 7 463.353 2 429.353 2 c 4
 358.353 2 253.879 22 274.862 141 c 5
 275.449 150 277.918 164 280.739 180 c 4
 286.205 211 293.376 246 293.376 246 c 5
 331.815 464 l 5
 290.815 464 249.992 465 216.992 465 c 4
 180.992 465 152.815 464 139.581 457 c 5
 192.806 532 l 5
EndSplineSet
EndChar

StartChar: upsilon
Encoding: 965 965 313
Width: 600
Flags: MW
LayerCount: 2
Fore
SplineSet
176.277 529 m 4
 176.277 529 227.277 529 260.277 529 c 29
 208.261 234 l 6
 207.379 229 l 4
 197.328 172 180.108 63 303.108 63 c 4
 378.108 63 454.333 138 471.613 236 c 6
 523.277 529 l 5
 607.277 529 l 29
 555.966 238 l 4
 543.976 170 510.867 107 475.343 70 c 4
 406.823 -1 346.531 -14 284.531 -14 c 4
 215.531 -14 139.231 24 119.751 95 c 4
 106.686 140 115.149 188 123.261 234 c 4
 165.168 466 l 4
 165.168 466 134.874 470 115.227 472 c 29
 139.277 529 l 29
 176.277 529 l 4
EndSplineSet
EndChar

StartChar: Xi
Encoding: 926 926 322
Width: 600
Flags: MW
LayerCount: 2
Fore
SplineSet
351.048 74 m 20
 500.048 74 l 4
 486.823 -1 l 4
 111.823 -1 l 4
 125.225 75 l 4
 270.225 75 l 4
 270.225 75 319.048 74 351.048 74 c 20
452.084 647 m 12
 371.084 647 l 4
 226.084 647 l 4
 239.308 722 l 4
 614.309 722 l 4
 601.084 647 l 4
 452.084 647 l 12
220.176 415 m 5
 527.176 415 l 5
 513.951 340 l 5
 206.951 340 l 5
 220.176 415 l 5
EndSplineSet
EndChar

StartChar: tonos
Encoding: 900 900 328
Width: 600
VWidth: 0
Flags: M
LayerCount: 2
Fore
SplineSet
514.245 750 m 21
 383.438 632 l 13
 308.438 632 l 29
 397.245 750 l 29
 514.245 750 l 21
EndSplineSet
EndChar

StartChar: sigma1
Encoding: 962 962 346
Width: 600
Flags: MW
LayerCount: 2
Fore
SplineSet
137.43 286 m 1
 156.415 388 245.811 498 343.396 524 c 0
 400.04 539 479.393 541 525.393 541 c 0
 546.393 541 560.393 541 562.393 541 c 0
 563.393 541 562.864 538 562.158 534 c 0
 559.514 519 553.342 484 547.758 458 c 9
 503.16 457.22 456.405 456 433.405 456 c 0
 322.405 456 247.236 404 225.548 281 c 0
 214.792 220 255.802 152 296.451 133 c 0
 376.104 97 504.043 108 486.587 9 c 0
 475.713 -47 417.31 -106 405.549 -133 c 9
 316.372 -134 l 17
 341.659 -87 394.241 -44 399.179 -16 c 0
 410.287 47 293.998 17 205.459 82 c 0
 168.396 110 122.266 200 137.43 286 c 1
EndSplineSet
EndChar

StartChar: chi
Encoding: 967 967 347
Width: 600
Flags: MW
LayerCount: 2
Fore
SplineSet
525.256 530.28 m 5
 605.056 530.28 l 5
 380.664 179.8 l 5
 470.354 -97.8799 l 4
 477.476 -119.72 498.87 -122.84 509.842 -122.84 c 4
 517.822 -122.84 l 4
 505.719 -191.48 l 5
 505.719 -191.48 501.729 -191.48 495.745 -191.48 c 4
 471.804 -191.48 411.69 -187.32 391.829 -141.56 c 5
 320.819 89.3203 l 5
 140.634 -191.48 l 5
 51.8574 -191.48 l 5
 291.967 174.6 l 5
 208.517 397.16 l 4
 181.879 455.4 172.007 461.64 156.047 461.64 c 4
 152.057 461.64 147.069 461.64 141.084 461.64 c 13
 154.838 539.64 l 5
 162.818 539.64 172.793 539.64 181.771 539.64 c 4
 209.701 539.64 240.704 534.44 261.298 492.84 c 5
 268.706 478.28 304.586 415.88 352.441 263 c 5
 525.256 530.28 l 5
EndSplineSet
EndChar

StartChar: psi
Encoding: 968 968 348
Width: 600
Flags: MW
LayerCount: 2
Fore
SplineSet
181.277 529 m 2
 260.277 529 l 1
 208.261 234 l 1
 207.379 229 l 2
 198.386 178 183.812 84 270.638 66 c 1
 367.794 617 l 1
 451.907 646 l 1
 350.872 73 l 1
 407.928 96 458.036 159 471.613 236 c 2
 523.277 529 l 1
 602.277 529 l 1
 550.966 238 l 2
 538.976 170 503.572 111 468.048 74 c 0
 419.056 23 380 0 336.413 -9 c 1
 304.674 -189 l 5
 225.674 -189 l 5
 256.884 -12 l 1
 196.471 -3 141.995 34 124.751 95 c 0
 111.686 140 120.149 188 128.261 234 c 0
 170.874 470 181.277 529 181.277 529 c 2
EndSplineSet
EndChar

StartChar: phi
Encoding: 966 966 349
Width: 600
Flags: MW
LayerCount: 2
Fore
SplineSet
370.386 592 m 1
 447.502 604 l 1
 435.688 537 l 1
 536.338 518 617.763 424 589.197 262 c 0
 561.867 107 449.764 10 339.236 -10 c 1
 307.146 -192 l 5
 232.146 -192 l 5
 264.061 -11 l 1
 151.587 9 77.4541 116 103.021 261 c 0
 128.765 407 240.809 515 360.688 537 c 1
 370.386 592 l 1
276.58 60 m 1
 348.697 469 l 1
 279.347 450 206.651 378 187.256 268 c 0
 168.036 159 213.282 81 276.58 60 c 1
423.168 466 m 1
 351.756 61 l 1
 416.282 81 489.449 150 508.669 259 c 0
 529.123 375 479.289 444 423.168 466 c 1
EndSplineSet
EndChar

StartChar: omega
Encoding: 969 969 350
Width: 600
Flags: MW
LayerCount: 2
Fore
SplineSet
202.048 74 m 0
 260.048 74 288.859 158 305.2 245 c 2
 326.007 363 l 1
 403.007 363 l 5
 383.2 245 l 6
 367.684 157 365.048 74 424.048 74 c 0
 453.048 74 471.633 100 493.391 144 c 0
 496.449 150 510.679 191 523.903 266 c 0
 535.364 331 545.586 423 546.217 540 c 1
 626.217 540 l 1
 626.222 506 630.649 395 609.666 276 c 0
 596.971 204 574.746 129 536.813 67 c 0
 508.879 22 452.647 -2 411.647 -2 c 0
 410.647 -2 410.647 -2 409.647 -2 c 0
 382.647 -2 336.821 16 308.992 51 c 1
 269.821 16 216.647 -2 189.647 -2 c 0
 188.647 -2 188.647 -2 187.647 -2 c 0
 146.647 -2 98.8789 22 86.8135 67 c 0
 70.7461 129 74.9707 204 87.666 276 c 0
 108.649 395 152.222 506 164.217 540 c 1
 245.217 540 l 1
 203.233 421 181.012 329 169.551 264 c 0
 156.502 190 156.449 150 157.391 144 c 0
 163.633 100 174.048 74 202.048 74 c 0
EndSplineSet
EndChar

StartChar: Lambda
Encoding: 923 923 352
Width: 600
Flags: MW
LayerCount: 2
Fore
SplineSet
443.205 211 m 0
 382.804 549 l 0
 214.205 211 l 0
 106.823 -1 l 0
 26.8232 -1 l 0
 411.601 735 l 0
 420.601 735 l 0
 570 0 l 0
 486 0 l 0
 443.205 211 l 0
EndSplineSet
EndChar

StartChar: Delta
Encoding: 916 916 353
Width: 600
Flags: MW
LayerCount: 2
Fore
SplineSet
27 0 m 21
 411.601 735 l 5
 420.601 735 l 5
 570 0 l 5
 27 0 l 21
146.93 79 m 5
 469.93 79 l 5
 382.804 549 l 5
 146.93 79 l 5
EndSplineSet
EndChar

StartChar: Gamma
Encoding: 915 915 355
Width: 600
Flags: MW
LayerCount: 2
Fore
SplineSet
227.999 414 m 12
 214.951 340 l 4
 167.695 72 l 12
 156 0 l 29
 78 0 l 29
 205.484 723 l 29
 648.484 723 l 29
 635.789 651 l 29
 269.789 651 l 4
 227.999 414 l 12
EndSplineSet
EndChar

StartChar: Theta
Encoding: 920 920 356
Width: 600
Flags: MW
LayerCount: 2
Fore
SplineSet
416.671 656 m 0
 258.671 656 217.456 513 192.594 372 c 0
 159.62 185 206.048 74 320.048 74 c 3
 425.048 74 505.271 166 541.77 373 c 0
 565.927 510 567.671 656 416.671 656 c 0
303 0 m 0
 88 0 82.0869 216 109.594 372 c 4
 144.683 571 238.071 732 431.071 732 c 0
 603.071 732 660.738 594 621.77 373 c 0
 593.91 215 527 0 303 0 c 0
506.646 412 m 1
244.471 411 m 1
492.541 332 m 1
 230.541 332 l 9
 244.471 411 l 25
 244.471 411 442.646 412 506.646 412 c 9
 492.541 332 l 1
EndSplineSet
EndChar

StartChar: Pi
Encoding: 928 928 357
Width: 600
Flags: MW
LayerCount: 2
Fore
SplineSet
227.999 414 m 1
 214.951 340 l 1
 167.695 72 l 1
 156 0 l 1
 78 0 l 1
 205.484 723 l 1
 571.484 723 l 1
 648.484 723 l 1
 635.789 651 l 1
 521 0 l 1
 444 0 l 1
 558.789 651 l 1
 269.789 651 l 1
 227.999 414 l 1
EndSplineSet
EndChar

StartChar: Phi
Encoding: 934 934 358
Width: 600
Flags: MW
LayerCount: 2
Fore
SplineSet
428.955 720 m 0
 568.955 720 693.151 585 658.943 391 c 0
 624.736 197 461.515 105 353.282 81 c 1
 339 0 l 1
 264 0 l 1
 278.106 80 l 1
 170.338 104 46.5 207 78.415 388 c 0
 113.327 586 276.955 720 428.955 720 c 0
287.684 157 m 1
 374.437 649 l 1
 300.381 626 181.63 531 156.768 390 c 0
 131.905 249 221.092 182 287.684 157 c 1
457.26 648 m 1
 370.684 157 l 1
 440.092 182 558.435 252 583.12 392 c 0
 609.393 541 516.499 621 457.26 648 c 1
EndSplineSet
EndChar

StartChar: Chi
Encoding: 935 935 359
Width: 600
Flags: MW
LayerCount: 2
Fore
SplineSet
554.309 722 m 1
 635.309 722 l 1
 404.417 371 l 1
 531.177 1 l 1
 440.177 1 l 1
 345.548 281 l 1
 159.177 1 l 1
 72.1768 1 l 1
 318.712 367 l 1
 200.308 722 l 1
 286.308 722 l 1
 376.229 455 l 1
 554.309 722 l 1
EndSplineSet
EndChar

StartChar: Sigma
Encoding: 931 931 362
Width: 600
Flags: MW
LayerCount: 2
Fore
SplineSet
317.42 354 m 1
 204.258 665 l 0
 213.308 722 l 0
 659.309 722 l 0
 646.437 649 l 0
 296.437 649 l 0
 399.243 353 l 1
 178.992 51 l 0
 519.992 51 l 0
 533.992 51 541.227 58 552.227 58 c 0
 553.227 58 555.227 58 556.227 58 c 0
 542.297 -21 l 0
 64.2969 -21 l 0
 72.7607 27 l 0
 317.42 354 l 1
400.42 354 m 1
EndSplineSet
EndChar

StartChar: Psi
Encoding: 936 936 363
Width: 600
Flags: MW
LayerCount: 2
Fore
SplineSet
384.312 688 m 1
 464.312 688 l 1
 392.9 283 l 1
 485.251 302 517.884 402 527.405 456 c 2
 574.484 723 l 1
 656.484 723 l 1
 609.758 458 l 2
 600.236 404 588.478 360 548.661 310 c 0
 501.082 250 438.674 225 380.91 215 c 1
 343 0 l 1
 263 0 l 1
 300.558 213 l 1
 240.145 222 191.376 246 160.661 310 c 0
 138.772 356 143.06 403 152.053 454 c 2
 200.484 723 l 1
 200.484 723 248.484 723 281.484 723 c 1
 234.405 456 l 2
 225.412 405 226.722 299 312.548 281 c 1
 384.312 688 l 1
EndSplineSet
EndChar

StartChar: Omega
Encoding: 937 937 364
Width: 600
Flags: MW
LayerCount: 2
Fore
SplineSet
189.225 75 m 1
 142.099 131 109.787 254 123.012 329 c 1
 185.079 681 308.484 723 428.484 723 c 1
 542.484 723 653.373 677 592.364 331 c 0
 576.671 242 515.804 135 449.225 75 c 9
 548.225 75 l 25
 535 0 l 25
 353 0 l 25
 366.048 74 l 17
 400.985 102 497.495 241 513.364 331 c 0
 551.979 550 535.318 654 416.317 654 c 0
 296.317 654 241.156 551 202.541 332 c 0
 186.671 242 239.985 102 266.225 75 c 9
 253 0 l 25
 65 0 l 25
 78.2246 75 l 25
 189.225 75 l 1
EndSplineSet
EndChar

StartChar: anoteleia
Encoding: 903 903 366
Width: 600
Flags: MW
LayerCount: 2
Fore
SplineSet
438.579 474 m 4
 432.231 438 395.941 408 357.941 408 c 4
 319.941 408 295.231 438 301.755 475 c 4
 308.104 511 343.393 541 381.393 541 c 4
 419.393 541 444.927 510 438.579 474 c 4
EndSplineSet
EndChar

StartChar: afii10018
Encoding: 1041 1041 368
Width: 600
Flags: MW
LayerCount: 2
Fore
SplineSet
66 0 m 1
 193.484 722.998 l 1
 636.484 723 l 1
 623.789 651 l 1
 260.789 651 l 1
 220.586 423 l 1
 333.586 423 l 2
 413.586 423 463.024 423 514.533 383 c 0
 566.152 342.914 589.196 283.98 574.371 199.903 c 0
 561.25 125.489 506.072 54.79 422.551 21.7725 c 0
 368.919 0.570312 319.11 0 270 0 c 2
 144 0 l 1
 66 0 l 1
158.52 71 m 1
 296.52 71 l 2
 327.724 71 358.42 71.5469 392.078 85.5967 c 0
 445.934 108.078 481.921 156.379 491.024 208.01 c 0
 500.232 260.227 480.898 311.754 431.792 337.19 c 0
 398.769 354.296 363.069 355 326.596 355 c 2
 208.596 355 l 1
 158.52 71 l 1
EndSplineSet
EndChar

StartChar: afii10021
Encoding: 1044 1044 371
Width: 600
Flags: MW
LayerCount: 2
Fore
SplineSet
67.9062 68 m 1
 117.674 68 l 1
 120.027 70.834 122.395 74.4805 124.93 79 c 0
 135.218 97.3398 149.551 124.944 157.744 146 c 0
 219.833 305.565 272.641 535.488 297.245 651 c 0
 304.481 684.977 301.984 723 301.984 723 c 1
 648.484 723 l 1
 532.99 68 l 1
 592.074 68 l 1
 550.461 -168 l 1
 468.461 -168 l 1
 497.907 -1 l 1
 139.739 -1 l 1
 110.47 -167 l 1
 26.4697 -167 l 1
 67.9062 68 l 1
206.069 68 m 1
 455.99 68 l 1
 558.789 651 l 1
 377.185 651 l 1
 346.617 525.263 285.476 255.615 226.249 112 c 0
 220.353 97.7051 213.664 82.626 206.069 68 c 1
EndSplineSet
EndChar

StartChar: afii10024
Encoding: 1046 1046 373
Width: 600
Flags: MW
LayerCount: 2
Fore
SplineSet
16.999 0 m 1
 295.152 419.251 l 1
 172.493 723 l 1
 202.493 723 l 2
 222.789 723 244.131 723.949 265.549 728.997 c 1
 350.822 509.405 l 1
 388.308 722 l 1
 474.311 722 l 1
 474.842 720.356 474.95 718.529 474.621 716.663 c 0
 473.014 707.549 465.554 706.38 463.371 694 c 2
 431.862 515.306 l 1
 585.55 728.997 l 1
 605.183 723.949 626.189 723 646.484 723 c 2
 676.484 723 l 1
 456.299 424.647 l 1
 582 0 l 1
 525 0 478.295 -4 478.295 -4 c 1
 402.691 349.871 l 1
 341 0 l 1
 261 0 l 1
 320.396 336.847 l 1
 119.294 -4 l 1
 119.294 -4 73.999 0 16.999 0 c 1
EndSplineSet
EndChar

StartChar: afii10025
Encoding: 1047 1047 374
Width: 600
Flags: MW
LayerCount: 2
Fore
SplineSet
58.9824 122.711 m 0
 145.329 176.887 l 0
 153.621 162.902 142.179 154.021 149.662 139.676 c 0
 153.562 132.196 194.614 61.2617 287.116 61.2617 c 0
 403.364 61.2617 482.785 129.155 496.768 208.449 c 0
 511.941 294.507 438.272 345.579 303.819 345.579 c 0
 286.946 345.579 269.932 344.711 252.909 343 c 0
 264.37 408 l 0
 358.603 408.15 405.994 420.748 424.435 426.323 c 0
 497.039 448.274 526.474 495.946 534.229 539.93 c 0
 544.982 600.917 499.49 652.425 397.593 652.425 c 0
 336.194 652.425 263.588 610.161 223.9 572.161 c 0
 180.395 620.161 l 0
 245.06 692.161 333.95 724.29 415.204 724.29 c 0
 557.674 724.29 631.9 639.912 614.522 541.354 c 0
 602.146 471.159 553.38 409.132 468.296 385 c 0
 556.923 357.628 589.184 284.533 574.036 198.625 c 0
 554.256 86.4453 448.216 -12.1904 275.65 -12.1904 c 0
 185.437 -12.1904 90.4707 54.4893 58.9824 122.711 c 0
EndSplineSet
EndChar

StartChar: afii10026
Encoding: 1048 1048 375
Width: 600
Flags: MW
LayerCount: 2
Fore
SplineSet
68 0 m 0
 195.308 722 l 0
 285.308 722 l 0
 285.84 720.356 285.948 718.529 285.619 716.663 c 0
 284.012 707.549 276.554 706.38 274.371 694 c 0
 187.001 198.5 l 1
 575.309 722 l 0
 655.307 722 l 1
 527.822 -1 l 0
 448.823 -1 l 0
 550.33 569 l 1
 132.5 0 l 0
 68 0 l 0
EndSplineSet
EndChar

StartChar: afii10029
Encoding: 1051 1051 378
Width: 600
Flags: MW
LayerCount: 2
Fore
SplineSet
24.8984 36 m 1
 66.0732 111 l 1
 69.5723 105.644 67.8271 97.916 68.7607 92.1807 c 0
 69.6816 86.5352 84.4082 60.2275 103.562 60.2275 c 0
 111.738 60.2275 117.638 66 124.93 79 c 0
 135.218 97.3398 149.551 124.944 157.744 146 c 0
 219.833 305.565 272.641 535.488 297.245 651 c 0
 304.481 684.977 301.984 723 301.984 723 c 1
 648.484 723 l 1
 521 0 l 1
 444 0 l 1
 558.789 651 l 1
 377.185 651 l 1
 346.617 525.263 285.476 255.615 226.249 112 c 0
 213.864 81.9697 197.975 48.4805 177.556 23 c 0
 158.323 -1 114.735 -8.17969 91.6611 -8.17969 c 0
 63.373 -8.17969 39.5977 6.74902 24.8984 36 c 1
EndSplineSet
EndChar

StartChar: afii10037
Encoding: 1059 1059 386
Width: 600
Flags: MW
LayerCount: 2
Fore
SplineSet
167.484 723 m 0
 279.651 723 l 0
 278.465 712.579 271.62 706.755 270.116 698.226 c 0
 269.521 694.854 269.93 692.287 270.656 689 c 0
 385.754 324.702 l 0
 522.622 582 l 0
 546.868 627.578 570.193 674.532 587.484 723 c 0
 674.484 723 l 0
 649.792 671.243 622.431 620.412 594.506 570 c 0
 352.451 133 l 0
 335.853 103.033 319.75 75.1133 292.038 49.0947 c 0
 249.766 9.40723 204.558 -8.17969 169.058 -8.17969 c 0
 125.538 -8.17969 87.543 6.74902 62.1514 36 c 0
 118.376 111 l 0
 124.269 105.644 122.316 97.916 124.298 92.1807 c 0
 126.249 86.5352 141.637 60.2275 180.871 60.2275 c 0
 197.621 60.2275 214.964 71.0498 241.14 94.5176 c 0
 261.062 112.379 275.616 134.944 288.507 156 c 0
 326.592 221.702 l 0
 167.484 723 l 0
EndSplineSet
EndChar

StartChar: afii10040
Encoding: 1062 1062 389
Width: 600
Flags: MW
LayerCount: 2
Fore
SplineSet
53 0 m 0
 180.308 722 l 0
 270.308 722 l 0
 270.84 720.356 270.948 718.529 270.619 716.663 c 0
 269.012 707.549 261.554 706.38 259.371 694 c 0
 149.167 69 l 0
 432.167 69 l 0
 547.309 722 l 0
 635.309 722 l 0
 635.924 720.545 636.092 718.865 635.787 717.137 c 0
 634.239 708.364 625.841 708.006 623.724 696 c 0
 513.168 69.0078 l 0
 594.167 69 l 1
 552.377 -168 l 0
 471.377 -168 l 0
 501 0 l 1
 53 0 l 0
EndSplineSet
EndChar

StartChar: afii10041
Encoding: 1063 1063 390
Width: 600
Flags: MW
LayerCount: 2
Fore
SplineSet
156.354 501.079 m 2
 195.308 722 l 1
 286.308 722 l 1
 286.775 720.163 286.833 718.172 286.477 716.15 c 0
 285.257 709.235 279.853 704.498 276.034 700.195 c 0
 270.699 694.182 269.713 690.266 268.784 685 c 2
 236.178 500.079 l 2
 229.854 464.221 224.387 429.233 234.748 393.656 c 0
 250.921 338.132 300.113 308 357.376 308 c 0
 413.723 308 473.279 337.423 509.698 392.628 c 0
 533.902 429.319 541.109 465.678 547.682 502.936 c 2
 586.309 722 l 1
 663.309 722 l 1
 536 0 l 1
 536 0 l 1
 459 0 l 1
 510.664 293.002 l 1
 461.261 256.861 401.42 239.006 343.604 239.006 c 0
 258.408 239.006 185.008 277.056 158.085 351.296 c 0
 140.098 400.893 147.354 450.039 156.354 501.079 c 2
EndSplineSet
EndChar

StartChar: afii10042
Encoding: 1064 1064 391
Width: 600
Flags: MW
LayerCount: 2
Fore
SplineSet
43.168 0 m 1
 170.477 722 l 1
 260.477 722 l 1
 261.008 720.356 261.116 718.529 260.787 716.663 c 0
 259.18 707.549 251.722 706.38 249.539 694 c 2
 139.335 69 l 1
 277.167 69 l 1
 392.308 722 l 1
 480.308 722 l 1
 480.924 720.545 481.091 718.865 480.786 717.137 c 0
 479.239 708.364 470.841 708.006 468.724 696 c 2
 358.167 69 l 1
 491.335 69 l 1
 606.477 722 l 1
 694.477 722 l 1
 695.092 720.545 695.259 718.864 694.955 717.137 c 0
 693.407 708.363 685.009 708.006 682.892 696 c 2
 560.168 0 l 1
 43.168 0 l 1
EndSplineSet
EndChar

StartChar: afii10043
Encoding: 1065 1065 392
Width: 600
Flags: MW
LayerCount: 2
Fore
SplineSet
18 0 m 1
 145.308 722 l 1
 235.308 722 l 1
 235.84 720.356 235.948 718.529 235.619 716.663 c 0
 234.012 707.549 226.554 706.38 224.371 694 c 2
 114.167 69 l 1
 252.165 69 l 1
 367.306 722 l 1
 455.306 722 l 1
 455.922 720.545 456.089 718.865 455.784 717.137 c 0
 454.237 708.364 445.839 708.006 443.722 696 c 2
 333.164 69 l 1
 466.167 69 l 1
 581.309 722 l 1
 669.309 722 l 1
 669.924 720.545 670.092 718.865 669.787 717.137 c 0
 668.239 708.364 659.841 708.006 657.724 696 c 2
 547.167 69 l 1
 594.167 69 l 1
 552.377 -168 l 1
 471.377 -168 l 1
 501 0 l 1
 18 0 l 1
EndSplineSet
EndChar

StartChar: afii10044
Encoding: 1066 1066 393
Width: 600
Flags: MW
LayerCount: 2
Fore
SplineSet
160.438 649.005 m 1
 173.308 722 l 1
 363.317 722 l 1
 310.586 423 l 1
 333.586 423 l 2
 413.586 423 477.464 423 528.971 383 c 0
 580.59 342.914 603.636 283.98 588.811 199.903 c 0
 575.689 125.489 520.511 54.79 436.989 21.7725 c 0
 383.357 0.570312 333.549 0 284.438 0 c 2
 156 0 l 1
 270.438 649.005 l 1
 160.438 649.005 l 1
248.52 71 m 1
 310.957 71 l 2
 342.162 71 372.857 71.5469 406.517 85.5967 c 0
 460.372 108.078 496.358 156.379 505.463 208.01 c 0
 514.67 260.227 495.337 311.754 446.229 337.19 c 0
 413.207 354.296 377.507 355 341.034 355 c 2
 298.596 355 l 1
 248.52 71 l 1
EndSplineSet
EndChar

StartChar: afii10045
Encoding: 1067 1067 394
Width: 600
Flags: MW
LayerCount: 2
Fore
SplineSet
56 0 m 0
 183.308 722 l 0
 269.312 722 l 0
 269.842 720.356 269.951 718.529 269.622 716.663 c 0
 268.015 707.549 260.554 706.38 258.371 694 c 0
 210.586 423 l 0
 225.107 423 l 0
 295.508 423 339.016 423 383.495 383 c 0
 428.069 342.914 447.104 283.98 432.278 199.903 c 0
 419.157 125.489 369.104 54.79 294.907 21.7725 c 0
 247.263 0.570312 203.419 0 160.201 0 c 0
 56 0 l 0
148.52 71 m 0
 185.04 71 l 0
 212.5 71 234.045 71.5469 262.315 85.5967 c 0
 307.548 108.078 338.789 156.379 347.893 208.01 c 0
 357.1 260.227 342.678 311.754 302.831 337.19 c 0
 276.036 354.296 249.614 355 217.518 355 c 0
 198.596 355 l 0
 148.52 71 l 0
459.562 0 m 0
 586.87 722 l 0
 672.872 722 l 0
 673.404 720.356 673.512 718.529 673.183 716.663 c 0
 671.576 707.549 664.116 706.38 661.933 694 c 0
 539.562 0 l 1
 459.562 0 l 0
EndSplineSet
EndChar

StartChar: afii10046
Encoding: 1068 1068 395
Width: 600
Flags: MW
LayerCount: 2
Fore
SplineSet
66 0 m 0
 193.308 722 l 0
 279.312 722 l 0
 279.842 720.356 279.951 718.529 279.622 716.663 c 0
 278.015 707.549 270.557 706.38 268.374 694 c 0
 220.586 423 l 0
 333.586 423 l 0
 413.586 423 463.025 423 514.533 383 c 0
 566.151 342.914 589.196 283.98 574.371 199.903 c 0
 561.25 125.489 506.072 54.79 422.551 21.7725 c 0
 368.919 0.570312 319.11 0 270 0 c 0
 66 0 l 0
158.52 71 m 0
 296.52 71 l 0
 327.724 71 358.42 71.5469 392.078 85.5967 c 0
 445.934 108.078 481.921 156.379 491.024 208.01 c 0
 500.232 260.227 480.898 311.754 431.792 337.19 c 0
 398.769 354.296 363.069 355 326.596 355 c 0
 208.596 355 l 0
 158.52 71 l 0
EndSplineSet
EndChar

StartChar: afii10047
Encoding: 1069 1069 396
Width: 600
Flags: MW
LayerCount: 2
Fore
SplineSet
80.0654 130.998 m 1
 163.766 168.998 l 1
 168.518 165.197 167.283 158.979 167.044 157.623 c 0
 166.536 154.741 165.536 151.856 165.029 148.982 c 0
 164.08 143.595 165.243 140.602 166.843 136.63 c 0
 187.108 86.2988 233.885 52.8301 290.4 52.8301 c 0
 390.312 52.8301 497.602 155.735 533.811 340 c 1
 249.935 340 l 1
 262.982 414 l 1
 543.619 414 l 1
 553.614 570.455 484.751 658.004 390.336 658.004 c 0
 333.673 658.004 270.489 625.113 227.473 569.998 c 1
 174.35 608.998 l 1
 232.707 683.02 321.116 728 407.223 728 c 0
 526.155 728 665.522 638.146 616.335 359.191 c 0
 565.371 70.1602 388.523 -12.002 276.232 -12.002 c 0
 180.309 -12.002 103.542 43.9561 80.0654 130.998 c 1
EndSplineSet
EndChar

StartChar: afii10048
Encoding: 1070 1070 397
Width: 600
Flags: MW
LayerCount: 2
Fore
SplineSet
29.502 0 m 1
 156.811 722 l 1
 242.812 722 l 1
 243.344 720.356 243.452 718.529 243.123 716.663 c 0
 241.516 707.549 234.056 706.38 231.873 694 c 2
 182.501 414 l 1
 264.363 414 l 1
 320.21 656.271 438.554 730 514.557 730 c 0
 573.808 730 628.057 686.67 647.395 593.902 c 0
 663.479 516.748 651.309 427.05 639.398 359.504 c 0
 628.218 296.095 608.927 206.273 566.32 128.645 c 0
 513.526 32.457 443.202 -11.0146 384.442 -11.0146 c 0
 303.334 -11.0146 208.967 73.7295 250.19 340 c 1
 169.453 340 l 1
 109.502 0 l 1
 29.502 0 l 1
335.71 372.659 m 0
 295.224 143.053 345.98 67.9873 398.135 67.9873 c 0
 429.334 67.9873 470.1 95.4453 503.945 165.717 c 0
 533.922 227.951 548.662 301.614 556.999 348.897 c 0
 567.774 410.01 577.592 479.154 572.624 539.849 c 0
 565.772 623.543 531.493 654.01 498.595 654.01 c 0
 449.876 654.01 373.665 587.911 335.71 372.659 c 0
EndSplineSet
EndChar

StartChar: afii10049
Encoding: 1071 1071 398
Width: 600
Flags: MW
LayerCount: 2
Fore
SplineSet
52 0 m 0
 275.777 322 l 0
 192.493 345.903 147.395 428.394 164.249 523.979 c 0
 177.033 596.481 224.627 663.965 297.039 697.719 c 0
 346.875 720.95 392.641 722 439.308 722 c 0
 652.309 722 l 0
 525 0 l 0
 443 0 l 0
 499.248 319 l 0
 359.248 319 l 0
 143 0 l 0
 52 0 l 0
245.803 514.986 m 0
 237.685 468.944 252.443 425.926 290.54 404.763 c 0
 315.895 390.678 343.302 390 371.768 390 c 0
 511.768 390 l 0
 556.907 646 l 0
 425.907 646 l 0
 395.742 646 366.587 645.263 334.555 630.5 c 0
 285.563 607.921 254.09 561.985 245.803 514.986 c 0
EndSplineSet
EndChar

StartChar: afii10066
Encoding: 1073 1073 400
Width: 600
Flags: MW
LayerCount: 2
Fore
SplineSet
192.781 271 m 0
 171.446 150 216.226 57.9941 315.828 57.9941 c 0
 393.11 57.9941 481.313 125.6 504.809 258.844 c 0
 530.438 404.202 461.02 470.103 384.649 470.103 c 0
 303.687 470.103 215.663 400.769 192.781 271 c 0
116.012 329 m 0
 128.178 398 148.989 482 186.156 551 c 0
 252.373 677 355.719 730 441.719 730 c 0
 480.956 730 537.536 752.715 541.479 758.36 c 0
 545.482 764.096 546.256 771.823 554.038 777.18 c 1
 583.813 702.18 l 1
 548.106 672.929 472.547 658 429.023 658 c 0
 385.486 658 296.883 636.971 241.287 485.162 c 1
 290.119 520.696 346.594 541.005 402.834 541.005 c 0
 523.145 541.005 621.594 445.084 589.364 262.304 c 0
 558.419 86.8047 427.857 -14 302.5 -14 c 0
 218.531 -14 157.526 20 126.812 84 c 0
 93.1543 154 101.023 244 116.012 329 c 0
EndSplineSet
Substitution2: "Macedonian-Serbian Italic subtable" afii10066.mkd
EndChar

StartChar: afii10067
Encoding: 1074 1074 401
Width: 600
Flags: MW
LayerCount: 2
Fore
SplineSet
121.64 264.509 m 0
 138.586 360.616 193.237 441.272 268.213 490 c 8
 304.571 513.63 346 530 381.176 530 c 0
 416.353 530 453.47 529.633 496.102 515.213 c 0
 560.128 493.556 575.896 448.144 567.499 400.518 c 0
 558.539 349.705 517.822 303.489 456.092 284.086 c 1
 544.562 264.071 561.758 208.462 550.875 146.743 c 0
 541.243 92.1182 502.88 40.2197 420.907 15.9824 c 0
 368.269 0.418945 326.61 0 277.5 0 c 8
 229.865 0 200.309 20.1406 168.953 56 c 16
 125.369 105.843 106.601 179.219 121.64 264.509 c 0
206.255 252.68 m 1
 198.441 177.463 223.442 118.135 269.894 87 c 0
 293.03 71.4924 357.74 71.2266 390.4 79.6143 c 0
 442.658 93.0352 461.713 121.87 467.148 152.694 c 0
 472.645 183.867 466.583 234.101 414.918 245.029 c 0
 380.175 252.378 352.527 252.68 316.055 252.68 c 2
 206.255 252.68 l 1
222.062 321.273 m 1
 323.149 321.273 l 2
 355.294 321.273 381.765 321.337 416.209 328.191 c 0
 463.323 337.568 480.527 371.362 484.701 395.032 c 0
 488.908 418.894 481.181 442.386 435.263 453.493 c 0
 420.594 457.041 407.269 458.913 393.349 459.949 c 0
 379.428 460.985 353.098 460.371 324 444.142 c 0
 279.549 419.349 242.624 376.994 222.062 321.273 c 1
EndSplineSet
EndChar

StartChar: afii10068
Encoding: 1075 1075 402
Width: 600
Flags: MW
LayerCount: 2
Fore
SplineSet
103.028 153.285 m 0
 109.489 189.926 132.999 237.822 201.838 272.983 c 0
 267.58 306.562 354.937 318.517 408.633 342.429 c 0
 455.562 363.327 469.29 389 472.427 406.786 c 0
 479.938 449.386 433.485 479.074 373.634 479.074 c 0
 298.168 479.074 238.599 432.386 213.865 406.383 c 0
 209.858 402.17 210.128 399.389 209.438 395.318 c 0
 208.262 388.387 203.894 386.487 201.762 386 c 0
 165.633 459 l 0
 224.056 512.905 299.47 542.004 377.773 542.004 c 0
 500.722 542.004 569.157 473.3 555.216 394.231 c 0
 538.917 301.799 432.741 268.119 402.176 257.732 c 0
 354.551 241.548 293.617 227.486 251.343 209.208 c 0
 204.064 188.765 190 160.887 186.626 141.757 c 0
 177.883 92.168 232.334 58 307.962 58 c 0
 398.703 58 466.469 112.681 486.575 131.72 c 0
 491.315 136.208 491.375 139.47 491.979 144.104 c 0
 492.186 145.694 492.851 152.331 499.03 155 c 0
 532.395 72 l 0
 460.063 14.2178 374.534 -12 294.121 -12 c 0
 149.445 -12 88.9385 73.3789 103.028 153.285 c 0
EndSplineSet
Substitution2: "Macedonian-Serbian Italic subtable" afii10068.mkd
EndChar

StartChar: afii10072
Encoding: 1078 1078 405
Width: 600
Flags: MW
LayerCount: 2
Fore
SplineSet
33.4727 85.0273 m 1
 99.3955 144.027 l 1
 99.6035 137.104 96.7031 126.219 95.8145 117.274 c 0
 95.1982 111.067 102.008 57.9531 116.083 57.9531 c 0
 131.231 57.9531 176.585 133.26 197.857 253.901 c 0
 219.67 377.607 202.666 464.049 186.602 464.049 c 0
 178.34 464.049 163.672 448.584 150.946 408.027 c 1
 102.33 456.027 l 1
 133.634 510.446 157.222 540.028 201.086 540.028 c 0
 257.896 540.028 285.571 448.244 271.964 317 c 1
 317.896 317 l 1
 355.453 530 l 1
 431.455 530 l 1
 431.985 528.356 432.096 526.529 431.768 524.663 c 0
 430.159 515.549 422.698 514.378 420.517 502 c 2
 387.896 317 l 1
 437.7 317 l 1
 470.133 448.42 530.34 540.028 589.624 540.028 c 0
 637.222 540.028 650.307 503.103 657.456 442 c 1
 591.533 383 l 1
 591.325 389.924 594.227 400.809 595.115 409.753 c 0
 595.73 415.96 588.922 469.074 574.846 469.074 c 0
 559.697 469.074 514.344 393.768 493.071 273.126 c 0
 471.259 149.42 488.263 62.9785 504.327 62.9785 c 0
 512.589 62.9785 537.258 78.4434 549.982 119 c 1
 598.6 71 l 1
 567.296 16.5811 543.708 -13.001 489.844 -13.001 c 0
 427.016 -13.001 399.821 99.2568 424.694 253 c 1
 376.61 253 l 1
 332 0 l 1
 262 0 l 1
 306.61 253 l 1
 262.554 253 l 1
 233.543 99.0098 166.859 -13.001 101.306 -13.001 c 0
 49.708 -13.001 40.623 23.9248 33.4727 85.0273 c 1
EndSplineSet
EndChar

StartChar: afii10073
Encoding: 1079 1079 406
Width: 600
Flags: MW
LayerCount: 2
Fore
SplineSet
106.379 89.2803 m 0
 152.168 143.06 l 0
 183.396 114.249 211.776 74.874 300.089 74.874 c 0
 415.168 74.874 472.224 108.487 479.843 151.702 c 0
 484.585 178.592 470.818 236.212 328.537 236.212 c 0
 308.912 236.212 309.725 235.253 290.742 233.331 c 0
 304.967 314 l 0
 317.553 313.04 330.31 313.04 342.084 313.04 c 0
 463.76 313.04 489.784 343.771 495.88 378.344 c 0
 503.839 423.479 462.496 456.132 394.79 456.132 c 0
 331.99 456.132 267.158 444.607 214.062 399.471 c 0
 184.126 452.289 l 0
 245.784 507.029 330.819 532.959 407.356 532.959 c 0
 521.181 532.959 594.153 457.092 580.269 378.344 c 0
 571.293 327.445 526.929 292.873 473.363 278.467 c 0
 536.263 267.903 573.748 211.244 563.588 153.623 c 0
 547.67 63.3506 463.168 0 285.9 -0.0322266 c 0
 202.494 -0.0473894 151.339 32.6191 106.379 89.2803 c 0
EndSplineSet
EndChar

StartChar: afii10077
Encoding: 1083 1083 410
Width: 600
Flags: MW
LayerCount: 2
Fore
SplineSet
24.8984 36 m 1
 66.0732 111 l 1
 69.5723 105.644 67.8271 97.916 68.7607 92.1807 c 0
 69.6816 86.5352 84.4082 60.2275 103.562 60.2275 c 0
 111.738 60.2275 117.638 66 124.93 79 c 0
 135.218 97.3398 149.551 124.944 157.744 146 c 0
 168.094 172.598 184.505 265.61 217.002 329.529 c 24
 249.5 393.448 284.127 437.831 324.37 473.732 c 0
 364.612 509.634 410.344 530 449.282 530 c 0
 598.34 530 548.605 503.77 612.107 487 c 1
 606.855 480.617 595.201 453.5 590 424 c 1
 543.684 157 l 17
 526.402 59 553.5 0 553.5 0 c 25
 450.618 -5 l 25
 450.618 -5 444.934 62 459.744 146 c 9
 477.449 247.061 505.141 405.129 505.141 405.129 c 0
 513 447 l 1
 513 447 507.418 468.055 453.417 468.055 c 0
 402.445 468.055 340.514 393.607 294.73 321.848 c 24
 248.946 250.089 249.406 168.153 226.249 112 c 0
 213.864 81.9697 197.975 48.4805 177.556 23 c 0
 158.323 -1 114.735 -8.17969 91.6611 -8.17969 c 0
 63.373 -8.17969 39.5977 6.74902 24.8984 36 c 1
EndSplineSet
EndChar

StartChar: afii10078
Encoding: 1084 1084 411
Width: 600
Flags: MW
LayerCount: 2
Fore
SplineSet
56.8232 -1 m 0
 150.383 529.6 l 0
 214.383 529.6 l 0
 349.513 280.8 l 0
 575.559 530.6 l 0
 636.559 530.6 l 25
 570.684 157 l 2
 553.402 59 580.5 0 580.5 0 c 25
 482.618 -5 l 25
 482.618 -5 476.934 62 491.744 146 c 2
 535.473 394 l 25
 459.225 306.612 339.963 169.93 339.963 169.93 c 0
 308.963 169.93 l 0
 201.93 390.92 l 0
 132.823 -1 l 0
 56.8232 -1 l 0
EndSplineSet
EndChar

StartChar: afii10079
Encoding: 1085 1085 412
Width: 600
Flags: MW
LayerCount: 2
Fore
SplineSet
82.168 0 m 0
 82.168 0 125.48 244.495 153.172 400.812 c 17
 164.135 461.932 153.968 507.291 142.601 529 c 1
 240.635 541 l 1
 242.211 536.129 253.925 497.512 243.581 438.848 c 1
 220.477 308 l 0
 489.477 308 l 0
 528.393 528.7 l 0
 609.393 528.7 l 1
 543.684 157 l 2
 526.402 59 555 0 555 0 c 25
 450.618 -5 l 25
 450.618 -5 444.934 62 459.744 146 c 2
 476.311 239 l 25
 371.791 239 208.311 239 208.311 239 c 0
 166.168 0 l 0
 82.168 0 l 0
EndSplineSet
EndChar

StartChar: afii10088
Encoding: 1094 1094 421
Width: 600
Flags: MW
LayerCount: 2
Fore
SplineSet
119.751 95 m 0
 106.862 141 115.012 187.998 123.261 234 c 2
 153.172 400.801 l 2
 164.135 461.932 153.968 507.291 142.6 529 c 1
 240.635 541 l 1
 242.211 536.129 254.725 497.512 244.379 438.836 c 2
 208.261 234 l 2
 201.912 197.998 194.685 157 207.159 120 c 0
 220.754 78 254.698 55 296.698 55 c 0
 347.698 55 400.693 89 432.451 133 c 0
 456.271 166 464.736 197 471.966 238 c 2
 523.277 529 l 1
 607.277 529 l 1
 541.685 157 l 2
 524.403 59 561 0 561 0 c 1
 546.821 -0.679177 l 1
 531.716 -53.6765 479.197 -107.552 468.112 -133 c 1
 378.935 -134 l 1
 404.222 -87 456.804 -44 461.742 -16 c 0
 462.941 -9.19796 459.328 -7.64905 456.936 -4.98475 c 0
 456.83 -4.98984 456.724 -4.99492 456.618 -5 c 2
 456.618 -5 456.568 -4.81299 456.477 -4.43611 c 0
 455.614 -3.32208 455 -1.97138 455 0 c 0
 455.136 0.245812 455.272 0.490341 455.408 0.73359 c 0
 453.467 11.3426 450.012 36.9034 451.423 79.3184 c 1
 404.482 28.1201 325.863 -13 265.708 -13 c 0
 196.708 -13 138.408 25 119.751 95 c 0
EndSplineSet
EndChar

StartChar: afii10089
Encoding: 1095 1095 422
Width: 600
Flags: MW
LayerCount: 2
Fore
SplineSet
142.601 529 m 1
 240.635 541 l 1
 242.211 536.129 254.725 497.512 244.382 438.834 c 0
 239.243 409.711 l 0
 232.896 373.711 225.666 332.711 238.142 295.711 c 0
 251.736 253.711 285.681 230.711 327.681 230.711 c 0
 378.681 230.711 431.676 264.711 463.434 308.711 c 0
 487.253 341.711 495.719 372.711 502.948 413.711 c 0
 523.277 529 l 0
 607.277 529 l 0
 607.277 529 567.265 302.08 541.684 157 c 17
 524.402 59 551.5 0 551.5 0 c 25
 447.118 -5 l 25
 447.118 -5 441.434 62 456.245 146 c 9
 464.053 189.178 476.265 256.711 476.265 256.711 c 0
 432.038 198.711 362.69 162.711 296.69 162.711 c 0
 227.69 162.711 169.391 200.711 150.733 270.711 c 0
 137.845 316.711 146.132 363.711 154.242 409.707 c 1
 165.205 470.838 153.968 507.291 142.601 529 c 1
EndSplineSet
EndChar

StartChar: afii10090
Encoding: 1096 1096 423
Width: 600
Flags: MW
LayerCount: 2
Fore
SplineSet
69.1279 134.114 m 0
 70.2373 140.408 71.3896 146.714 72.498 153 c 2
 118 409.707 l 2
 128.963 470.838 117.726 507.291 106.358 529 c 1
 198.392 541 l 1
 199.968 536.129 212.481 497.512 202.139 438.834 c 2
 197 409.707 l 1
 151.675 154 l 2
 150.088 145 147.931 135.156 146.167 125.154 c 0
 143.228 108.484 141.383 91.375 145.098 77 c 0
 150.747 58 164.984 48 181.984 48 c 0
 213.984 48 240.803 81 252.448 96 c 0
 277.091 128 284.146 151 289.083 179 c 2
 350.798 529 l 1
 428.798 529 l 1
 363.909 161 l 2
 362.498 153 360.754 144.603 359.246 136.05 c 0
 356.607 121.083 354.691 105.636 356.566 91 c 0
 360.453 62 379.514 51 398.514 51 c 0
 419.514 51 445.981 65 471.153 100 c 0
 491.091 128 497.146 151 501.554 176 c 2
 563.798 529 l 1
 639.798 529 l 1
 639.798 529 600.274 302.08 575.006 157 c 0
 557.719 59 590.775 0 590.775 0 c 1
 486.394 -5 l 1
 486.394 -5 484.204 20.8041 486.083 60.4616 c 1
 484.118 57.6189 481.995 54.795 479.689 52 c 0
 449.165 15 403.229 -13 360.229 -13 c 0
 312.229 -13 280.047 20 279.806 64 c 1
 250.518 17 198.229 -13 147.229 -13 c 0
 118.229 -13 87.168 -2 72.6338 29 c 1
 57.3525 59 62.4678 96.3467 69.1279 134.114 c 0
EndSplineSet
EndChar

StartChar: afii10091
Encoding: 1097 1097 424
Width: 600
Flags: MW
LayerCount: 2
Fore
SplineSet
69.1279 134.114 m 0
 70.2373 140.408 71.3896 146.714 72.498 153 c 2
 118 409.707 l 2
 128.963 470.838 117.726 507.291 106.358 529 c 1
 198.392 541 l 1
 199.968 536.129 212.481 497.512 202.139 438.834 c 2
 197 409.707 l 1
 151.675 154 l 2
 150.088 145 147.931 135.156 146.167 125.154 c 0
 143.228 108.484 141.383 91.375 145.098 77 c 0
 150.747 58 164.984 48 181.984 48 c 0
 213.984 48 240.803 81 252.448 96 c 0
 277.091 128 284.146 151 289.083 179 c 2
 350.798 529 l 1
 428.798 529 l 1
 363.909 161 l 2
 362.498 153 360.754 144.603 359.246 136.05 c 0
 356.607 121.083 354.691 105.636 356.566 91 c 0
 360.453 62 379.514 51 398.514 51 c 0
 419.514 51 445.981 65 471.153 100 c 0
 491.091 128 497.146 151 501.554 176 c 2
 563.798 529 l 1
 639.798 529 l 1
 639.798 529 600.274 302.08 575.006 157 c 0
 557.719 59 590.775 0 590.775 0 c 1
 586.463 -0.206569 582.151 -0.413137 577.838 -0.619706 c 1
 562.755 -53.6362 510.201 -107.542 499.112 -133 c 1
 409.935 -134 l 1
 435.222 -87 487.804 -44 492.742 -16 c 0
 493.95 -9.15042 490.277 -7.62751 487.886 -4.92849 c 1
 486.394 -5 l 1
 486.394 -5 486.295 -3.83657 486.157 -1.62413 c 0
 486.056 -1.13214 486 -0.594272 486 0 c 0
 486.018 0.0332608 486.037 0.0664982 486.055 0.099712 c 0
 485.526 9.47346 484.697 31.1951 486.083 60.4616 c 1
 484.118 57.6189 481.995 54.795 479.689 52 c 0
 449.165 15 403.229 -13 360.229 -13 c 0
 312.229 -13 280.047 20 279.806 64 c 1
 250.518 17 198.229 -13 147.229 -13 c 0
 118.229 -13 87.168 -2 72.6338 29 c 1
 57.3525 59 62.4678 96.3467 69.1279 134.114 c 0
EndSplineSet
EndChar

StartChar: afii10092
Encoding: 1098 1098 425
Width: 600
Flags: MW
LayerCount: 2
Fore
SplineSet
126.582 457.005 m 1
 139.453 530 l 1
 329.462 530 l 1
 292.649 321.273 l 1
 306.649 321.273 l 0
 418.149 321.273 470.563 313.207 500.312 288 c 0
 542.797 252 566.435 208.462 555.552 146.743 c 0
 545.92 92.1182 448.627 0 349.552 0 c 0
 250.477 0 235.146 20.7402 162 34 c 17
 236.582 457.005 l 1
 126.582 457.005 l 1
253 96 m 0
 253 96 277.957 62 346.832 62 c 0
 415.708 62 462.953 121.87 468.388 152.694 c 0
 473.885 183.867 457.811 234.101 410.433 245.029 c 0
 378.572 252.378 336.027 252.68 299.555 252.68 c 0
 280.555 252.68 l 0
 253 96 l 0
EndSplineSet
EndChar

StartChar: afii10093
Encoding: 1099 1099 426
Width: 600
Flags: MW
LayerCount: 2
Fore
SplineSet
63 34 m 9
 97.1064 227.44 150.453 530 150.453 530 c 0
 236.456 530 l 0
 236.987 528.356 237.097 526.529 236.768 524.663 c 0
 235.16 515.549 227.702 514.38 225.52 502 c 0
 193.649 321.273 l 0
 207.649 321.273 l 0
 319.149 321.273 350.013 313.207 379.761 288 c 0
 422.246 252 434.677 208.462 423.794 146.743 c 0
 414.162 92.1182 360.233 35.0146 298.37 15.9824 c 0
 279.465 10.1668 246.87 0 199.945 0 c 8
 153.02 0 108.734 23.7369 63 34 c 9
154 96 m 25
 154 96 159.202 62 223.351 62 c 0
 287.5 62 331.195 121.87 336.63 152.694 c 0
 342.127 183.867 337.259 234.101 289.881 245.029 c 0
 258.021 252.378 237.027 252.68 200.555 252.68 c 0
 181.555 252.68 l 0
 181.555 252.68 164.746 157.105 154 96 c 25
475.873 -5 m 25
 475.873 -5 470.188 62 485 146 c 9
 511.526 295.76 553.016 530 553.016 530 c 0
 639.018 530 l 0
 639.55 528.356 639.657 526.529 639.328 524.663 c 0
 637.721 515.549 630.261 514.38 628.078 502 c 0
 567 157 l 1
 549.719 59 576.816 0 576.816 0 c 25
 475.873 -5 l 25
EndSplineSet
EndChar

StartChar: afii10094
Encoding: 1100 1100 427
Width: 600
Flags: MW
LayerCount: 2
Fore
SplineSet
111 34 m 9
 198.453 530 l 0
 284.456 530 l 0
 284.987 528.356 285.097 526.529 284.768 524.663 c 0
 283.16 515.549 275.702 514.38 273.52 502 c 0
 241.649 321.273 l 0
 301.149 321.273 l 0
 412.649 321.273 450.517 313.207 481.782 288 c 0
 526.435 252 539.758 208.462 528.875 146.743 c 0
 519.243 92.1182 463.368 35.0146 398.907 15.9824 c 0
 375.423 9.04912 331.7 0 274.704 0 c 8
 217.708 0 165.07 21.866 111 34 c 9
202 96 m 17
 202 96 245 71 279.103 70.9502 c 0
 313.206 70.9004 335.74 71.2266 368.4 79.6143 c 0
 420.658 93.0352 439.713 121.87 445.148 152.694 c 0
 450.645 183.867 444.583 234.101 392.918 245.029 c 0
 358.175 252.378 330.527 252.68 294.055 252.68 c 0
 229.555 252.68 l 0
 229.555 252.68 212.746 157.105 202 96 c 17
EndSplineSet
EndChar

StartChar: afii10095
Encoding: 1101 1101 428
Width: 600
Flags: MW
LayerCount: 2
Fore
SplineSet
89.9922 85.0273 m 1
 161.159 154.027 l 1
 169.113 147.104 160.894 136.219 163.739 127.274 c 0
 165.713 121.067 198.054 57.9531 288.438 57.9531 c 0
 385.472 57.9531 476.076 132.885 497.641 253 c 1
 236.61 253 l 1
 247.896 317 l 1
 501.549 317 l 1
 495.415 406.015 437.592 464.049 353.068 464.049 c 0
 300.014 464.049 244.478 440.584 201.535 400.027 c 1
 163.41 456.027 l 1
 223.489 510.446 299.533 540.028 373.44 540.028 c 0
 523.174 540.028 613.434 422.136 585.289 262.519 c 0
 557.275 103.647 426.231 -13.001 270.656 -13.001 c 0
 185.527 -13.001 120.903 23.9248 89.9922 85.0273 c 1
EndSplineSet
EndChar

StartChar: afii10096
Encoding: 1102 1102 429
Width: 600
Flags: MW
LayerCount: 2
Fore
SplineSet
60.9902 0 m 1
 131.672 400.801 l 2
 142.635 461.932 132.468 507.291 121.101 529 c 1
 214.635 541 l 1
 216.211 536.129 228.729 497.512 218.379 438.836 c 2
 196.886 317 l 1
 280.049 317 l 1
 318.863 450.359 403.67 541.005 482.381 541.005 c 0
 562.083 541.005 621.594 445.084 589.364 262.304 c 0
 558.419 86.8047 465.928 -14 382.882 -14 c 0
 295.888 -14 240.312 95.9824 265.658 253 c 1
 185.601 253 l 1
 140.99 0 l 1
 60.9902 0 l 1
355.206 267.806 m 0
 332.182 137.225 354.812 57.9932 395.299 57.9932 c 0
 432.383 57.9932 480.914 125.6 504.408 258.844 c 0
 530.039 404.202 502.766 470.103 466.116 470.103 c 0
 427.26 470.103 378.088 397.575 355.206 267.806 c 0
EndSplineSet
EndChar

StartChar: afii10097
Encoding: 1103 1103 430
Width: 600
Flags: MW
LayerCount: 2
Fore
SplineSet
84 0 m 1
 270.695 214.691 l 1
 246.376 219.73 231.347 228.353 215.531 242 c 0
 173.812 278 161.696 321.538 172.578 383.257 c 0
 182.21 437.882 235.451 494.985 296.399 514.018 c 0
 324.968 522.938 372.569 530 406.645 530 c 2
 438.282 530 l 2
 587.34 530 535.605 503.77 599.107 487 c 1
 593.855 480.617 582.201 453.5 577 424 c 2
 530.684 157 l 2
 513.402 59 540.5 0 540.5 0 c 1
 439.618 -5 l 1
 439.618 -5 433.934 62 448.744 146 c 0
 452.13 165.326 455.881 186.736 459.733 208.727 c 1
 358.613 208.727 l 1
 356.036 208.727 l 1
 175 0 l 1
 84 0 l 1
256.306 377.306 m 0
 250.809 346.133 251.138 295.899 299.721 284.971 c 0
 332.392 277.622 338.219 277.32 366.79 277.32 c 2
 471.75 277.32 l 1
 483.819 346.212 494.141 405.129 494.141 405.129 c 1
 500.5 438 l 1
 500.5 438 494.918 459.055 440.917 459.055 c 2
 383.177 459.1 l 2
 358.732 459.119 355.373 458.773 324.506 450.386 c 0
 275.117 436.965 261.74 408.13 256.306 377.306 c 0
EndSplineSet
EndChar

StartChar: afii10051
Encoding: 1026 1026 433
Width: 600
Flags: W
LayerCount: 2
Fore
SplineSet
129.112 650 m 1
 141.984 723 l 1
 507.484 723 l 1
 494.612 650 l 1
 321.112 650 l 1
 277.487 402.591 l 1
 322.607 459.09 402.234 491.421 461.219 491.421 c 0
 520.204 491.421 600.016 470.556 616.096 412.283 c 0
 627.584 370.649 618.062 315.106 611.188 276.124 c 2
 571.846 53 l 2
 562.677 1 550.979 -54 513.811 -106 c 0
 468.878 -168 387.883 -202 318.883 -202 c 0
 255.883 -202 198.996 -173 164.989 -122 c 0
 230.627 -56 l 0
 236.568 -62 230.158 -70 233.924 -77 c 0
 236.395 -80 272.578 -130 333.578 -130 c 0
 367.578 -130 415.576 -113 439.689 -84 c 0
 471.396 -46.7588 480.51 0.0175781 488.021 42.6104 c 2
 528.855 274.238 l 2
 535.072 309.499 542.412 352.34 522.319 384.626 c 0
 508.985 406.052 456.211 416.235 419.065 416.235 c 0
 381.92 416.235 315.646 390.782 293.011 365.421 c 0
 276.256 346.648 263.816 310.699 257.816 291.031 c 1
 206.323 -1 l 1
 124.323 -1 l 1
 239.112 650 l 1
 129.112 650 l 1
EndSplineSet
EndChar

StartChar: afii10053
Encoding: 1028 1028 435
Width: 600
Flags: W
LayerCount: 2
Fore
SplineSet
119.882 356.807 m 0
 170.846 645.838 347.693 728 459.984 728 c 0
 555.908 728 632.675 672.042 656.151 585 c 1
 572.451 547 l 1
 567.699 550.801 568.934 557.019 569.173 558.375 c 0
 569.681 561.257 570.681 564.142 571.188 567.016 c 0
 572.137 572.403 570.974 575.396 569.374 579.368 c 0
 549.107 629.699 502.331 663.168 445.816 663.168 c 0
 352.996 663.168 253.809 574.354 211.163 413.998 c 1
 492.982 413.998 l 1
 479.934 339.998 l 1
 196.42 339.998 l 1
 171.977 159.787 244.074 57.9941 345.881 57.9941 c 0
 402.543 57.9941 465.728 90.8848 508.744 146 c 1
 561.867 107 l 1
 503.509 32.9785 415.101 -12.002 328.993 -12.002 c 0
 210.062 -12.002 70.6943 77.8506 119.882 356.807 c 0
EndSplineSet
EndChar

StartChar: afii10058
Encoding: 1033 1033 440
Width: 600
Flags: W
LayerCount: 2
Fore
SplineSet
24.8984 36 m 1
 66.0732 111 l 1
 69.5723 105.644 67.8271 97.916 68.7607 92.1807 c 0
 69.6816 86.5352 74.6201 60.2275 88.6201 60.2275 c 0
 96.7979 60.2275 111.718 124.526 117.026 146 c 0
 136.974 226.702 196.453 530 219.849 651 c 0
 226.421 684.994 224.589 723 224.589 723 c 1
 502.279 723 l 1
 502.811 721.356 502.919 719.529 502.591 717.663 c 0
 500.983 708.549 493.522 707.38 491.339 695 c 2
 443.555 424 l 1
 455.558 424 l 2
 512.558 424 547.783 424 582.454 384 c 0
 617.201 343.914 630.634 284.98 615.809 200.903 c 0
 602.688 126.489 559.788 55.79 498.605 22.7725 c 0
 459.318 1.57031 423.801 1 388.81 1 c 2
 288.969 1 l 1
 403.581 651 l 1
 299.789 651 l 1
 271.809 515 209.404 198.768 185.53 112 c 0
 158.292 13 120.558 -8.17969 91.6611 -8.17969 c 0
 63.373 -8.17969 39.5977 6.74902 24.8984 36 c 1
381.487 72 m 1
 406.656 72 l 2
 425.42 72 443.914 72.5469 465.142 86.5967 c 0
 499.104 109.078 524.137 157.379 533.241 209.01 c 0
 542.448 261.227 534.447 312.754 506.707 338.19 c 0
 488.055 355.296 466.639 356 444.707 356 c 2
 431.564 356 l 1
 381.487 72 l 1
EndSplineSet
EndChar

StartChar: afii10059
Encoding: 1034 1034 441
Width: 600
Flags: W
LayerCount: 2
Fore
SplineSet
31 0 m 1
 158.308 722 l 1
 248.308 722 l 1
 248.84 720.356 248.948 718.529 248.619 716.663 c 0
 247.012 707.549 239.554 706.38 237.371 694 c 2
 187.823 413 l 1
 348.991 413 l 1
 403.652 723 l 1
 489.655 723 l 1
 490.187 721.356 490.295 719.529 489.967 717.663 c 0
 488.359 708.549 480.898 707.38 478.715 695 c 2
 430.931 424 l 1
 443.555 424 l 2
 503.555 424 540.634 424 577.502 384 c 0
 614.448 343.914 629.135 284.98 614.31 200.903 c 0
 601.188 126.489 556.688 55.79 492.592 22.7725 c 0
 451.433 1.57031 414.052 1 377.219 1 c 2
 276.345 1 l 1
 336.824 344 l 1
 175.656 344 l 1
 115 0 l 1
 31 0 l 1
368.863 72 m 1
 396.158 72 l 2
 416.52 72 436.582 72.5469 459.406 86.5967 c 0
 495.924 109.078 522.364 157.379 531.468 209.01 c 0
 540.676 261.227 531.218 312.754 500.735 338.19 c 0
 480.235 355.296 456.984 356 433.186 356 c 2
 418.94 356 l 1
 368.863 72 l 1
EndSplineSet
EndChar

StartChar: afii10060
Encoding: 1035 1035 442
Width: 600
Flags: W
LayerCount: 2
Fore
SplineSet
144.612 650 m 1
 157.484 723 l 1
 522.984 723 l 1
 510.112 650 l 1
 336.612 650 l 1
 292.987 402.591 l 1
 338.107 459.09 417.734 491.421 476.719 491.421 c 0
 535.704 491.421 602.516 470.556 618.596 412.283 c 0
 630.084 370.649 620.562 315.106 613.688 276.124 c 2
 564.823 -1 l 1
 482.83 -1 l 1
 531.355 274.238 l 2
 537.572 309.499 544.912 352.34 524.819 384.626 c 0
 511.485 406.052 471.711 416.235 434.565 416.235 c 0
 397.42 416.235 331.146 390.782 308.511 365.421 c 0
 291.756 346.648 279.316 310.699 273.316 291.031 c 1
 221.823 -1 l 1
 139.823 -1 l 1
 254.612 650 l 1
 144.612 650 l 1
EndSplineSet
EndChar

StartChar: afii10145
Encoding: 1039 1039 445
Width: 600
Flags: W
LayerCount: 2
Fore
SplineSet
63.168 0 m 1
 190.477 722 l 1
 280.477 722 l 1
 281.008 720.356 281.116 718.529 280.787 716.663 c 0
 279.18 707.549 271.722 706.38 269.539 694 c 2
 159.335 69 l 1
 471.335 69 l 1
 586.477 722 l 1
 674.477 722 l 1
 675.092 720.545 675.259 718.864 674.955 717.137 c 0
 673.407 708.363 665.009 708.006 662.892 696 c 2
 540.168 0 l 1
 346 0 l 1
 316.377 -168 l 1
 235.377 -168 l 1
 265 0 l 1
 63.168 0 l 1
EndSplineSet
EndChar

StartChar: afii10099
Encoding: 1106 1106 446
Width: 600
Flags: W
LayerCount: 2
Fore
SplineSet
117.5 0 m 1
 228.586 630 l 1
 156.086 630 l 1
 167.019 692 l 1
 239.519 692 l 1
 253.271 770 l 1
 349.271 770 l 1
 349.454 768.886 349.44 767.712 349.231 766.526 c 0
 348.166 760.484 342.831 756.916 339.676 754.11 c 0
 335.008 749.956 334.204 746.931 333.511 743 c 2
 324.519 692 l 1
 455.019 692 l 1
 444.086 630 l 1
 313.586 630 l 1
 279.379 436 l 1
 328.653 495.002 402.189 542.003 474.026 542.003 c 0
 534.351 542.003 582.641 508.129 598.494 448.568 c 0
 609.82 406.014 602.39 362.334 595.101 321 c 2
 544.524 37 l 2
 536.469 -8.68457 527.584 -52.1055 497.169 -96.3809 c 0
 448.891 -166.657 368.588 -202.181 293.049 -202.181 c 0
 227.367 -202.181 174.04 -175.027 144.43 -128 c 1
 211.126 -56 l 1
 217.281 -61.9473 214.106 -69.4814 217.489 -77.248 c 0
 220.527 -84.2227 247.084 -130.016 311.091 -130.016 c 0
 355.865 -130.016 401.763 -106.298 429.308 -63.2402 c 0
 447.308 -35.1016 454.717 -7.27539 459.703 21 c 2
 512.748 319 l 2
 519.342 356.393 527.114 401.823 504.499 436.061 c 0
 489.492 458.781 465.208 469.58 438.641 469.58 c 0
 382.662 469.58 323.539 422.787 298.614 395.893 c 0
 271.42 366.55 262.566 340.651 256.279 305 c 2
 202.5 0 l 1
 117.5 0 l 1
EndSplineSet
EndChar

StartChar: afii10101
Encoding: 1108 1108 448
Width: 600
Flags: W
LayerCount: 2
Fore
SplineSet
121.64 264.509 m 0
 149.653 423.38 280.697 540.028 436.272 540.028 c 0
 521.401 540.028 586.025 503.103 616.937 442 c 1
 545.77 373 l 1
 537.815 379.924 546.036 390.809 543.19 399.753 c 0
 541.216 405.96 508.874 469.074 418.49 469.074 c 0
 333.617 469.074 253.664 411.747 220.526 317 c 1
 477.896 317 l 1
 466.61 253 l 1
 206.289 253 l 1
 194.431 140.145 256.396 62.9785 353.86 62.9785 c 0
 406.916 62.9785 492.451 86.4434 535.394 127 c 5
 573.52 71 l 5
 513.439 16.5811 407.395 -13.001 333.487 -13.001 c 0
 183.755 -13.001 93.4951 104.892 121.64 264.509 c 0
EndSplineSet
EndChar

StartChar: afii10106
Encoding: 1113 1113 453
Width: 600
Flags: W
LayerCount: 2
Fore
SplineSet
24.8984 36 m 1
 66.0732 111 l 1
 69.5723 105.644 67.8271 97.916 68.7607 92.1807 c 0
 69.6816 86.5352 74.6201 60.2275 88.6201 60.2275 c 0
 96.7979 60.2275 111.718 124.526 117.026 146 c 0
 129.384 195.994 130.438 204.444 155.975 329.529 c 8
 168.446 390.619 194.918 437.831 225 473.732 c 0
 255.08 509.634 300.498 530 329.604 530 c 0
 441.025 530 402.107 503.77 465.609 487 c 1
 460.357 480.617 448.633 453.513 443.503 424 c 0
 425.473 320.273 l 1
 437.342 320.273 l 2
 526.822 320.273 550.098 312.207 574.31 287 c 0
 608.889 251 618.064 207.462 607.182 145.743 c 0
 597.55 91.1182 521.037 0 448.687 0 c 8
 386.538 0 357.74 20.7402 293 34 c 1
 366.503 447 l 1
 366.503 447 372.504 468.055 336.918 468.055 c 0
 293 468.055 246.326 390.544 232.342 321.848 c 16
 204.427 184.722 200.953 168.054 185.53 112 c 0
 158.292 13 120.558 -8.17969 91.6611 -8.17969 c 0
 63.373 -8.17969 39.5977 6.74902 24.8984 36 c 1
385.719 96 m 1
 385.719 68.5 413.5 62 432 62 c 0
 493 62 524.542 120.87 529.977 151.694 c 0
 535.474 182.867 533.165 233.101 494.988 244.029 c 0
 469.314 251.378 455.471 251.68 428.177 251.68 c 2
 413.378 251.68 l 1
 385.719 96 l 1
EndSplineSet
EndChar

StartChar: afii10107
Encoding: 1114 1114 454
Width: 600
Flags: W
LayerCount: 2
Fore
SplineSet
30.168 0 m 1
 101 399 l 1
 111.963 460.119 101.796 507.291 90.4287 529 c 1
 188.463 541 l 1
 190.039 536.129 201.753 497.512 191.409 438.848 c 1
 168.477 308 l 1
 328.096 308 l 1
 367.01 528.7 l 1
 448.01 528.7 l 1
 448.006 528.67 l 1
 454.008 528.668 l 1
 454.539 527.024 454.648 525.197 454.318 523.331 c 0
 452.713 514.217 445.309 513.38 443.127 501 c 2
 411.26 320.273 l 1
 430.51 320.273 l 2
 519.99 320.273 550.098 312.207 574.31 287 c 0
 608.889 251 618.064 207.462 607.182 145.743 c 0
 597.55 91.1182 567.449 47.9861 526.5 19.5 c 0
 515 11.5 490.648 0 418.346 0 c 0
 346.043 0 343.859 20.7402 279.119 34 c 1
 314.93 239 l 1
 156.311 239 l 1
 114.168 0 l 1
 30.168 0 l 1
371.838 96 m 1
 371.838 78 417.902 62 451.783 62 c 16
 490.599 62 524.542 120.87 529.977 151.694 c 0
 535.474 182.867 533.165 233.101 494.988 244.029 c 0
 469.314 251.378 441.258 251.68 413.963 251.68 c 2
 399.164 251.68 l 1
 371.838 96 l 1
EndSplineSet
EndChar

StartChar: afii10108
Encoding: 1115 1115 455
Width: 600
Flags: W
LayerCount: 2
Fore
SplineSet
324.018 692 m 1
 455.019 692 l 1
 444.086 630 l 1
 313.086 630 l 1
 278.879 436 l 1
 328.153 495.002 401.689 542.003 473.526 542.003 c 0
 533.851 542.003 582.141 508.129 597.994 448.568 c 0
 609.32 406.014 601.89 362.334 594.601 321 c 2
 565.684 157 l 2
 548.403 59 577 0 577 0 c 1
 472.618 -5 l 1
 472.618 -5 466.933 62 481.744 146 c 2
 512.248 319 l 2
 518.842 356.393 526.614 401.823 503.999 436.061 c 0
 488.992 458.781 464.708 469.58 438.141 469.58 c 0
 382.162 469.58 323.039 422.787 298.114 395.893 c 0
 270.92 366.55 262.066 340.651 255.779 305 c 2
 202 0 l 1
 117 0 l 1
 228.086 630 l 1
 156.086 630 l 1
 167.019 692 l 1
 239.018 692 l 1
 252.771 770 l 1
 348.771 770 l 1
 348.954 768.886 348.94 767.712 348.731 766.526 c 0
 347.666 760.484 342.331 756.916 339.176 754.11 c 0
 334.508 749.956 333.704 746.931 333.011 743 c 2
 324.018 692 l 1
EndSplineSet
EndChar

StartChar: afii10193
Encoding: 1119 1119 458
Width: 600
Flags: W
LayerCount: 2
Fore
SplineSet
119.751 95 m 0
 106.862 141 115.012 187.998 123.261 234 c 2
 153.172 400.801 l 2
 164.135 461.932 153.968 507.291 142.6 529 c 1
 240.635 541 l 1
 242.211 536.129 254.725 497.512 244.379 438.836 c 2
 208.261 234 l 2
 201.912 197.998 194.685 157 207.159 120 c 0
 220.754 78 254.698 55 296.698 55 c 0
 347.698 55 400.693 89 432.451 133 c 0
 456.271 166 464.736 197 471.966 238 c 2
 523.277 529 l 1
 607.277 529 l 1
 541.685 157 l 2
 524.403 59 561 0 561 0 c 1
 456.618 -5 l 1
 456.618 -5 449.5 21.5 451.423 79.3184 c 1
 429.614 55.5314 400.967 33.9199 370.511 17.597 c 1
 370.125 12.2713 369.26 6.20415 367.854 -0.676758 c 0
 356.82 -54.6703 300.234 -107.552 289.149 -133 c 1
 199.972 -134 l 1
 225.259 -87 277.841 -44 282.779 -16 c 0
 283.064 -14.3855 283.077 -13.0679 282.901 -11.9615 c 1
 277.037 -12.6455 271.293 -13 265.708 -13 c 0
 196.708 -13 138.408 25 119.751 95 c 0
EndSplineSet
EndChar

StartChar: afii10050
Encoding: 1168 1168 459
Width: 600
Flags: W
LayerCount: 2
Fore
SplineSet
78 0 m 1
 205.484 723 l 1
 566.484 723 l 1
 600.691 917 l 1
 682.691 917 l 1
 635.789 651 l 1
 269.789 651 l 1
 227.999 414 l 2
 214.951 340 l 1
 167.695 72 l 2
 162.827 43.917 160.562 28.0801 156 0 c 1
 78 0 l 1
EndSplineSet
EndChar

StartChar: afii10098
Encoding: 1169 1169 460
Width: 600
Flags: W
LayerCount: 2
Fore
SplineSet
100.5 0 m 1
 194.13 531 l 1
 447.807 531 l 1
 486.622 531 516.565 577.9 522 608.725 c 1
 533.468 669 l 1
 630 674.7 l 1
 630 674.7 608.403 632.253 603.205 602.773 c 16
 593.573 548.148 563.473 505.016 522.523 476.53 c 0
 511.023 468.53 486.672 458 414.369 458 c 1
 263.258 458 l 1
 182.5 0 l 1
 100.5 0 l 1
EndSplineSet
EndChar

StartChar: afii10084.mkd
Encoding: 65548 -1 465
Width: 600
Flags: W
LayerCount: 2
Fore
SplineSet
229.955 720 m 0
 623.955 720 l 4
 612.494 655 l 4
 218.494 655 l 0
 229.955 720 l 0
EndSplineSet
Refer: 423 1096 N 1 0 0 1 0 0 2
EndChar

StartChar: afii61352
Encoding: 8470 8470 467
Width: 600
Flags: W
LayerCount: 2
Fore
SplineSet
568.85 545.011 m 0
 612.896 545.011 645.882 477.808 621.363 338.756 c 0
 594.921 188.793 535.028 120.94 490.256 120.94 c 0
 441.783 120.94 412.141 198.446 434.433 324.869 c 0
 457.868 457.779 517.973 545.011 568.85 545.011 c 0
490.324 330.214 m 0
 473.218 233.196 484.542 187.925 502.983 187.925 c 0
 520.725 187.925 547.949 230.473 565.535 330.207 c 0
 583.045 429.509 573.519 480 554.417 480 c 0
 535.482 480 507.93 430.057 490.324 330.214 c 0
376.201 63 m 0
 590.113 63 l 0
 579.005 0 l 0
 365.093 0 l 0
 376.201 63 l 0
30.0049 0 m 0
 157.312 722 l 0
 236.312 722 l 0
 303.058 247 l 0
 386.989 723 l 0
 472.989 723 l 0
 472.729 716.255 468.733 710.683 467.004 708.22 c 0
 463.296 702.938 460.944 700.058 459.523 692 c 0
 337.328 -1 l 0
 273.328 -1 l 0
 197.579 508 l 0
 108.005 0 l 0
 30.0049 0 l 0
EndSplineSet
EndChar

StartChar: Hbar
Encoding: 294 294 468
Width: 600
Flags: W
LayerCount: 2
Fore
SplineSet
200.308 722 m 1
 290.308 722 l 1
 290.841 720.356 290.948 718.529 290.619 716.663 c 0
 289.012 707.549 281.554 706.38 279.371 694 c 2
 267.205 625.001 l 1
 550.205 625.001 l 1
 567.309 722 l 1
 655.309 722 l 1
 655.924 720.545 656.091 718.865 655.786 717.137 c 0
 654.239 708.364 645.841 708.006 643.724 696 c 2
 631.205 625.001 l 1
 680.204 625.001 l 1
 669.272 563.001 l 1
 620.272 563.001 l 1
 520.823 -1 l 1
 438.823 -1 l 1
 499.656 344 l 1
 217.656 344 l 1
 157 0 l 1
 73 0 l 1
 172.272 563.001 l 1
 129.272 563.001 l 1
 140.204 625.001 l 1
 183.204 625.001 l 1
 200.308 722 l 1
539.273 563.001 m 1
 256.272 563.001 l 1
 229.823 413 l 1
 512.823 413 l 1
 539.273 563.001 l 1
EndSplineSet
EndChar

StartChar: Tbar
Encoding: 358 358 491
Width: 600
Flags: W
LayerCount: 2
Fore
SplineSet
173.484 723 m 1
 673.484 723 l 1
 660.612 650 l 1
 447.612 650 l 1
 407.058 420 l 1
 571.058 420 l 1
 559.596 355 l 1
 395.596 355 l 1
 332.823 -1 l 1
 250.823 -1 l 1
 313.596 355 l 1
 161.596 355 l 1
 173.058 420 l 1
 325.058 420 l 1
 365.612 650 l 1
 160.612 650 l 1
 173.484 723 l 1
EndSplineSet
EndChar

StartChar: tbar
Encoding: 359 359 497
Width: 600
Flags: W
LayerCount: 2
Fore
SplineSet
346.315 671 m 1
 439.96 686 l 1
 440.607 684 440.255 682 439.902 680 c 0
 438.315 671 431.258 665 427.494 655 c 0
 417.204 625 392.453 530 392.453 530 c 1
 565.453 530 l 1
 553.287 461 l 1
 379.287 461 l 1
 366.231 414 355.031 367 345.372 320 c 1
 503.427 320 l 1
 491.965 255 l 1
 332.964 255 l 1
 332.787 254 l 2
 319.21 177 318.684 157 317.802 152 c 0
 315.693 89 352.813 67 391.813 67 c 0
 424.813 67 468.459 82 519.277 115 c 1
 533.64 49 l 1
 482.821 16 417.236 -10 354.236 -10 c 0
 300.236 -10 261.939 11 243.111 46 c 0
 219.869 90 229.215 143 237.502 190 c 0
 241.321 211.662 245.373 233.324 249.645 255 c 1
 141.965 255 l 1
 153.426 320 l 1
 263.091 320 l 1
 273.224 366.824 284.327 413.777 296.287 461 c 1
 172.287 461 l 1
 185.277 529 l 1
 311.277 529 l 1
 346.315 671 l 1
EndSplineSet
EndChar

StartChar: Uogonek
Encoding: 370 370 505
Width: 600
Flags: W
LayerCount: 2
Fore
SplineSet
195.308 722 m 1
 286.308 722 l 1
 286.775 720.163 286.833 718.172 286.477 716.15 c 0
 285.258 709.235 279.853 704.498 276.034 700.195 c 0
 270.699 694.182 269.713 690.266 268.784 685 c 2
 191.729 248 l 2
 185.406 212.142 179.938 177.155 190.3 141.578 c 0
 206.473 86.0527 255.665 55.9209 312.928 55.9209 c 0
 369.274 55.9209 428.832 85.3438 465.249 140.549 c 0
 489.485 177.288 496.68 213.693 503.258 251 c 2
 586.309 722 l 1
 663.309 722 l 1
 580.61 253 l 2
 571.299 200.192 560.888 150.173 524.685 99.8135 c 0
 509.912 79.2646 493.713 61.9004 474.787 47 c 0
 429.659 12.0078 334.153 -66.5967 322.348 -77.7402 c 0
 312.578 -86.9648 298.791 -100.705 295.77 -117.842 c 0
 292.631 -135.64 302.759 -150.797 323.857 -150.797 c 0
 331.048 -150.797 339.884 -149.114 352.847 -144.679 c 0
 372.108 -138.087 385.191 -130.111 393.636 -124 c 1
 384.29 -177 l 1
 358.099 -196.689 328.229 -204.002 299.43 -204.002 c 0
 239.388 -204.002 214.268 -171.745 221.083 -133.094 c 0
 227.117 -98.873 261.284 -57.1729 319.908 -12.3105 c 1
 312.976 -12.8193 306.052 -13.0732 299.156 -13.0732 c 0
 213.96 -13.0732 140.56 24.9775 113.636 99.2168 c 0
 95.6494 148.814 102.905 197.96 111.905 249 c 2
 195.308 722 l 1
EndSplineSet
EndChar

StartChar: IJ
Encoding: 306 306 521
Width: 600
Flags: W
LayerCount: 2
Fore
SplineSet
29.8232 -1 m 1
 41.8135 67 l 1
 119.813 67 l 1
 223.317 654 l 1
 153.317 654 l 1
 165.308 722 l 1
 712.309 722 l 1
 700.318 654 l 1
 629.318 654 l 1
 524.756 61 l 2
 515.587 9 505.889 -46 468.72 -98 c 0
 423.788 -160 355.793 -194 286.793 -194 c 0
 223.793 -194 166.906 -165 132.898 -114 c 1
 198.536 -48 l 1
 204.479 -54 198.067 -62 201.833 -69 c 0
 204.305 -72 240.488 -122 301.488 -122 c 0
 335.488 -122 370.485 -105 394.6 -76 c 0
 426.304 -38.7588 435.414 8.01758 442.924 50.6104 c 2
 444.58 60 l 1
 549.318 654 l 1
 304.317 654 l 1
 200.638 66 l 1
 299.638 66 l 1
 287.823 -1 l 1
 29.8232 -1 l 1
EndSplineSet
EndChar

StartChar: ij
Encoding: 307 307 522
Width: 600
Flags: W
LayerCount: 2
Fore
SplineSet
321.287 461 m 1
 303.596 360.667 285.904 260.333 268.212 160 c 0
 262.159 120 256.804 73 302.804 73 c 0
 327.804 73 334.067 77 363.741 79 c 1
 348.228 0 l 1
 341.887 0 336.341 0 330 0 c 0
 318.112 0 320.047 0 308.952 0 c 0
 271.705 0 236.394 2 213.854 18 c 0
 177.847 43 172.046 91 183.331 155 c 0
 183.684 157 183.859 158 184.212 160 c 2
 237.463 462 l 1
 118.463 462 l 1
 130.453 530 l 1
 614.453 530 l 1
 527.524 37 l 2
 519.469 -8.68457 510.585 -52.1055 480.169 -96.3809 c 0
 431.892 -166.657 351.588 -202.181 276.049 -202.181 c 0
 210.367 -202.181 157.04 -175.027 127.43 -128 c 1
 194.126 -56 l 1
 200.281 -61.9473 197.107 -69.4814 200.489 -77.248 c 0
 203.527 -84.2227 230.084 -130.016 294.091 -130.016 c 0
 338.866 -130.016 384.763 -106.298 412.308 -63.2402 c 0
 430.308 -35.1016 435.717 -7.27539 440.703 21 c 2
 518.287 461 l 1
 321.287 461 l 1
263.496 700.486 m 0
 269.275 733.264 300.818 760 333.999 760 c 0
 367.167 760 389.314 733.273 383.533 700.486 c 0
 377.756 667.72 346.206 640.992 313.015 640.992 c 0
 279.843 640.992 257.718 667.716 263.496 700.486 c 0
543.496 700.486 m 0
 549.275 733.264 580.818 760 613.999 760 c 0
 647.167 760 669.314 733.273 663.533 700.486 c 0
 657.756 667.72 626.206 640.992 593.015 640.992 c 0
 559.843 640.992 537.718 667.716 543.496 700.486 c 0
EndSplineSet
EndChar

StartChar: napostrophe
Encoding: 329 329 525
Width: 600
Flags: W
LayerCount: 2
Fore
SplineSet
180 0 m 1
 245.594 372 l 2
 258.906 447.5 252.369 504 239.277 529 c 1
 337.57 541 l 1
 339.525 534.958 344.866 500.598 338.376 432.674 c 1
 387.048 487.138 433.751 541.083 515.525 542.003 c 0
 575.967 542.683 624.141 508.129 639.994 448.568 c 0
 651.32 406.014 643.891 362.334 636.601 321 c 2
 636.601 321 625.562 258.4 607.685 157 c 0
 590.403 59 619 0 619 0 c 1
 514.618 -5 l 1
 514.618 -5 508.934 62 523.744 146 c 0
 535.641 213.47 554.248 319 554.248 319 c 2
 560.842 356.393 568.614 401.823 545.998 436.061 c 0
 530.992 458.781 506.708 469.58 480.142 469.58 c 0
 424.162 469.58 386.039 422.787 361.114 395.893 c 0
 333.92 366.55 325.066 340.651 318.778 305 c 2
 265 0 l 1
 180 0 l 1
EndSplineSet
Refer: 56 8217 N 1 0 0 1 -190 0 2
EndChar

StartChar: longs
Encoding: 383 383 532
Width: 600
Flags: W
LayerCount: 2
Fore
SplineSet
168.377 -168 m 1
 294.979 550 l 1
 303.268 597 313.025 641 347.784 685 c 0
 395.363 745 471.006 777 545.006 777 c 0
 612.006 777 664.422 751 694.311 705 c 1
 642.733 628 l 1
 638.733 628 634.086 630 635.496 638 c 0
 635.378 643 636.907 646 633.789 651 c 0
 617.784 685 580.545 712 529.545 712 c 0
 485.545 712 441.019 692 412.142 653 c 0
 388.35 621.182 381.038 584.405 374.871 549.431 c 0
 374.255 545.934 373.648 542.45 373.04 539 c 2
 248.377 -168 l 1
 168.377 -168 l 1
EndSplineSet
EndChar

StartChar: endash
Encoding: 8211 8211 547
Width: 600
Flags: W
LayerCount: 2
Fore
SplineSet
194.06 403 m 0
 548.06 403 l 0
 534.482 326 l 0
 180.482 326 l 0
 194.06 403 l 0
EndSplineSet
EndChar

StartChar: emdash
Encoding: 8212 8212 548
Width: 600
Flags: W
LayerCount: 2
Fore
SplineSet
124.58 403 m 0
 626.58 403 l 0
 613.003 326 l 0
 111.003 326 l 0
 124.58 403 l 0
EndSplineSet
EndChar

StartChar: afii00208
Encoding: 8213 8213 549
Width: 600
Flags: W
LayerCount: 2
Fore
SplineSet
71.0596 403 m 0
 671.06 403 l 0
 657.482 326 l 0
 57.4824 326 l 0
 71.0596 403 l 0
EndSplineSet
EndChar

StartChar: quotereversed
Encoding: 8219 8219 551
Width: 600
Flags: W
LayerCount: 2
Fore
SplineSet
314.35 642.835 m 0
 324.805 702.133 370.559 738.93 411.773 738.93 c 0
 449.909 738.93 472.992 707.85 466.821 672.853 c 0
 461.328 641.694 436.904 628.371 425.467 621.562 c 0
 414.22 614.867 395.262 604.197 391.056 580.342 c 0
 387.674 561.166 395.682 541.362 399.7 532.066 c 0
 407.74 513.471 422.238 485.274 445.263 460 c 0
 399.092 425 l 0
 332.834 506.943 303.712 582.506 314.35 642.835 c 0
EndSplineSet
EndChar

StartChar: uni201F
Encoding: 8223 8223 552
Width: 600
Flags: W
LayerCount: 2
Fore
SplineSet
194.35 642.835 m 0
 204.805 702.133 250.559 738.93 291.773 738.93 c 0
 329.909 738.93 352.992 707.85 346.821 672.853 c 0
 341.328 641.694 316.904 628.371 305.467 621.562 c 0
 294.22 614.867 275.262 604.197 271.056 580.342 c 0
 267.674 561.166 275.682 541.362 279.7 532.066 c 0
 287.74 513.471 302.238 485.274 325.263 460 c 0
 279.092 425 l 0
 212.834 506.943 183.712 582.506 194.35 642.835 c 0
434.35 642.835 m 0
 444.805 702.133 490.559 738.93 531.773 738.93 c 0
 569.909 738.93 592.992 707.85 586.821 672.853 c 0
 581.328 641.694 556.904 628.371 545.467 621.562 c 0
 534.22 614.867 515.262 604.197 511.056 580.342 c 0
 507.674 561.166 515.682 541.362 519.7 532.066 c 0
 527.74 513.471 542.238 485.274 565.263 460 c 0
 519.092 425 l 0
 452.834 506.943 423.712 582.506 434.35 642.835 c 0
EndSplineSet
EndChar

StartChar: perthousand
Encoding: 8240 8240 553
Width: 600
Flags: W
LayerCount: 2
Fore
SplineSet
340.374 291.512 m 0
 390.151 291.512 420.87 226.955 405.289 138.593 c 0
 390.113 52.5283 337.446 -11.6123 287.664 -11.6123 c 0
 237.503 -11.6123 207.344 53.3164 222.603 139.854 c 0
 238.31 228.932 291.801 291.512 340.374 291.512 c 0
328.49 230.41 m 0
 318.125 230.41 299.321 212.529 287.209 143.835 c 0
 273.371 65.3584 288.084 50.3164 297.56 50.3164 c 0
 308.017 50.3164 326.604 68.5459 338.418 135.554 c 0
 352.969 218.072 337.003 230.41 328.49 230.41 c 0
544.457 291.512 m 0
 594.234 291.512 624.953 226.955 609.372 138.593 c 0
 594.196 52.5283 541.529 -11.6123 491.747 -11.6123 c 0
 441.586 -11.6123 411.427 53.3164 426.686 139.854 c 0
 442.393 228.932 495.884 291.512 544.457 291.512 c 0
532.573 230.41 m 0
 522.208 230.41 503.404 212.529 491.292 143.835 c 0
 477.454 65.3584 492.167 50.3164 501.643 50.3164 c 0
 512.1 50.3164 530.687 68.5459 542.501 135.554 c 0
 557.052 218.072 541.086 230.41 532.573 230.41 c 0
390.242 722 m 0
 468.242 722 l 0
 137 0 l 0
 63 0 l 0
 390.242 722 l 0
243.584 735.106 m 0
 293.361 735.106 324.08 670.55 308.499 582.188 c 0
 293.323 496.123 240.656 431.982 190.874 431.982 c 0
 140.713 431.982 110.554 496.911 125.812 583.448 c 0
 141.52 672.526 195.011 735.106 243.584 735.106 c 0
231.7 674.005 m 0
 221.335 674.005 202.531 656.124 190.419 587.43 c 0
 176.581 508.953 191.294 493.911 200.77 493.911 c 0
 211.227 493.911 229.813 512.141 241.628 579.148 c 0
 256.179 661.667 240.213 674.005 231.7 674.005 c 0
EndSplineSet
EndChar

StartChar: minute
Encoding: 8242 8242 554
Width: 600
Flags: W
LayerCount: 2
Fore
SplineSet
434.482 740 m 0
 538.482 740 l 0
 399.393 541 l 0
 327.393 541 l 0
 434.482 740 l 0
EndSplineSet
EndChar

StartChar: uni207F
Encoding: 8319 8319 558
Width: 600
Flags: W
LayerCount: 2
Fore
SplineSet
516 448 m 1
 498.719 350 527.315 291 527.315 291 c 1
 434.874 286 l 1
 434.874 286 429.189 353 444 437 c 1
 454.1 493.4 l 0
 456.85 508.995 459.074 525.467 446.823 537.219 c 0
 439.371 548.5 427.56 553.748 414.345 553.748 c 0
 386.106 553.748 355.068 541.027 342.559 533.534 c 0
 328.125 517.959 323.854 505.617 320.219 485 c 0
 286.188 292 l 1
 215.188 292 l 1
 271.154 609.4 l 1
 342.154 609.4 l 1
 335.604 572.254 l 1
 365.918 599.043 401.894 617.202 439.104 617.202 c 0
 479.18 617.202 511.429 594.449 521.878 555.188 c 0
 530.509 534.252 526.791 513.199 523.511 494.6 c 0
 516 448 l 1
EndSplineSet
EndChar

StartChar: franc
Encoding: 8355 8355 559
Width: 600
Flags: W
LayerCount: 2
Fore
SplineSet
203 0 m 1
 121 0 l 1
 162.966 238 l 1
 73.4658 238 l 5
 85.8086 308 l 5
 175.309 308 l 1
 189.715 389.7 l 1
 100.215 389.7 l 5
 112.558 459.7 l 5
 202.058 459.7 l 1
 248.484 723 l 1
 664.484 723 l 1
 651.965 652 l 1
 317.965 652 l 1
 284.058 459.7 l 1
 554.058 459.7 l 1
 541.715 389.7 l 1
 271.715 389.7 l 1
 257.309 308 l 1
 527.309 308 l 1
 514.966 238 l 1
 244.966 238 l 1
 203 0 l 1
EndSplineSet
EndChar

StartChar: lira
Encoding: 8356 8356 560
Width: 600
Flags: W
LayerCount: 2
Fore
SplineSet
610.904 663 m 1
 548.62 599 l 1
 540.386 605.934 542.754 615.246 537.306 622.673 c 0
 533.34 628.078 505.699 656.128 457.041 656.128 c 0
 394.866 656.128 325.235 609.4 308.229 512.955 c 0
 303.859 488.175 303.424 463.315 304.399 438 c 1
 419.231 438 l 1
 407.594 372 l 1
 308.404 372 l 1
 309.622 351.21 310.379 329.938 309.437 308 c 1
 396.309 308 l 1
 384.671 242 l 1
 300.753 242 l 1
 289.109 191.272 266.137 144.016 234.338 104 c 1
 244.904 105.791 255.453 106.675 265.873 106.675 c 0
 342.912 106.675 382.395 58.916 448.748 58.916 c 0
 480.714 58.916 512.961 70.8545 540.046 91 c 1
 560.466 31 l 1
 530.714 10.2529 481.688 -17.1631 431.114 -17.1631 c 0
 357.232 -17.1631 317.915 34.666 233.785 34.666 c 0
 210.106 34.666 164.62 30.2656 83.4131 -9 c 1
 65.0508 57 l 1
 123.354 81.9053 138.369 87.4531 161.737 115.98 c 0
 191.433 152.231 212.87 195.48 223.499 242 c 1
 130.671 242 l 1
 142.309 308 l 1
 231.407 308 l 1
 231.95 329.627 230.831 350.876 229.414 372 c 1
 153.594 372 l 1
 165.231 438 l 1
 225.557 438 l 1
 224.92 462.328 225.773 486.842 230.196 511.928 c 0
 253.111 641.884 363.166 722.006 470.681 722.006 c 0
 525.895 722.006 576.048 701.138 610.904 663 c 1
EndSplineSet
EndChar

StartChar: peseta
Encoding: 8359 8359 561
Width: 600
VWidth: 0
Flags: W
LayerCount: 2
Fore
SplineSet
386.473 -11.5 m 0
 355.242 -11.5 330.679 11 322.393 46 c 0
 312.222 90 321.567 143 329.854 190 c 0
 345.724 280 363.907 370 384.001 461 c 1
 363.033 461 l 1
 346.563 410.722 321.098 366.791 289.538 342 c 0
 261.173 320 237.065 319 212.021 319 c 2
 150.248 319 l 1
 94 0 l 1
 30 0 l 1
 157.308 722 l 1
 279.742 722 l 2
 305.898 722 330.21 721 351.578 697 c 0
 381.801 663.602 389.681 598.333 379.154 529 c 1
 397.727 529 l 1
 428.548 671 l 1
 494.782 686 l 1
 494.829 684 494.477 682 494.124 680 c 0
 492.537 671 489.087 665 486.526 655 c 0
 479.243 625 459.303 530 459.303 530 c 1
 539.438 530 l 1
 552.116 537.697 565.68 542.004 579.693 542.004 c 0
 615.343 542.004 642.209 512.905 654.975 459 c 1
 619.794 386 l 1
 618.948 386.487 617.447 388.387 618.69 395.318 c 0
 619.42 399.389 620.257 402.17 619.514 406.383 c 0
 614.926 432.386 587.342 479.074 564.16 479.074 c 0
 545.773 479.074 524.662 449.386 517.15 406.786 c 0
 514.014 389 512.314 363.327 521.912 342.429 c 0
 532.896 318.517 569.446 306.562 590.76 272.983 c 0
 613.076 237.822 611.489 189.926 605.028 153.285 c 0
 590.938 73.3789 541.483 -12 475.618 -12 c 0
 439.009 -12 422.908 -11.5 386.473 -11.5 c 0
207.907 646 m 1
 162.211 390 l 1
 215.426 390 l 2
 228.359 390 241.469 391 256.871 405 c 0
 279.975 426 297.719 469 305.83 515 c 0
 314.117 562 311.604 608 294.696 630 c 0
 283.484 645 270.266 646 256.408 646 c 2
 207.907 646 l 1
482.19 461 m 1
 446.738 461 l 1
 431.781 392 418.418 323 406.252 254 c 0
 392.675 177 390.345 157 389.463 152 c 0
 381.941 89 394.26 58.5 416.815 58.5 c 0
 435.9 58.5 459.403 58 487.278 58 c 0
 510.51 58 535.113 92.168 543.856 141.757 c 0
 547.23 160.887 549.335 188.765 539.523 209.208 c 0
 530.751 227.486 513.169 241.548 495.639 257.732 c 0
 484.389 268.119 444.692 301.799 460.991 394.231 c 0
 465.173 417.944 472.487 440.725 482.19 461 c 1
EndSplineSet
EndChar

StartChar: afii61248
Encoding: 8453 8453 562
Width: 600
Flags: W
LayerCount: 2
Fore
SplineSet
607.016 126.501 m 0
 590.815 34.6206 522.384 -17 454.25 -17 c 0
 447.166 -17 440.251 -16.4097 433.557 -15.2538 c 0
 371.031 -4.45623 330.992 55.0821 344.559 132.026 c 0
 359.724 218.029 431.303 280.503 504.417 280.503 c 0
 511.103 280.503 517.694 279.959 524.123 278.866 c 0
 581.765 269.068 622.393 213.712 607.016 126.501 c 0
495.324 225.052 m 0
 460.959 225.052 419.774 193.548 408.951 132.167 c 0
 407.464 123.737 406.745 115.834 406.692 108.494 c 0
 406.354 62.3293 431.072 38.9971 460.92 38.9971 c 0
 493.554 38.9971 534.433 68.0726 545.556 131.158 c 0
 547.287 140.976 548.087 149.93 548.115 158.035 c 0
 548.277 206.41 522.216 225.052 495.324 225.052 c 0
136.848 586.991 m 0
 151.629 670.817 221.011 733.014 304.012 733.014 c 0
 349.483 733.014 385.846 712.953 403.268 678.514 c 0
 406.591 671.945 l 1
 359.126 625.925 l 1
 352.196 631.957 l 0
 342.665 640.252 347.738 650.174 347.738 650.174 c 1
 344.696 656.005 330.485 677.537 295.121 677.537 c 0
 251.89 677.537 210.198 644.028 200.288 587.826 c 0
 198.971 580.357 198.33 573.238 198.297 566.523 c 0
 198.078 521.655 223.861 494.489 262.807 494.489 c 0
 287.06 494.489 328.178 506.272 346.707 523.77 c 0
 355.237 531.826 l 1
 385.801 486.932 l 1
 379.349 481.088 l 0
 346.596 451.423 291.785 436.5 252.62 436.5 c 0
 244.412 436.5 236.489 437.162 228.895 438.458 c 0
 161.321 449.985 123.478 511.162 136.848 586.991 c 0
EndSplineSet
Refer: 274 8260 N 1 0 0 1 0 0 2
EndChar

StartChar: afii61289
Encoding: 8467 8467 563
Width: 600
Flags: W
LayerCount: 2
Fore
SplineSet
404.806 73 m 0
 429.806 73 450.682 77 480.356 79 c 1
 464.842 0 l 1
 458.501 0 452.955 0 446.614 0 c 0
 434.728 0 402.56 1.00684 391.465 1.00684 c 0
 330.434 1.00684 279.871 38.1042 247.557 108.823 c 1
 210.271 90.7276 170.762 80.2998 129.979 80.2998 c 1
 143.318 152.293 l 1
 170.75 152.293 198.289 160.892 224.96 175.715 c 1
 205.418 256.647 202.689 364.466 222.587 496.573 c 0
 247.323 660.806 300.247 777 435.157 777 c 0
 528.649 777 556.879 681.079 524.649 498.299 c 0
 504.544 384.276 426.984 241.971 321.176 156.265 c 1
 339.948 102.248 369.101 73 404.806 73 c 0
416.973 706.098 m 0
 383 706.098 331.146 634.171 311.979 503.801 c 0
 296.375 397.67 294.484 307.942 303.151 238.307 c 1
 372.591 311.26 426.239 416.272 440.094 494.839 c 0
 465.723 640.197 466.649 706.098 416.973 706.098 c 0
EndSplineSet
EndChar

StartChar: estimated
Encoding: 8494 8494 565
Width: 600
Flags: W
LayerCount: 2
Fore
SplineSet
310 730 m 0
 396 730 521.318 668.39 545.318 478.202 c 0
 549.166 451.584 550.957 426.254 550.957 395.504 c 0
 550.957 378.288 550.396 360.649 549.318 342.652 c 1
 180.318 342.652 l 1
 180.318 144.407 l 1
 225.082 85.277 285.653 66.8535 327 66.8535 c 0
 380 66.8535 455.318 96.1055 490.318 150.43 c 1
 536.318 97.8271 l 1
 491.318 25.502 396 -12 320 -12 c 0
 177 -12 40.3184 113.898 40.3184 350.964 c 0
 40.3184 609.459 183 730 310 730 c 0
180.318 411.909 m 1
 410.318 411.909 l 1
 410.318 599.326 l 1
 379.99 634.474 341.466 656.061 304 656.061 c 0
 270.445 656.061 219.672 637.142 180.318 582.906 c 1
 180.318 411.909 l 1
EndSplineSet
EndChar

StartChar: uni2070
Encoding: 8304 8304 566
Width: 600
Flags: W
LayerCount: 2
Fore
SplineSet
203.08 519.826 m 0
 228.377 663.292 339.579 752.429 433.726 752.429 c 0
 525.097 752.429 605.831 668.658 578.896 515.904 c 0
 551.72 361.776 439.056 289.378 353.082 289.378 c 0
 259.421 289.378 177.494 374.719 203.08 519.826 c 0
273.083 456.54 m 1
 496.215 646.639 l 1
 478.394 682.119 450.736 697.153 423.119 697.153 c 0
 371.27 697.153 295.751 638.896 276.271 528.414 c 0
 271.585 501.842 270.899 477.731 273.083 456.54 c 1
506.913 510.168 m 0
 512.11 539.643 513.201 565.972 511.484 587.205 c 1
 289.027 399.677 l 1
 307.068 364.308 335.355 346.425 365.346 346.425 c 0
 411.534 346.425 485.647 389.561 506.913 510.168 c 0
EndSplineSet
EndChar

StartChar: uni2075
Encoding: 8309 8309 567
Width: 600
Flags: W
LayerCount: 2
Fore
SplineSet
233.396 515.406 m 1
 294.181 743.381 l 1
 593.809 743.381 l 1
 583.847 686.887 l 1
 348.852 686.887 l 1
 321.933 577.595 l 1
 352.899 587.312 381.135 591.524 410.363 591.524 c 0
 507.568 591.524 578.971 538.476 562.038 442.446 c 0
 544.44 342.646 449.557 289.381 349.51 289.381 c 0
 280.596 289.381 220.07 314.378 188.825 359.096 c 0
 184.995 364.578 l 1
 257.665 402.856 l 1
 260.351 401.213 l 0
 270.735 394.859 265.896 382.774 265.896 382.774 c 1
 268.302 378.75 300.468 344.658 358.472 344.658 c 0
 417.189 344.658 473.619 379.688 484.851 443.385 c 0
 496.488 509.384 449.705 542.404 391.979 542.404 c 0
 354.62 542.404 313.303 528.086 282.663 502.596 c 0
 279.66 500.097 l 1
 233.396 515.406 l 1
EndSplineSet
EndChar

StartChar: uni2076
Encoding: 8310 8310 568
Width: 600
Flags: W
LayerCount: 2
Fore
SplineSet
265.267 641.661 m 1
 315.019 720.962 397.439 754.258 466.916 754.258 c 0
 513.819 754.258 558.061 739.312 587.66 712.773 c 0
 592.688 708.266 l 1
 531.832 662.951 l 1
 528.535 665.012 l 0
 518.583 671.232 519.039 679.785 517.302 681.343 c 0
 514.883 683.513 493.176 698.373 457.062 698.373 c 0
 419.094 698.373 332.984 682.015 300.045 550.9 c 1
 332.76 577.962 376.789 593.347 421.224 593.347 c 0
 503.929 593.347 573.503 538.926 556.677 443.502 c 0
 539.967 348.736 450.502 290.001 361.438 290.001 c 0
 309.579 290.001 260.192 310.029 232.935 350.631 c 0
 203.062 395.053 206.815 451.682 216.013 503.844 c 0
 223.499 546.3 237.365 598.354 265.267 641.661 c 1
481.947 440.455 m 0
 494.708 512.826 448.521 538.071 405.18 538.071 c 0
 365.802 538.071 320.582 515.704 290.154 482.648 c 1
 288.635 477.338 288.015 473.555 287.121 468.492 c 0
 274.586 397.402 312.914 345.886 373.653 345.886 c 0
 419.773 345.886 470.54 375.763 481.947 440.455 c 0
EndSplineSet
EndChar

StartChar: uni2077
Encoding: 8311 8311 569
Width: 600
Flags: W
LayerCount: 2
Fore
SplineSet
258.093 684.449 m 1
 268.484 743.381 l 1
 602.469 743.381 l 1
 596.449 709.24 l 1
 595.437 707.9 l 0
 545.35 641.63 497.611 574.538 452.298 506.733 c 0
 407.755 438.848 365.522 370.263 325.665 301.088 c 0
 323.491 297.315 l 1
 238.712 297.315 l 1
 243.741 305.666 l 0
 291.227 383.646 341.143 460.984 393.426 537.588 c 0
 427.038 586.834 461.762 635.939 497.225 684.449 c 1
 258.093 684.449 l 1
EndSplineSet
EndChar

StartChar: uni2078
Encoding: 8312 8312 570
Width: 600
Flags: W
LayerCount: 2
Fore
SplineSet
260.525 640.414 m 0
 271.857 704.679 351.871 754.904 440.438 754.904 c 0
 525.369 754.904 586.099 707.685 574.99 644.689 c 0
 567.489 602.146 527.153 562.384 475.186 538.952 c 1
 529.978 513.425 562.938 468.45 553.851 416.915 c 0
 541.138 344.817 451.78 289.962 350.505 289.962 c 0
 251.233 289.962 181.282 343.286 193.747 413.976 c 0
 202.79 465.262 254.873 511.921 319.467 537.659 c 1
 277.145 560.37 253.016 597.821 260.525 640.414 c 0
477.301 417.43 m 0
 484.031 455.603 446.397 493.106 378.594 511.017 c 1
 322.657 493.432 278.876 457.48 272.36 420.526 c 0
 265.409 381.105 303.243 346.492 363.389 346.492 c 0
 422.521 346.492 470.685 379.907 477.301 417.43 c 0
499.007 635.425 m 0
 504.631 667.322 474.175 695.43 425.056 695.43 c 0
 377.092 695.43 338.845 668.431 333.59 638.63 c 0
 325.254 591.355 398.754 561.627 412.893 556.652 c 1
 459.927 575.698 493.842 606.135 499.007 635.425 c 0
EndSplineSet
EndChar

StartChar: uni2079
Encoding: 8313 8313 571
Width: 600
Flags: W
LayerCount: 2
Fore
SplineSet
521.691 395.794 m 1
 472.954 323.107 392.301 290.001 321.288 290.001 c 0
 272.831 290.001 229.35 304.975 199.017 331.443 c 0
 193.867 335.936 l 1
 254.658 381.203 l 1
 257.921 379.351 l 0
 269.424 372.819 266.92 364.358 270.151 362.112 c 1
 270.151 362.112 293.04 347.104 332.932 347.104 c 0
 372.503 347.104 420.003 362.479 450.269 404.236 c 1
 456.446 413.34 474.417 440.975 487.728 495.472 c 1
 454.913 470.742 413.058 457.007 370.417 457.007 c 0
 285.362 457.007 218.448 513.188 234.104 601.975 c 0
 249.846 691.254 338.295 753.647 429.809 753.647 c 0
 490.599 753.647 553.413 724.652 572.085 654.409 c 0
 580.508 623.422 580.002 584.714 570.149 528.834 c 0
 557.317 456.063 535.134 416.604 521.691 395.794 c 1
308.618 603.804 m 0
 297.79 542.396 338.558 512.282 386.461 512.282 c 0
 425.183 512.282 468.618 532.521 497.342 562.253 c 1
 499.459 569.731 501.01 575.354 502.05 581.252 c 0
 514.965 654.495 473.979 697.763 418.379 697.763 c 0
 369.254 697.763 319.282 664.283 308.618 603.804 c 0
EndSplineSet
EndChar

StartChar: arrowleft
Encoding: 8592 8592 576
Width: 600
Flags: W
LayerCount: 2
Fore
SplineSet
164.943 130 m 1
 29.2061 347 l 1
 33.6143 372 l 1
 245.057 573 l 1
 273.829 515 l 1
 135.322 392 l 1
 577.142 392 l 1
 563.564 315 l 1
 121.164 315 l 1
 214.76 180 l 1
 164.943 130 l 1
EndSplineSet
EndChar

StartChar: arrowright
Encoding: 8594 8594 577
Width: 600
Flags: W
LayerCount: 2
Fore
SplineSet
356.943 130 m 1
 324.76 180 l 1
 465.965 315 l 1
 23.5645 315 l 1
 37.1416 392 l 1
 478.961 392 l 1
 383.829 515 l 1
 433.057 573 l 1
 573.614 372 l 1
 569.207 347 l 1
 356.943 130 l 1
EndSplineSet
EndChar

StartChar: arrowboth
Encoding: 8596 8596 578
Width: 600
Flags: W
LayerCount: 2
Fore
SplineSet
356.943 130 m 1
 324.76 180 l 1
 465.965 315 l 1
 121.164 315 l 1
 214.76 180 l 1
 164.943 130 l 1
 29.2061 347 l 1
 33.6143 372 l 1
 245.057 573 l 1
 273.829 515 l 1
 135.322 392 l 1
 478.961 392 l 1
 383.829 515 l 1
 433.057 573 l 1
 573.614 372 l 1
 569.207 347 l 1
 356.943 130 l 1
EndSplineSet
EndChar

StartChar: arrowupdn
Encoding: 8597 8597 579
Width: 600
Flags: W
LayerCount: 2
Fore
SplineSet
500.458 235 m 1
 235.145 -39 l 1
 210.145 -39 l 1
 57.8105 237 l 1
 122.688 276 l 1
 216.272 109.181 l 1
 301.83 594.4 l 1
 137.312 427 l 1
 94.542 468 l 1
 359.855 742 l 1
 384.855 742 l 1
 537.189 466 l 1
 472.312 427 l 1
 378.728 593.819 l 1
 293.17 108.6 l 1
 457.688 276 l 1
 500.458 235 l 1
EndSplineSet
EndChar

StartChar: partialdiff
Encoding: 8706 8706 580
Width: 600
Flags: W
LayerCount: 2
Fore
SplineSet
388.104 470.011 m 0
 309.833 470.011 216.504 405.543 192.468 269.224 c 0
 168.708 134.476 233.179 57.9971 316.323 57.9971 c 0
 381.585 57.9971 478.015 107.826 506.392 268.758 c 0
 534.757 429.627 448.269 470.011 388.104 470.011 c 0
305.009 760 m 1
 402.358 779 l 1
 562.55 678 633.421 511 595.038 293.321 c 0
 584.032 230.904 563.769 156.905 515.156 94.5254 c 0
 460.154 23.9473 381.207 -14.0059 304.214 -14.0059 c 0
 170.266 -14.0059 74.1924 98.7598 102.274 258.02 c 0
 130.314 417.046 264.881 541.31 393.465 541.31 c 0
 447.392 541.31 493.475 518.882 521.813 481 c 1
 494.56 610 413.487 706 305.009 760 c 1
EndSplineSet
EndChar

StartChar: radical
Encoding: 8730 8730 586
Width: 600
Flags: W
LayerCount: 2
Fore
SplineSet
302.747 115.374 m 1
 658.771 770 l 1
 721.601 735 l 1
 324 0 l 1
 240 0 l 1
 188.938 367.643 l 1
 63.6787 191 l 1
 90.1904 341.354 l 1
 176.11 460 l 1
 255.11 460 l 1
 302.747 115.374 l 1
EndSplineSet
EndChar

StartChar: infinity
Encoding: 8734 8734 587
Width: 600
Flags: W
LayerCount: 2
Fore
SplineSet
350.51 323.776 m 1
 320.646 283.209 266.686 246.299 224.093 246.299 c 0
 159.828 246.299 114.116 328.607 127.791 406.161 c 0
 140.904 480.531 212.318 561 275.309 561 c 0
 335.309 561 375.161 521.819 391.206 479.933 c 1
 421.07 520.5 475.662 561 518.256 561 c 0
 582.52 561 628.232 478.691 614.558 401.138 c 0
 601.444 326.768 530.03 246.299 467.04 246.299 c 0
 407.04 246.299 366.555 281.89 350.51 323.776 c 1
469.256 311.404 m 0
 501.155 311.404 548.255 362.413 555.839 405.424 c 0
 563.244 447.424 534.941 496.747 505.142 496.747 c 0
 457.868 496.747 402.454 407.796 395.162 394.647 c 1
 407.464 356.402 429.256 311.404 469.256 311.404 c 0
273.093 495.895 m 0
 241.193 495.895 194.094 444.886 186.51 401.875 c 0
 179.104 359.875 207.407 310.552 237.207 310.552 c 0
 284.48 310.552 339.895 399.503 347.187 412.651 c 1
 334.885 450.896 313.093 495.895 273.093 495.895 c 0
EndSplineSet
EndChar

StartChar: orthogonal
Encoding: 8735 8735 588
Width: 600
Flags: W
LayerCount: 2
Fore
SplineSet
183 268 m 1
 488 268 l 1
 488 197 l 1
 112 197 l 1
 112 573 l 1
 183 573 l 1
 183 268 l 1
EndSplineSet
EndChar

StartChar: intersection
Encoding: 8745 8745 589
Width: 600
Flags: W
LayerCount: 2
Fore
SplineSet
68 100 m 1
 68 274.927 l 0
 68 327.734 69.5918 377.754 96.915 428.113 c 0
 137.982 503.802 219.09 541 302.539 541 c 0
 387.735 541 467.845 502.949 507.858 428.71 c 0
 534.591 379.112 536 329.967 536 278.927 c 0
 536 100 l 1
 456 100 l 1
 456 279.927 l 0
 456 315.785 455.299 350.771 438.664 386.349 c 0
 412.701 441.874 358.195 472.006 300.933 472.006 c 0
 244.586 472.006 190.217 442.583 163.533 387.378 c 0
 145.775 350.639 145 314.233 145 276.927 c 0
 145 100 l 1
 68 100 l 1
EndSplineSet
EndChar

StartChar: integral
Encoding: 8747 8747 590
Width: 600
Flags: W
LayerCount: 2
Fore
SplineSet
351.524 37 m 1
 343.469 -8.68457 338.586 -52.1055 308.17 -96.3809 c 0
 259.892 -166.657 199.59 -202.181 124.051 -202.181 c 0
 58.3662 -202.181 25.041 -175.027 -4.56934 -128 c 1
 62.127 -56 l 1
 68.2812 -61.9473 65.1074 -69.4814 68.4893 -77.248 c 0
 71.5273 -84.2227 78.084 -130.016 142.092 -130.016 c 0
 186.867 -130.016 212.764 -106.298 240.309 -63.2402 c 0
 258.307 -35.1016 263.717 -7.27539 268.703 21 c 2
 361.979 550 l 2
 370.268 597 380.025 641 414.784 685 c 0
 462.363 745 518.006 777 592.006 777 c 0
 659.006 777 691.422 751 721.311 705 c 1
 669.733 628 l 1
 665.733 628 661.086 630 662.496 638 c 1
 662.378 643 663.907 646 660.789 651 c 0
 644.784 685 627.545 712 576.545 712 c 0
 532.545 712 508.019 692 479.142 653 c 0
 455.35 621.182 448.047 584.405 441.88 549.431 c 0
 441.263 545.934 440.04 539 440.04 539 c 1
 351.524 37 l 1
EndSplineSet
EndChar

StartChar: equivalence
Encoding: 8801 8801 593
Width: 600
Flags: W
LayerCount: 2
Fore
SplineSet
100.263 217 m 25
 576.263 217 l 25
 563.744 146 l 25
 87.7441 146 l 25
 100.263 217 l 25
157.393 541 m 25
 633.393 541 l 25
 620.874 470 l 25
 144.874 470 l 25
 157.393 541 l 25
128.828 379 m 25
 604.828 379 l 25
 592.309 308 l 25
 116.309 308 l 25
 128.828 379 l 25
EndSplineSet
EndChar

StartChar: SF100000
Encoding: 9472 9472 596
Width: 600
Flags: W
LayerCount: 2
Fore
SplineSet
0 359.5 m 0
 600 359.5 l 0
 600 282.5 l 0
 0 282.5 l 0
 0 359.5 l 0
EndSplineSet
EndChar

StartChar: SF110000
Encoding: 9474 9474 597
Width: 600
Flags: W
LayerCount: 2
Fore
SplineSet
338.5 820 m 0
 338.5 -180 l 0
 261.5 -180 l 0
 261.5 820 l 0
 338.5 820 l 0
EndSplineSet
EndChar

StartChar: SF010000
Encoding: 9484 9484 598
Width: 600
Flags: W
LayerCount: 2
Fore
SplineSet
261.5 359.5 m 5
 600 359.5 l 5
 600 282.5 l 5
 338.5 282.5 l 5
 338.5 -180 l 1
 261.5 -180 l 1
 261.5 359.5 l 5
EndSplineSet
EndChar

StartChar: SF030000
Encoding: 9488 9488 599
Width: 600
Flags: W
LayerCount: 2
Fore
SplineSet
338.5 359.5 m 5
 338.5 -180 l 1
 261.5 -180 l 1
 261.5 282.5 l 5
 0 282.5 l 5
 0 359.5 l 5
 338.5 359.5 l 5
EndSplineSet
EndChar

StartChar: SF020000
Encoding: 9492 9492 600
Width: 600
Flags: W
LayerCount: 2
Fore
SplineSet
261.5 282.5 m 5
 261.5 820 l 1
 338.5 820 l 1
 338.5 359.5 l 5
 600 359.5 l 5
 600 282.5 l 5
 261.5 282.5 l 5
EndSplineSet
EndChar

StartChar: SF040000
Encoding: 9496 9496 601
Width: 600
Flags: W
LayerCount: 2
Fore
SplineSet
338.5 282.5 m 5
 0 282.5 l 5
 0 359.5 l 5
 261.5 359.5 l 5
 261.5 820 l 1
 338.5 820 l 1
 338.5 282.5 l 5
EndSplineSet
EndChar

